<svg xmlns="http://www.w3.org/2000/svg" width="200" height="200" fill="none" viewBox="0 0 200 200"><rect width="200" height="200" fill="url(#paint0_linear_6370_17404)" rx="100"/><g filter="url(#filter0_d_6370_17404)"><path fill="#AA72E5" stroke="#B377F3" stroke-width="11.539" d="M47.9568 50.6011H53.7261V44.8319V39.1828H59.3751H140.625H146.274V44.8319V50.6011H152.043H157.692V56.2503V137.5V143.149H152.043H146.274V148.918V154.567H140.625H59.3751H53.7261V148.137V142.368H47.9568H42.3078V135.938V56.2503V50.6011H47.9568Z"/><g filter="url(#filter1_dii_6370_17404)"><rect width="23.077" height="11.539" fill="#935FC9" transform="matrix(1 0 0 -1 140.385 160.337)"/><rect width="23.077" height="11.539" fill="#935FC9" transform="matrix(1 0 0 -1 140.385 44.9521)"/><rect width="11.539" height="11.539" fill="#935FC9" transform="matrix(1 0 0 -1 151.923 56.4912)"/><rect width="11.539" height="11.539" fill="#935FC9" transform="matrix(1 0 0 -1 151.923 148.798)"/><rect width="11.539" height="11.539" fill="#935FC9" transform="matrix(1 0 0 -1 36.5386 148.798)"/><rect width="11.539" height="11.539" fill="#935FC9" transform="matrix(1 0 0 -1 36.5386 56.4912)"/><rect width="23.077" height="11.539" fill="#935FC9" transform="matrix(1 0 0 -1 36.5386 160.337)"/><rect width="23.077" height="11.539" fill="#935FC9" transform="matrix(1 0 0 -1 36.5386 44.9521)"/><rect width="80.769" height="11.539" x="59.615" y="21.875" fill="#935FC9"/><rect width="80.769" height="11.539" x="175" y="56.491" fill="#935FC9" transform="rotate(90 175 56.4912)"/><rect width="80.769" height="11.539" x="59.615" y="160.337" fill="#935FC9"/><rect width="80.769" height="11.539" x="36.539" y="56.491" fill="#935FC9" transform="rotate(90 36.5386 56.4912)"/></g><g filter="url(#filter2_dii_6370_17404)"><g style="mix-blend-mode:overlay" opacity=".7"><rect width="11.539" height="11.539" x="94.231" y="68.03" fill="#FCF9FF"/></g><g style="mix-blend-mode:overlay" opacity=".5"><rect width="11.539" height="11.539" x="94.231" y="56.491" fill="#FCF9FF"/></g><g style="mix-blend-mode:overlay" opacity=".5"><rect width="11.539" height="11.539" x="128.846" y="56.491" fill="#FCF9FF"/></g><g style="mix-blend-mode:overlay" opacity=".5"><rect width="11.539" height="11.539" x="59.615" y="125.721" fill="#FCF9FF"/></g><g style="mix-blend-mode:overlay" opacity=".7"><rect width="11.539" height="11.539" x="71.154" y="102.645" fill="#FCF9FF" transform="rotate(-90 71.1538 102.645)"/></g><rect width="11.539" height="11.539" x="94.231" y="102.645" fill="#fff"/><g style="mix-blend-mode:overlay" opacity=".75"><rect width="11.539" height="11.539" x="82.692" y="102.645" fill="#FCF9FF"/></g><g style="mix-blend-mode:overlay" opacity=".5"><rect width="11.539" height="11.539" x="59.615" y="68.03" fill="#FCF9FF"/></g><g style="mix-blend-mode:overlay" opacity=".5"><rect width="11.539" height="11.539" x="128.846" y="125.721" fill="#FCF9FF"/></g><rect width="11.539" height="11.539" x="105.769" y="102.645" fill="#fff" transform="rotate(-90 105.769 102.645)"/><g style="mix-blend-mode:overlay" opacity=".5"><rect width="11.539" height="11.539" x="128.846" y="102.645" fill="#FCF9FF" transform="rotate(-90 128.846 102.645)"/></g><g style="mix-blend-mode:overlay" opacity=".75"><rect width="11.539" height="11.539" x="105.769" y="114.183" fill="#FCF9FF" transform="rotate(-90 105.769 114.183)"/></g><rect width="11.539" height="11.539" x="94.231" y="102.645" fill="#fff" transform="rotate(-90 94.2307 102.645)"/><g style="mix-blend-mode:overlay" opacity=".5"><rect width="11.539" height="11.539" x="71.153" y="68.03" fill="#FCF9FF" transform="rotate(-90 71.1533 68.0298)"/></g><rect width="11.539" height="11.539" x="94.231" y="79.567" fill="#fff"/><g style="mix-blend-mode:overlay" opacity=".75"><rect width="11.539" height="11.539" x="105.769" y="79.567" fill="#FCF9FF"/></g><g style="mix-blend-mode:overlay" opacity=".5"><rect width="11.539" height="11.539" x="59.615" y="44.952" fill="#FCF9FF"/></g><rect width="11.539" height="11.539" x="82.692" y="102.645" fill="#fff" transform="rotate(-90 82.6924 102.645)"/><g style="mix-blend-mode:overlay" opacity=".5"><rect width="11.539" height="11.539" x="59.615" y="102.645" fill="#FCF9FF" transform="rotate(-90 59.6155 102.645)"/></g><g style="mix-blend-mode:overlay" opacity=".75"><rect width="11.539" height="11.539" x="82.692" y="91.106" fill="#FCF9FF" transform="rotate(-90 82.6924 91.106)"/></g><g style="mix-blend-mode:overlay" opacity=".5"><rect width="11.539" height="11.539" x="48.077" y="68.03" fill="#FCF9FF" transform="rotate(-90 48.0767 68.0298)"/></g><g style="mix-blend-mode:overlay" opacity=".7"><rect width="11.539" height="11.539" x="94.231" y="114.183" fill="#FCF9FF"/></g><g style="mix-blend-mode:overlay" opacity=".5"><rect width="11.539" height="11.539" x="94.231" y="125.721" fill="#FCF9FF"/></g><g style="mix-blend-mode:overlay" opacity=".7"><rect width="11.539" height="11.539" x="117.308" y="102.645" fill="#FCF9FF" transform="rotate(-90 117.308 102.645)"/></g></g></g><defs><filter id="filter0_d_6370_17404" width="150" height="156.25" x="25" y="21.875" color-interpolation-filters="sRGB" filterUnits="userSpaceOnUse"><feFlood flood-opacity="0" result="BackgroundImageFix"/><feColorMatrix in="SourceAlpha" result="hardAlpha" type="matrix" values="0 0 0 0 0 0 0 0 0 0 0 0 0 0 0 0 0 0 127 0"/><feOffset dy="6.25"/><feComposite in2="hardAlpha" operator="out"/><feColorMatrix type="matrix" values="0 0 0 0 0.185249 0 0 0 0 0.125301 0 0 0 0 0.247803 0 0 0 0.8 0"/><feBlend in2="BackgroundImageFix" mode="hard-light" result="effect1_dropShadow_6370_17404"/><feBlend in="SourceGraphic" in2="effect1_dropShadow_6370_17404" mode="normal" result="shape"/></filter><filter id="filter1_dii_6370_17404" width="150" height="162.5" x="25" y="21.875" color-interpolation-filters="sRGB" filterUnits="userSpaceOnUse"><feFlood flood-opacity="0" result="BackgroundImageFix"/><feColorMatrix in="SourceAlpha" result="hardAlpha" type="matrix" values="0 0 0 0 0 0 0 0 0 0 0 0 0 0 0 0 0 0 127 0"/><feOffset dy="1.563"/><feComposite in2="hardAlpha" operator="out"/><feColorMatrix type="matrix" values="0 0 0 0 0.235294 0 0 0 0 0.14902 0 0 0 0 0.337255 0 0 0 0.25 0"/><feBlend in2="BackgroundImageFix" mode="plus-darker" result="effect1_dropShadow_6370_17404"/><feBlend in="SourceGraphic" in2="effect1_dropShadow_6370_17404" mode="normal" result="shape"/><feColorMatrix in="SourceAlpha" result="hardAlpha" type="matrix" values="0 0 0 0 0 0 0 0 0 0 0 0 0 0 0 0 0 0 127 0"/><feOffset dy="12.5"/><feGaussianBlur stdDeviation="6.25"/><feComposite in2="hardAlpha" k2="-1" k3="1" operator="arithmetic"/><feColorMatrix type="matrix" values="0 0 0 0 0.254902 0 0 0 0 0.152941 0 0 0 0 0.372549 0 0 0 0.3 0"/><feBlend in2="shape" mode="color-dodge" result="effect2_innerShadow_6370_17404"/><feColorMatrix in="SourceAlpha" result="hardAlpha" type="matrix" values="0 0 0 0 0 0 0 0 0 0 0 0 0 0 0 0 0 0 127 0"/><feOffset dy="1.442"/><feComposite in2="hardAlpha" k2="-1" k3="1" operator="arithmetic"/><feColorMatrix type="matrix" values="0 0 0 0 1 0 0 0 0 1 0 0 0 0 1 0 0 0 0.25 0"/><feBlend in2="effect2_innerShadow_6370_17404" mode="plus-lighter" result="effect3_innerShadow_6370_17404"/></filter><filter id="filter2_dii_6370_17404" width="138.462" height="138.461" x="25" y="27.645" color-interpolation-filters="sRGB" filterUnits="userSpaceOnUse"><feFlood flood-opacity="0" result="BackgroundImageFix"/><feColorMatrix in="SourceAlpha" result="hardAlpha" type="matrix" values="0 0 0 0 0 0 0 0 0 0 0 0 0 0 0 0 0 0 127 0"/><feOffset dy="5.769"/><feGaussianBlur stdDeviation="11.539"/><feColorMatrix type="matrix" values="0 0 0 0 0.933235 0 0 0 0 0.781901 0 0 0 0 1 0 0 0 0.5 0"/><feBlend in2="BackgroundImageFix" mode="normal" result="effect1_dropShadow_6370_17404"/><feBlend in="SourceGraphic" in2="effect1_dropShadow_6370_17404" mode="normal" result="shape"/><feColorMatrix in="SourceAlpha" result="hardAlpha" type="matrix" values="0 0 0 0 0 0 0 0 0 0 0 0 0 0 0 0 0 0 127 0"/><feOffset dy="1.442"/><feComposite in2="hardAlpha" k2="-1" k3="1" operator="arithmetic"/><feColorMatrix type="matrix" values="0 0 0 0 1 0 0 0 0 1 0 0 0 0 1 0 0 0 0.05 0"/><feBlend in2="shape" mode="plus-lighter" result="effect2_innerShadow_6370_17404"/><feColorMatrix in="SourceAlpha" result="hardAlpha" type="matrix" values="0 0 0 0 0 0 0 0 0 0 0 0 0 0 0 0 0 0 127 0"/><feOffset dy="-1.442"/><feComposite in2="hardAlpha" k2="-1" k3="1" operator="arithmetic"/><feColorMatrix type="matrix" values="0 0 0 0 0.185249 0 0 0 0 0.125301 0 0 0 0 0.247803 0 0 0 0.05 0"/><feBlend in2="effect2_innerShadow_6370_17404" mode="hard-light" result="effect3_innerShadow_6370_17404"/></filter><linearGradient id="paint0_linear_6370_17404" x1="100" x2="100" y1="0" y2="200" gradientUnits="userSpaceOnUse"><stop stop-color="#E4C3FF"/><stop offset="1" stop-color="#F1DFFF"/></linearGradient></defs></svg>