<svg xmlns="http://www.w3.org/2000/svg" xmlns:svg="http://www.w3.org/2000/svg" xmlns:xlink="http://www.w3.org/1999/xlink" id="svg5" width="100mm" height="100mm" version="1.1" viewBox="0 0 100 100"><defs id="defs2"><style id="style824"/><linearGradient id="Dégradé_sans_nom_13" x2="141.404" y1="70.702" y2="70.702" gradientUnits="userSpaceOnUse"><stop id="stop826" offset="0" stop-color="#00a19a"/><stop id="stop828" offset="1" stop-color="#29235c"/></linearGradient><linearGradient id="Dégradé_sans_nom_13-2" x1="230.903" x2="260.314" y1="549.746" y2="549.746" gradientTransform="rotate(-15.00005,-1727.3378,1084.483)" xlink:href="#D%C3%A9grad%C3%A9_sans_nom_13"/><linearGradient id="Dégradé_sans_nom_13-3" x1="230.903" x2="256.858" y1="569.29" y2="569.29" gradientTransform="rotate(-15.00002,-1727.3417,1084.4848)" xlink:href="#D%C3%A9grad%C3%A9_sans_nom_13"/><linearGradient id="Dégradé_sans_nom_13-4" x1="295.791" x2="321.747" y1="549.824" y2="549.824" gradientTransform="rotate(-15.00002,-1727.3417,1084.4848)" xlink:href="#D%C3%A9grad%C3%A9_sans_nom_13"/><linearGradient id="Dégradé_sans_nom_13-5" x1="292.632" x2="318.588" y1="569.937" y2="569.937" gradientTransform="rotate(-15.00002,-1727.3417,1084.4848)" xlink:href="#D%C3%A9grad%C3%A9_sans_nom_13"/><linearGradient id="Dégradé_sans_nom_13-6" x1="54.986" x2="88.995" y1="19.836" y2="19.836" xlink:href="#D%C3%A9grad%C3%A9_sans_nom_13"/><linearGradient id="Dégradé_sans_nom_13-7" x1="249.846" x2="299.389" y1="618.406" y2="618.406" xlink:href="#D%C3%A9grad%C3%A9_sans_nom_13"/><clipPath id="clip0_411_785"><rect id="rect1108" width="200" height="200" fill="#fff"/></clipPath><style id="style1077"/><linearGradient id="Dégradé_sans_nom_13-28" x2="141.404" y1="70.702" y2="70.702" gradientUnits="userSpaceOnUse"><stop id="stop1079" offset="0" stop-color="#00a19a"/><stop id="stop1081" offset="1" stop-color="#29235c"/></linearGradient><linearGradient id="Dégradé_sans_nom_13-2-2" x1="230.903" x2="260.314" y1="549.746" y2="549.746" gradientTransform="rotate(-15.00005,-1727.3378,1084.483)" xlink:href="#Dégradé_sans_nom_13-28"/><linearGradient id="Dégradé_sans_nom_13-3-2" x1="230.903" x2="256.858" y1="569.29" y2="569.29" gradientTransform="rotate(-15.00002,-1727.3417,1084.4848)" xlink:href="#Dégradé_sans_nom_13-28"/><linearGradient id="Dégradé_sans_nom_13-4-9" x1="295.791" x2="321.747" y1="549.824" y2="549.824" gradientTransform="rotate(-15.00002,-1727.3417,1084.4848)" xlink:href="#Dégradé_sans_nom_13-28"/><linearGradient id="Dégradé_sans_nom_13-5-8" x1="292.632" x2="318.588" y1="569.937" y2="569.937" gradientTransform="rotate(-15.00002,-1727.3417,1084.4848)" xlink:href="#Dégradé_sans_nom_13-28"/></defs><g id="layer1"><g id="surface1" transform="matrix(0.26458333,0,0,0.26458333,8.5089442,11.263281)"><path style="fill:#2673ca;fill-opacity:1;fill-rule:nonzero;stroke:none" id="path360" d="M 100,200 C 155.41797,200 200,155.41797 200,100 200,44.582031 155.41797,0 100,0 44.582031,0 0,44.582031 0,100 0,155.41797 44.582031,200 100,200 Z m 0,0"/><path style="fill:#fff;fill-opacity:1;fill-rule:nonzero;stroke:none" id="path362" d="M 127.5,115.83203 C 127.5,101.25 118.75,96.25 101.25,94.167969 c -12.5,-1.667969 -15,-5 -15,-10.835938 C 86.25,77.5 90.417969,73.75 98.75,73.75 c 7.5,0 11.66797,2.5 13.75,8.75 0.41797,1.25 1.66797,2.082031 2.91797,2.082031 h 6.66406 c 1.66797,0 2.91797,-1.25 2.91797,-2.914062 V 81.25 C 123.33203,72.082031 115.83203,65 106.25,64.167969 v -10 C 106.25,52.5 105,51.25 102.91797,50.832031 h -6.250001 c -1.667969,0 -2.917969,1.25 -3.335938,3.335938 V 63.75 c -12.5,1.667969 -20.414062,10 -20.414062,20.417969 0,13.75 8.332031,19.164061 25.832031,21.250001 11.66797,2.08203 15.41797,4.58203 15.41797,11.25 0,6.66797 -5.83594,11.25 -13.75,11.25 -10.835939,0 -14.585939,-4.58594 -15.835939,-10.83594 -0.414062,-1.66406 -1.664062,-2.5 -2.914062,-2.5 h -7.085938 c -1.664062,0 -2.914062,1.25 -2.914062,2.91797 v 0.41797 c 1.664062,10.41406 8.332031,17.91406 22.082031,20 v 10 c 0,1.66406 1.25,2.91406 3.332031,3.33203 h 6.249999 c 1.66797,0 2.91797,-1.25 3.33594,-3.33203 v -10 c 12.5,-2.08594 20.83203,-10.83594 20.83203,-22.08594 z m 0,0"/><path style="fill:#fff;fill-opacity:1;fill-rule:nonzero;stroke:none" id="path364" d="M 78.75,159.58203 C 46.25,147.91797 29.582031,111.66797 41.667969,79.582031 c 6.25,-17.5 20,-30.832031 37.082031,-37.082031 1.667969,-0.832031 2.5,-2.082031 2.5,-4.167969 V 32.5 c 0,-1.667969 -0.832031,-2.917969 -2.5,-3.332031 -0.417969,0 -1.25,0 -1.667969,0.414062 -39.582031,12.5 -61.25,54.585938 -48.75,94.167969 7.5,23.33203 25.417969,41.25 48.75,48.75 1.667969,0.83203 3.335938,0 3.75,-1.66797 C 81.25,170.41797 81.25,170 81.25,169.16797 v -5.83594 c 0,-1.25 -1.25,-2.91406 -2.5,-3.75 z M 122.91797,29.582031 c -1.66797,-0.832031 -3.33594,0 -3.75,1.667969 C 118.75,31.667969 118.75,32.082031 118.75,32.917969 V 38.75 c 0,1.667969 1.25,3.332031 2.5,4.167969 32.5,11.664062 49.16797,47.914062 37.08203,80.000001 -6.25,17.5 -20,30.83203 -37.08203,37.08203 -1.66797,0.83203 -2.5,2.08203 -2.5,4.16797 V 170 c 0,1.66797 0.83203,2.91797 2.5,3.33203 0.41797,0 1.25,0 1.66797,-0.41406 39.58203,-12.5 61.25,-54.58594 48.75,-94.16797 -7.5,-23.75 -25.83594,-41.667969 -48.75,-49.167969 z m 0,0"/></g><g style="fill:none" id="g1122" transform="matrix(0.26458333,0,0,0.26458333,41.266133,36.680623)"><g id="g1106" clip-path="url(#clip0_411_785)"><path id="path1102" fill="#50af95" d="M 100,200 C 155.228,200 200,155.228 200,100 200,44.7715 155.228,0 100,0 44.7715,0 0,44.7715 0,100 0,155.228 44.7715,200 100,200 Z"/><path id="path1104" fill="#fff" fill-rule="evenodd" d="m 111.028,103.812 c -0.619,0.046 -3.816,0.237 -10.946,0.237 -5.6713,0 -9.698,-0.17 -11.1106,-0.237 -21.9172,-0.963 -38.2764,-4.7744 -38.2764,-9.3383 0,-4.5635 16.3592,-8.3699 38.2764,-9.3486 v 14.8909 c 1.4332,0.102 5.5372,0.345 11.2086,0.345 6.805,0 10.214,-0.283 10.827,-0.34 V 85.1354 c 21.871,0.9735 38.194,4.7851 38.194,9.3383 0,4.553 -16.318,8.3643 -38.194,9.3333 z m 0,-20.2167 V 70.2703 H 141.55 V 49.9507 H 58.4493 v 20.3196 h 30.5169 v 13.3199 c -24.8044,1.1383 -43.4579,6.047 -43.4579,11.9291 0,5.8827 18.6535,10.7857 43.4579,11.9287 v 42.7 h 22.0568 v -42.715 c 24.747,-1.139 43.37,-6.042 43.37,-11.9188 0,-5.877 -18.607,-10.7805 -43.37,-11.924 z" clip-rule="evenodd"/></g></g></g></svg>