<svg xmlns="http://www.w3.org/2000/svg" xmlns:xlink="http://www.w3.org/1999/xlink" id="Calque_1" x="0" y="0" version="1.1" viewBox="0 0 200 200" style="enable-background:new 0 0 200 200" xml:space="preserve"><style type="text/css">.st0{fill:url(#SVGID_1_)}.st1{fill:#ffd103}.st2{fill:url(#XMLID_6_)}.st3{fill:url(#XMLID_7_)}.st4{fill:#fff}</style><linearGradient id="SVGID_1_" x1="3.499" x2="196.468" y1="77.672" y2="122.222" gradientUnits="userSpaceOnUse"><stop offset="0" style="stop-color:#4ead9e"/><stop offset=".287" style="stop-color:#57b1a0"/><stop offset=".748" style="stop-color:#6ebca5"/><stop offset="1" style="stop-color:#7ec4a9"/></linearGradient><circle cx="100" cy="99.9" r="99" class="st0"/><g><path id="XMLID_4_" d="M77.7,123.3c-0.7-0.2-1.4-0.5-2.2-0.9C76.2,122.7,76.9,123,77.7,123.3z" class="st1"/><linearGradient id="XMLID_6_" x1="73.32" x2="146.172" y1="93.738" y2="93.738" gradientUnits="userSpaceOnUse"><stop offset="0" style="stop-color:#d9d9d9"/><stop offset="1" style="stop-color:#fff"/></linearGradient><path id="XMLID_3_" d="M144,66.3c-1.4-3.2-3.4-6.1-6-8.5c-2.6-2.4-5.5-4.3-8.9-5.7c-3.4-1.4-7-2-11-2H92.9 c-10,4.5-16,11-19.6,16.4c2.4-1.9,5.2-2.9,8.5-2.9h36.3c3.8,0,7,1.3,9.6,3.8c2.6,2.5,3.9,5.6,3.9,9V111c0,1.8-0.4,3.5-1.1,5 c-1.3,3.8-5.5,13.8-17.1,21.4h4.6c3.9,0,7.6-0.7,11-2c3.4-1.4,6.4-3.2,8.9-5.7c2.6-2.4,4.6-5.2,6-8.4c1.4-3.2,2.1-6.6,2.1-10.3 V82.7v-6.2C146.2,72.9,145.5,69.5,144,66.3z" class="st2"/><path id="XMLID_2_" d="M75.5,122.4c0.7,0.4,1.4,0.6,2.2,0.9C77,123,76.3,122.7,75.5,122.4z" class="st1"/><linearGradient id="XMLID_7_" x1="131.055" x2="50.43" y1="115.671" y2="78.072" gradientUnits="userSpaceOnUse"><stop offset="0" style="stop-color:#c6c6c5"/><stop offset="1" style="stop-color:#fff"/></linearGradient><path id="XMLID_1_" d="M118.1,123.9H81.8c-1.5,0-2.9-0.2-4.2-0.6c-0.8-0.2-1.5-0.5-2.2-0.9c-1.2-0.6-2.3-1.4-3.3-2.4 c-2.6-2.5-4-5.6-4-9V76.5c0-3.5,1.3-6.5,4-9c0.4-0.3,0.7-0.7,1.1-1c3.5-5.4,9.6-11.9,19.6-16.4H81.8c-3.9,0-7.5,0.7-10.9,2 c-3.4,1.4-6.4,3.2-9,5.7c-2.6,2.4-4.6,5.3-6,8.5c-1.4,3.2-2.1,6.6-2.1,10.2v25.8v8.8c0,3.7,0.7,7.1,2.1,10.3c1.4,3.2,3.4,6,6,8.4 c2.6,2.4,5.6,4.3,9,5.7c3.4,1.4,7.1,2,10.9,2h11.6h13.1h7c11.6-7.6,15.8-17.5,17.1-21.4c-0.7,1.4-1.6,2.8-2.9,4 C125.2,122.6,122,123.9,118.1,123.9z" class="st3"/><polygon points="93 110.2 93 149.8 93.4 149.8 106.5 149.8 107 149.8 107 103.5" class="st4"/></g></svg>