<svg xmlns="http://www.w3.org/2000/svg" xmlns:xlink="http://www.w3.org/1999/xlink" width="200" height="200" version="1.1" viewBox="0 0 52.917 52.917" xml:space="preserve"><defs><linearGradient id="linearGradient3" x1="86.783" x2="120.65" y1="129.12" y2="162.98" gradientTransform="matrix(.95543 0 0 .95543 4.6223 6.5089)" gradientUnits="userSpaceOnUse"><stop offset="0" stop-color="#fdefa9"/><stop offset=".5" stop-color="#f3d06d"/><stop offset="1" stop-color="#9a6b28"/></linearGradient><radialGradient id="radialGradient12" cx="103.72" cy="146.05" r="27.517" gradientTransform="matrix(.95858 0 0 .95858 4.2959 6.0494)" gradientUnits="userSpaceOnUse"><stop offset=".954" stop-color="#f3d06d"/><stop offset="1" stop-color="#865a1d"/></radialGradient></defs><g transform="translate(-77.258 -119.59)"><ellipse cx="103.72" cy="146.05" fill="none" stroke="url(#radialGradient12)" stroke-width="1.954" rx="25.4" ry="25.4"/><ellipse cx="103.72" cy="146.05" fill="url(#linearGradient3)" stroke="#865a1d" stroke-width=".506" rx="24.268" ry="24.268"/><g><path fill="#40381f" d="m84.667 137.58h35.983v4.2333h-2.1167v2.1167h4.2333v6.35h-8.4667v2.1167h-2.1167v2.1167h-2.1167v-2.1167h2.1167v-2.1167h-4.2333v-2.1167h12.7v-2.1167h-10.583v-4.2333h-2.1167v-2.1167h-2.1167v2.1167h-2.1167v2.1167h-2.1167v2.1167h-4.2333v-2.1167h-2.1167v-2.1167h-2.1167v-2.1167h-8.4667z"/><rect width="2.117" height="2.117" x="116.42" y="139.7" fill="#d4d3c1"/><rect width="2.117" height="2.117" x="114.3" y="141.82" fill="#b6b7a3"/><rect width="2.117" height="2.117" x="101.6" y="139.7" fill="#d4d3c1"/><rect width="2.117" height="2.117" x="99.483" y="141.82" fill="#b6b7a3"/><rect width="2.117" height="2.117" x="88.9" y="143.93" fill="#bbbda9"/></g></g></svg>