<svg xmlns="http://www.w3.org/2000/svg" xmlns:xlink="http://www.w3.org/1999/xlink" id="Calque_1" x="0" y="0" version="1.1" viewBox="0 0 46 46" style="enable-background:new 0 0 46 46" xml:space="preserve"><style type="text/css">.st0{fill:url(#SVGID_1_)}.st1{fill:#fff}</style><g><linearGradient id="SVGID_1_" x1="7.568" x2="41.858" y1="10.948" y2="37.738" gradientUnits="userSpaceOnUse"><stop offset="0" style="stop-color:#0c2883"/><stop offset=".119" style="stop-color:#09237c"/><stop offset=".322" style="stop-color:#061e75"/><stop offset=".327" style="stop-color:#051f76"/><stop offset=".647" style="stop-color:#0a196e"/><stop offset=".831" style="stop-color:#1a1366"/><stop offset=".995" style="stop-color:#231061"/></linearGradient><circle cx="23" cy="23" r="22.7" class="st0"/><g><path d="M33.9,17.8c-0.5-0.7-0.9-1.5-1.4-2.2c-0.6,0.5-1.3,1-1.9,1.5c-0.3,2.4-0.6,4.9-0.9,7.3 c-1.8-0.2-3.5-0.3-5.3-0.3c0.1-3.7,0.1-7.5,0.2-11.4c-0.6-0.7-1.1-1.3-1.7-2c-0.6,0.7-1.1,1.3-1.7,2c0.2,3.9,0.3,7.7,0.4,11.4 c-1.7,0-3.5,0.2-5.3,0.4c-0.3-2.4-0.6-4.8-1-7.3c-0.7-0.5-1.4-1-2.1-1.5c-0.4,0.7-0.8,1.4-1.2,2.2c0.6,3.1,1.3,6.3,1.8,9.4 c6.1-0.9,12.2-0.9,18.3-0.1C32.7,24.1,33.3,21,33.9,17.8z" class="st1"/><path d="M14.8,29.2c0.1,0.9,0.2,1.8,0.3,2.8c0.4-0.1,0.9-0.1,1.3-0.1c1-0.1,1.9-0.2,2.9-0.2c0.8,0,1.5-0.1,2.3-0.1 c0,1.3,0,2.6,0,3.8c0.5-0.2,1-0.3,1.5-0.3c0.5,0,0.9,0.1,1.4,0.3c0-1.3,0-2.5,0-3.8c0.8,0,1.6,0,2.4,0.1c1,0.1,1.9,0.1,2.9,0.2 c0.4,0,0.9,0.1,1.3,0.1c0.1-0.9,0.2-1.9,0.3-2.8C25.8,28.5,20.3,28.5,14.8,29.2z" class="st1"/></g></g></svg>