<svg xmlns="http://www.w3.org/2000/svg" width="190" height="190" fill="none" viewBox="0 0 190 190"><path fill="#D7A012" d="M79.2407 47.8067L48 95L95 166L142 95L110.759 47.8067L120 95L131 95L100 145V95L109 95L95.139 24.21L95 24L94.861 24.21L81 95L90 95V145L59 95L70 95L79.2407 47.8067Z"/><path fill="url(#paint0_linear_45_107)" fill-opacity=".3" d="M79.2407 47.8067L48 95L95 166L142 95L110.759 47.8067L120 95L131 95L100 145V95L109 95L95.139 24.21L95 24L94.861 24.21L81 95L90 95V145L59 95L70 95L79.2407 47.8067Z"/><rect width="181" height="181" x="4.5" y="4.5" stroke="#D7A012" stroke-width="9" rx="90.5"/><rect width="181" height="181" x="4.5" y="4.5" stroke="url(#paint1_linear_45_107)" stroke-opacity=".3" stroke-width="9" rx="90.5"/><defs><linearGradient id="paint0_linear_45_107" x1="95" x2="95" y1="53.583" y2="152.194" gradientUnits="userSpaceOnUse"><stop stop-color="#fff"/><stop offset=".682" stop-color="#fff" stop-opacity="0"/><stop offset="1" stop-color="#fff" stop-opacity=".5"/></linearGradient><linearGradient id="paint1_linear_45_107" x1="95" x2="95" y1="39.583" y2="171.528" gradientUnits="userSpaceOnUse"><stop stop-color="#fff"/><stop offset=".682" stop-color="#fff" stop-opacity="0"/><stop offset="1" stop-color="#fff" stop-opacity=".5"/></linearGradient></defs></svg>