<svg xmlns="http://www.w3.org/2000/svg" xmlns:xlink="http://www.w3.org/1999/xlink" width="199.68" height="199.68" version="1.1" xml:space="preserve" style="shape-rendering:geometricPrecision;text-rendering:geometricPrecision;image-rendering:optimizeQuality;fill-rule:evenodd;clip-rule:evenodd" viewBox="0 0 26.74 26.74"><defs><style type="text/css">.fil0{fill:none}.fil1{fill:#00bc6d}.fil2{fill:#00ff85}.fil3{fill:#fff}</style></defs><g id="Layer_x0020_1"><metadata id="CorelCorpID_0Corel-Layer"/><rect width="26.74" height="26.74" x="0" y="0" class="fil0"/><g id="_1906564039328"><g id="_2531625332784"><path d="M18.4675 22.7978l2.4378 -0.5257 -7.5376 -10.1408 -7.6175 10.1273 2.2001 0.5372 1.6444 -2.1856 3.7754 2.1798 3.6166 -2.0881 1.4808 2.0958 0 0zm-4.9296 -6.9977l2.4313 3.4553 -2.5992 1.5006 -2.7116 -1.5656 2.7157 -3.623 0.1638 0.2327z" class="fil1"/><path d="M8.2788 3.9425l-2.4377 0.5257 6.0435 8.1385 1.2861 -1.7112 -4.892 -6.953 0 0zm10.5082 0.0019l-5.214 6.9525 1.2876 1.7324 6.1264 -8.1476 -2.2 -0.5372 -0.0001 -0.0001z" class="fil2"/><polygon points="11.46 7.101 13.395 5.984 15.447 7.169 16.512 5.75 13.395 3.95 10.443 5.655" class="fil3"/><polygon points="6.998 13.37 6.998 9.678 8.186 8.992 7.128 7.568 5.238 8.659 5.238 18.081 7.082 19.146 8.149 17.727 6.998 17.062" class="fil3"/><polygon points="19.742 9.796 19.742 17.062 18.592 17.727 19.658 19.146 21.503 18.081 21.503 8.659 19.612 7.568 18.554 8.992 19.742 9.678" class="fil3"/></g></g></g></svg>