<svg xmlns="http://www.w3.org/2000/svg" xmlns:xlink="http://www.w3.org/1999/xlink" width="200" height="200" viewBox="0 0 200 200"><defs><clipPath id="clip-path"><rect id="Rectangle_3" width="200" height="200" fill="#fff" data-name="Rectangle 3" transform="translate(0 0.653)"/></clipPath></defs><g id="logo" clip-path="url(#clip-path)" transform="translate(0 -0.653)"><path id="Path_17" fill="#fff" d="M100,200.653a100,100,0,1,0-100-100A100,100,0,0,0,100,200.653Z" data-name="Path 17" transform="translate(0 0)"/><path id="Path_18" fill="#a5a9b3" fill-rule="evenodd" d="M167.333,87.431A80.556,80.556,0,1,1,86.778,6.875,80.556,80.556,0,0,1,167.333,87.431Zm-8.333,0A72.222,72.222,0,1,1,86.778,15.209,72.222,72.222,0,0,1,159,87.431Z" data-name="Path 18" transform="translate(13.222 13.222)"/><path id="Path_19" fill="#8b8f99" d="M33.41,21.32h0A31.25,31.25,0,0,1,64.66,52.57H33.41Z" data-name="Path 19" transform="translate(70.996 43.918)"/><path id="Path_20" fill="#8b8f99" d="M20.632,34.1h31.25v31.25h0A31.25,31.25,0,0,1,20.632,34.1Z" data-name="Path 20" transform="translate(43.843 71.072)"/><path id="Path_21" fill="#8b8f99" d="M20.682,52.671a31.25,31.25,0,0,1,31.25-31.25h0v31.25Z" data-name="Path 21" transform="translate(43.949 44.131)"/><path id="Path_22" fill="#8b8f99" d="M33.41,34.148H64.66A31.25,31.25,0,0,1,33.41,65.4h0Z" data-name="Path 22" transform="translate(70.996 71.178)"/><path id="Path_23" fill="#fff" d="M32,75.278A40.625,40.625,0,0,0,72.625,115.9c12.5-3.125,20.676-7.012,28.125-15.625,6.16-7.122,12.5-14.844,12.5-25a40.625,40.625,0,0,0-81.25,0Z" data-name="Path 23" transform="translate(68 72.25)"/><path id="Path_24" fill="#ff0058" d="M66.351,100.354A31.351,31.351,0,1,0,35,69,31.35,31.35,0,0,0,66.351,100.354Z" data-name="Path 24" transform="translate(74.375 78.625)"/><path id="Path_25" fill="#fff" d="M66.325,56.365H64.761v-4.7a9.913,9.913,0,0,0-19.825,0v4.7H43.372A3.131,3.131,0,0,0,40.24,59.5V72.022a3.131,3.131,0,0,0,3.132,3.131H66.325a3.132,3.132,0,0,0,3.131-3.131V59.5a3.132,3.132,0,0,0-3.131-3.132Zm-6.782,0H50.149v-4.7a4.7,4.7,0,1,1,9.394,0Z" data-name="Path 25" transform="translate(85.51 87.346)"/></g></svg>