<svg xmlns="http://www.w3.org/2000/svg" width="200" height="200" fill="none" viewBox="0 0 200 200"><path fill="url(#paint0_linear_961_31362)" d="M33.0267 145.079L9.02734 78.002L9.02835 78.002L75.8507 145.079H33.0267Z"/><path fill="url(#paint1_linear_961_31362)" d="M9 78.1711L75.8224 54.0879L30.3696 99.6255L9 78.1711Z"/><path fill="url(#paint2_linear_961_31362)" d="M124.096 54.0848L124.011 54L54.3906 123.621L75.7602 145.075L166.835 54L124.096 54.0848Z"/><path fill="url(#paint3_linear_961_31362)" d="M183.603 99.5376L166.919 54H166.834L145.465 75.3696L191.002 121.077L183.603 99.5376Z"/><path fill="url(#paint4_linear_961_31362)" d="M190.885 121.031L124.062 145.029L169.515 99.5762L190.885 121.031Z"/><defs><linearGradient id="paint0_linear_961_31362" x1="-1.754" x2="65.201" y1="88.77" y2="155.725" gradientUnits="userSpaceOnUse"><stop stop-color="#5F96FF"/><stop offset=".583" stop-color="#4F54D9"/><stop offset=".734" stop-color="#4F4FD6"/><stop offset=".915" stop-color="#4E40CC"/><stop offset="1" stop-color="#4E37C5"/></linearGradient><linearGradient id="paint1_linear_961_31362" x1="19.645" x2="65.129" y1="88.908" y2="43.424" gradientUnits="userSpaceOnUse"><stop stop-color="#3D56DE"/><stop offset=".269" stop-color="#4B79FF"/><stop offset="1" stop-color="#90ECFF"/></linearGradient><linearGradient id="paint2_linear_961_31362" x1="65.067" x2="156.121" y1="134.372" y2="43.318" gradientUnits="userSpaceOnUse"><stop stop-color="#571EAB"/><stop offset=".01" stop-color="#5A20AF"/><stop offset=".082" stop-color="#6A2FCB"/><stop offset=".161" stop-color="#783AE0"/><stop offset=".248" stop-color="#8142EF"/><stop offset=".349" stop-color="#8647F8"/><stop offset=".5" stop-color="#8848FB"/><stop offset="1" stop-color="#A97FFB"/></linearGradient><linearGradient id="paint3_linear_961_31362" x1="156.124" x2="201.734" y1="64.713" y2="110.323" gradientUnits="userSpaceOnUse"><stop stop-color="#702BFF"/><stop offset=".43" stop-color="#A33AFF"/><stop offset=".655" stop-color="#B33DFF"/><stop offset="1" stop-color="#D343FF"/></linearGradient><linearGradient id="paint4_linear_961_31362" x1="134.73" x2="180.214" y1="155.761" y2="110.277" gradientUnits="userSpaceOnUse"><stop stop-color="#FFA7FF"/><stop offset=".265" stop-color="#F46BFF"/><stop offset=".477" stop-color="#ED41FF"/><stop offset=".585" stop-color="#EA31FF"/><stop offset=".674" stop-color="#E42DFA"/><stop offset=".795" stop-color="#D320EB"/><stop offset=".934" stop-color="#B60CD3"/><stop offset="1" stop-color="#A600C5"/></linearGradient></defs></svg>