<svg xmlns="http://www.w3.org/2000/svg" xmlns:svg="http://www.w3.org/2000/svg" xmlns:xlink="http://www.w3.org/1999/xlink" id="svg5" width="100mm" height="100mm" version="1.1" viewBox="0 0 100 100"><defs id="defs2"><style id="style824">.cls-1{fill:url(#Dégradé_sans_nom_13)}.cls-2,.cls-4{stroke:#fff;stroke-miterlimit:10;stroke-width:7.20979px}.cls-2{fill:url(#Dégradé_sans_nom_13-2)}.cls-4{fill:url(#Dégradé_sans_nom_13-4)}</style><linearGradient id="Dégradé_sans_nom_13" x2="141.404" y1="70.702" y2="70.702" gradientUnits="userSpaceOnUse"><stop id="stop826" offset="0" stop-color="#00a19a"/><stop id="stop828" offset="1" stop-color="#29235c"/></linearGradient><linearGradient id="Dégradé_sans_nom_13-2" x1="230.903" x2="260.314" y1="549.746" y2="549.746" gradientTransform="rotate(-15.00005,-1727.3378,1084.483)" xlink:href="#D%C3%A9grad%C3%A9_sans_nom_13"/><linearGradient id="Dégradé_sans_nom_13-3" x1="230.903" x2="256.858" y1="569.29" y2="569.29" gradientTransform="rotate(-15.00002,-1727.3417,1084.4848)" xlink:href="#D%C3%A9grad%C3%A9_sans_nom_13"/><linearGradient id="Dégradé_sans_nom_13-4" x1="295.791" x2="321.747" y1="549.824" y2="549.824" gradientTransform="rotate(-15.00002,-1727.3417,1084.4848)" xlink:href="#D%C3%A9grad%C3%A9_sans_nom_13"/><linearGradient id="Dégradé_sans_nom_13-5" x1="292.632" x2="318.588" y1="569.937" y2="569.937" gradientTransform="rotate(-15.00002,-1727.3417,1084.4848)" xlink:href="#D%C3%A9grad%C3%A9_sans_nom_13"/><linearGradient id="Dégradé_sans_nom_13-6" x1="54.986" x2="88.995" y1="19.836" y2="19.836" xlink:href="#D%C3%A9grad%C3%A9_sans_nom_13"/><linearGradient id="Dégradé_sans_nom_13-7" x1="249.846" x2="299.389" y1="618.406" y2="618.406" xlink:href="#D%C3%A9grad%C3%A9_sans_nom_13"/><clipPath id="clip0_411_785"><rect id="rect1108" width="200" height="200" fill="#fff"/></clipPath><style id="style1077">.cls-1{fill:url(#Dégradé_sans_nom_13)}.cls-2,.cls-4{stroke:#fff;stroke-miterlimit:10;stroke-width:7.20979px}.cls-2{fill:url(#Dégradé_sans_nom_13-2)}.cls-4{fill:url(#Dégradé_sans_nom_13-4)}</style><linearGradient id="Dégradé_sans_nom_13-28" x2="141.404" y1="70.702" y2="70.702" gradientUnits="userSpaceOnUse"><stop id="stop1079" offset="0" stop-color="#00a19a"/><stop id="stop1081" offset="1" stop-color="#29235c"/></linearGradient><linearGradient id="Dégradé_sans_nom_13-2-2" x1="230.903" x2="260.314" y1="549.746" y2="549.746" gradientTransform="rotate(-15.00005,-1727.3378,1084.483)" xlink:href="#Dégradé_sans_nom_13-28"/><linearGradient id="Dégradé_sans_nom_13-3-2" x1="230.903" x2="256.858" y1="569.29" y2="569.29" gradientTransform="rotate(-15.00002,-1727.3417,1084.4848)" xlink:href="#Dégradé_sans_nom_13-28"/><linearGradient id="Dégradé_sans_nom_13-4-9" x1="295.791" x2="321.747" y1="549.824" y2="549.824" gradientTransform="rotate(-15.00002,-1727.3417,1084.4848)" xlink:href="#Dégradé_sans_nom_13-28"/><linearGradient id="Dégradé_sans_nom_13-5-8" x1="292.632" x2="318.588" y1="569.937" y2="569.937" gradientTransform="rotate(-15.00002,-1727.3417,1084.4848)" xlink:href="#Dégradé_sans_nom_13-28"/><clipPath id="clip0_639_988"><rect id="rect94" width="200" height="200" fill="#fff"/></clipPath><style id="style361">.cls-1{fill:#fff}.cls-2{fill:#202020;stroke:#000;stroke-width:.21px}.cls-4{fill:#006fff}</style></defs><g id="layer1"><g style="fill:none" id="g111" transform="matrix(0.26458333,0,0,0.26458333,8.2659846,11.995414)"><g id="g92" clip-path="url(#clip0_639_988)"><path id="path82" fill="#2775ca" d="m 161.82,144.3 c 2.87,4.54 4.53,9.92 4.53,15.7 0,16.25 -13.12,29.38 -29.38,29.38 -16.26,0 -29.37,-13.13 -29.37,-29.38 0,-7.08 2.5,-13.44 6.56,-18.54 0.31,-0.42 0.62,-0.83 1.04,-1.15 5.42,-5.94 13.12,-9.69 21.77,-9.69 5.68,0 10.97,1.6 15.46,4.38 3.8,2.35 7.01,5.53 9.39,9.3 z"/><path id="path84" fill="#000" d="m 174.59,166.75 c 0.4,-2.23 0.62,-4.52 0.62,-6.86 0,-9.01 -3.15,-17.31 -8.41,-23.86 -2.83,-3.53 -6.27,-6.54 -10.16,-8.89 -5.75,-3.47 -12.48,-5.48 -19.66,-5.48 -3.68,0 -7.32,0.55 -10.79,1.59 -6.46,1.94 -12.38,5.58 -17.12,10.59 -0.83,0.83 -1.46,1.67 -1.88,2.19 -3.64,4.6 -6.14,9.74 -7.43,15.21 -0.67,2.84 -1.01,5.76 -1.01,8.75 0,17.23 11.52,31.88 27.25,36.62 -8.29,2.21 -17,3.38 -26,3.38 C 44.58,200 0,155.42 0,100 0,44.58 44.58,0 100,0 c 55.42,0 100,44.58 100,100 0,25.7 -9.59,49.08 -25.41,66.75 z"/><path id="path86" fill="#23f7dd" fill-rule="evenodd" d="m 158.802,128.546 0.055,-0.106 -1.01,-0.54 c 0.322,0.211 0.64,0.426 0.955,0.646 z m -6.986,-3.871 c -4.566,-1.938 -9.58,-3.015 -14.836,-3.015 -3.68,0 -7.32,0.55 -10.79,1.59 -4.851,1.457 -9.398,3.873 -13.369,7.107 l -10.896,-4.416 c -1.235,-0.504 -2.6148,-0.504 -3.85,0 L 49.9852,145.529 41.1426,128.535 93.6334,100.416 41.1426,72.2971 49.9852,55.3037 98.075,74.7426 c 1.2352,0.5028 2.615,0.5028 3.85,0 l 48.09,-19.4389 8.816,16.9389 -52.492,28.1184 z" clip-rule="evenodd"/><path id="path88" fill="#fff" d="m 166.35,160 c 0,16.25 -13.12,29.38 -29.38,29.38 -16.26,0 -29.37,-13.13 -29.37,-29.38 0,-7.08 2.5,-13.44 6.56,-18.54 0.31,-0.42 0.62,-0.83 1.04,-1.15 5.42,-5.94 13.12,-9.69 21.77,-9.69 5.68,0 10.97,1.6 15.46,4.38 3.79,2.34 7,5.53 9.38,9.29 2.88,4.55 4.54,9.93 4.54,15.71 z"/><path id="path90" fill="#000" d="m 126.696,174.6 h 5.256 l 5.004,-16.776 5.004,16.776 h 5.328 l 7.452,-25.2 h -5.472 l -4.86,17.244 -5.184,-17.244 h -4.572 l -5.148,17.244 -4.824,-17.244 h -5.472 z"/></g></g><g id="g390" transform="matrix(0.26458333,0,0,0.26458333,42.193245,36.56086)"><path id="path365" d="m 100,0 v 0 c 55.23,0 100,44.77 100,100 v 0 c 0,55.23 -44.77,100 -100,100 v 0 C 44.77,200 0,155.23 0,100 v 0 C 0,44.77 44.77,0 100,0 Z" class="cls-4"/><path id="path369" d="m 34.07,130.05 c -0.52,-1.05 -0.12,-2.33 0.92,-2.87 l 45.55,-23.92 c 1.53,-0.8 1.53,-2.98 0,-3.79 L 33.48,74.5 c -1.04,-0.55 -1.44,-1.83 -0.89,-2.87 3.36,-6.42 8.91,-16.65 11.88,-21.81 0.67,-1.17 3.15,-0.81 4.43,-0.29 1.28,0.52 31.49,11.94 48.51,18.62 2.29,0.81 4.79,0.81 7.08,0 17.16,-6.69 31.62,-12.44 48.72,-19.39 2.05,-0.84 3.54,-1.22 4.7,1.17 2.48,5 8.59,15.31 12.04,21.71 0.56,1.03 0.16,2.31 -0.88,2.86 l -47.08,25.12 c -1.52,0.81 -1.51,2.99 0,3.79 l 47.06,24.82 c 1.04,0.55 1.45,1.84 0.89,2.88 -3.32,6.19 -8.63,15.31 -11.62,20.42 -0.43,0.73 -3.19,0.73 -4.53,0.2 -12.63,-4.93 -33.51,-12.09 -46.08,-17.15 -7.18,-2.88 -9.32,-3.71 -16.75,0 -12.89,6.43 -27.78,11.6 -41.12,17.15 -3.37,1.4 -5.95,-0.74 -7.5,-4.29 -2.08,-4.51 -5.61,-12.04 -8.27,-17.39 z" class="cls-1"/><path id="path371" d="m 51.92,56.59 v 0 c 7.18,2.84 14.37,5.73 21.57,8.63 8.02,3.23 16.04,6.46 24.05,9.61 v 0 c 0,0 0.03,0.01 0.03,0.01 2.28,0.81 4.78,0.81 7.06,0 v 0 c 0,0 0.03,-0.01 0.03,-0.01 15.38,-6 30.69,-12.21 46.01,-18.43 v 0 c 0.96,-0.39 1.49,-0.54 1.86,-0.49 0.21,0.03 0.55,0.13 0.98,1.01 v 0 c 1.81,3.65 3.68,7.26 5.66,11.07 0.56,1.08 1.12,2.17 1.7,3.28 l -51.98,27.9 c -1.51,0.81 -1.51,2.97 0,3.78 l 52.02,27.9 c -0.51,0.98 -1.01,1.96 -1.5,2.92 -2.07,4.03 -4.08,7.94 -6.29,11.74 -0.02,0 -0.04,0.01 -0.07,0.02 -0.19,0.05 -0.48,0.09 -0.84,0.1 -0.73,0.02 -1.49,-0.09 -1.92,-0.26 -6.84,-2.67 -16.71,-6.72 -25.94,-10.51 -6.03,-2.48 -11.79,-4.84 -16.26,-6.64 l -0.06,-0.02 c -3.13,-1.26 -5.39,-2.17 -7.71,-2.27 -2.39,-0.1 -4.74,0.64 -8.11,2.33 -9.2,4.59 -21.32,9.57 -31.94,13.93 -2.66,1.09 -5.22,2.14 -7.61,3.14 -1.46,0.61 -2.34,0.7 -2.94,0.5 -0.55,-0.18 -1.17,-0.72 -1.81,-2.21 v 0 -0.02 c -1.39,-3 -2.94,-5.94 -4.52,-8.94 -0.67,-1.26 -1.34,-2.53 -2,-3.82 l 52.03,-27.9 c 1.51,-0.81 1.51,-2.97 0,-3.78 L 41.45,71.26 c 0.54,-1.05 1.06,-2.08 1.59,-3.11 2.03,-4 4,-7.86 6.17,-11.64 0.02,0 0.05,-0.02 0.08,-0.03 0.19,-0.06 0.47,-0.1 0.82,-0.12 0.71,-0.04 1.44,0.06 1.81,0.22 z m 101.28,88.88 c 0,0 0,0 -0.01,0 z" class="cls-2"/><path id="path373" d="m 110.93,104.91 51.44,25.72 -3.22,4.29 -50.68,-26.89 c -0.77,-0.41 -0.76,-1.52 0.02,-1.91 l 2.43,-1.21 z"/><path id="path375" d="m 40.18,130.62 50.37,-25.72 2.92,2.19 c 0.63,0.47 0.55,1.44 -0.15,1.81 l -49.93,26.01 -3.22,-4.29 z"/><path id="path377" d="m 101.27,75.98 49.3,-19.3 2.14,-1.07 8.57,15 -2.14,1.07 -4.91,-8.84 c -0.26,-0.46 -0.81,-0.67 -1.31,-0.49 l -48.67,17.88 c -1.93,0.71 -4.05,0.7 -5.97,-0.02 L 51.41,62.63 c -0.93,-0.35 -1.98,-0.01 -2.54,0.82 l -5.49,8.23 h -3.21 c 0,0 9.64,-15 9.64,-15 l 51.44,19.29 z"/></g></g></svg>