<svg xmlns="http://www.w3.org/2000/svg" id="Livello_1" width="200" height="200" data-name="Livello 1" viewBox="0 0 200 200"><defs><style>.cls-1{fill:#2f692d}.cls-2{fill:#3d8032}.cls-3{fill:#cddecd}.cls-4{fill:#86c383}</style></defs><circle cx="100.016" cy="100.07" r="76.512" class="cls-1"/><ellipse cx="103.05" cy="99.93" class="cls-2" rx="73.478" ry="76.512"/><ellipse cx="104.653" cy="99.93" class="cls-3" rx="63.464" ry="64.895"/><ellipse cx="104.74" cy="99.93" class="cls-4" rx="42.344" ry="43.688"/><g id="MultiverseX"><polygon points="58.129 87.97 62.519 73.833 102.158 81.473 137.127 59.285 145.928 70.502 110.962 99.164 154.07 112.254 149.88 126.474 109.679 118.473 76.123 140.855 66.14 129.052 100.577 101.249 58.129 87.97" class="cls-3"/></g><ellipse cx="76.701" cy="99.93" class="cls-3" rx="1.566" ry="2.253"/><ellipse cx="111.353" cy="126.098" class="cls-3" rx="1.566" ry="2.253"/><ellipse cx="70.686" cy="110.997" class="cls-3" rx="1.566" ry="2.253"/><ellipse cx="94.22" cy="69.793" class="cls-3" rx="2.253" ry="1.566" transform="translate(-8.90893 125.58584) rotate(-64.94247)"/><ellipse cx="138.195" cy="92.59" class="cls-3" rx="2.253" ry="1.566" transform="translate(-4.21004 178.56369) rotate(-64.94247)"/><ellipse cx="102.943" cy="75.812" class="cls-3" rx="1.566" ry="2.253" transform="matrix(0.86603, -0.5, 0.5, 0.86603, -24.11418, 61.62828)"/><ellipse cx="85.16" cy="104.531" class="cls-3" rx="1.566" ry="2.253" transform="translate(-40.85621 56.58436) rotate(-30)"/><ellipse cx="104.813" cy="132.949" class="cls-3" rx="1.566" ry="2.253" transform="translate(-52.43218 70.2182) rotate(-30)"/><ellipse cx="120.486" cy="127.452" class="cls-3" rx="1.566" ry="2.253" transform="translate(-47.58412 77.31816) rotate(-30)"/><ellipse cx="130.059" cy="97.967" class="cls-3" rx="1.566" ry="2.253" transform="translate(-31.55913 78.15445) rotate(-30)"/><ellipse cx="104.813" cy="63.677" class="cls-3" rx="1.566" ry="2.253" transform="matrix(0.86603, -0.5, 0.5, 0.86603, -17.79623, 60.93753)"/></svg>