<svg xmlns="http://www.w3.org/2000/svg" xmlns:svg="http://www.w3.org/2000/svg" id="svg429" fill="none" version="1.1" viewBox="-0.25 0.75 27.5 29.14"><rect id="rect366" width="18" height="24" x="-2.355" y="6.624" fill="url(#paint0_linear_153_1141)" stroke="url(#paint1_linear_153_1141)" stroke-width=".5" rx="2" transform="rotate(-19.574)" style="fill:url(#paint0_linear_153_1141);stroke:url(#paint1_linear_153_1141)"/><rect id="rect368" width="18" height="24" x="9" y="1" fill="url(#paint2_linear_153_1141)" stroke="url(#paint3_linear_153_1141)" stroke-width=".5" rx="2" style="fill:url(#paint2_linear_153_1141);stroke:url(#paint3_linear_153_1141)"/><path id="path370" fill="#fcfcfd" d="M 18.2668,12.4725 14.9853,6.32178 13.0004,7.35615 15.2755,12.988 c 0.0588,0.1454 0.0588,0.3058 0,0.4507 l -2.2751,5.6319 1.9849,1.0343 3.2815,-6.1507 3.2815,6.1507 1.985,-1.0343 -2.2752,-5.6319 c -0.0588,-0.1454 -0.0588,-0.3058 0,-0.4507 l 2.2752,-5.63185 -1.985,-1.03437 z"/><defs id="defs427"><linearGradient id="paint0_linear_153_1141" x1=".025" x2="23.293" y1="7.03" y2="14.4" gradientTransform="translate(-2.3553731,-0.40629324)" gradientUnits="userSpaceOnUse"><stop id="stop382" stop-color="#1B1A22"/><stop id="stop384" offset="1" stop-color="#262531"/></linearGradient><linearGradient id="paint1_linear_153_1141" x1="5.557" x2="14.108" y1="12.95" y2="15.35" gradientTransform="translate(-2.3553731,-0.40629324)" gradientUnits="userSpaceOnUse"><stop id="stop387" stop-color="#FFA06A"/><stop id="stop389" offset="1" stop-color="#F1BF78"/></linearGradient><linearGradient id="paint2_linear_153_1141" x1="9.026" x2="32.293" y1="1" y2="8.37" gradientUnits="userSpaceOnUse"><stop id="stop392" stop-color="#1B1A22"/><stop id="stop394" offset="1" stop-color="#262531"/></linearGradient><linearGradient id="paint3_linear_153_1141" x1="14.557" x2="23.108" y1="6.92" y2="9.32" gradientUnits="userSpaceOnUse"><stop id="stop397" stop-color="#FFA06A"/><stop id="stop399" offset="1" stop-color="#F1BF78"/></linearGradient></defs></svg>