<svg xmlns="http://www.w3.org/2000/svg" width="200" height="200" fill="none" viewBox="0 0 200 200"><path fill="url(#paint0_linear_5183_317)" d="M10.4766 100C10.4766 149.446 50.5602 189.529 100.006 189.529C149.452 189.529 189.535 149.446 189.535 100C189.535 50.5542 149.452 10.4706 100.006 10.4706C50.5602 10.4706 10.4766 50.5542 10.4766 100Z"/><mask id="mask0_5183_317" style="mask-type:luminance" width="200" height="200" x="0" y="0" maskUnits="userSpaceOnUse"><path fill="#fff" d="M0 -2.98023e-06H200V200H0V-2.98023e-06Z"/></mask><path fill="#fff" fill-opacity=".3" d="M156.709 47.8113L151.766 52.7543C176.21 79.4871 176.21 120.455 151.766 147.187L156.709 152.127C183.905 122.631 183.905 77.1949 156.709 47.6953V47.8113Z"/><path fill="#fff" fill-opacity=".3" d="M52.7699 48.24C79.4992 23.7959 120.47 23.7959 147.2 48.24L152.143 43.2971C122.643 16.1002 77.2105 16.1002 47.7109 43.2971L52.7699 48.24Z"/><path fill="#fff" fill-opacity=".3" d="M48.1414 147.236C23.7289 120.51 23.7289 79.5779 48.1414 52.8521L43.1984 47.9092C16.0016 77.4088 16.0016 122.841 43.1984 152.341L48.1414 147.236Z"/><path fill="#fff" fill-opacity=".3" d="M147.138 151.8C120.405 176.244 79.4375 176.244 52.7047 151.8L47.7617 156.739C77.2613 183.936 122.694 183.936 152.193 156.739L147.138 151.8Z"/><path fill="#fff" d="M128.962 81.8283C127.974 71.517 119.079 68.0576 107.826 67.0029V52.7998H99.1281V66.7393C96.8395 66.7393 94.498 66.7393 92.1742 66.7393V52.7998H83.5434V67.1014H65.8984V76.4107C65.8984 76.4107 72.325 76.2947 72.2266 76.4107C74.6348 76.1436 76.818 77.8346 77.166 80.2322V119.375C77.1168 120.198 76.7371 120.964 76.1148 121.499C75.4996 122.047 74.691 122.321 73.8719 122.258C73.9879 122.356 67.5473 122.258 67.5473 122.258L65.8984 132.654H83.3781V147.184H92.0758V132.868H99.0297V147.117H107.745V132.752C122.44 131.863 132.685 128.238 133.971 114.481C135.009 103.411 129.802 98.4678 121.484 96.4744C126.543 93.9889 129.672 89.3729 128.962 81.8283ZM116.773 112.769C116.773 123.576 98.2562 122.339 92.357 122.339V103.165C98.2562 103.179 116.773 101.484 116.773 112.769ZM112.737 85.7518C112.737 95.6342 97.2824 94.4318 92.3746 94.4318V77.0014C97.2824 77.0014 112.737 75.4545 112.737 85.7518Z"/><defs><linearGradient id="paint0_linear_5183_317" x1="10.477" x2="189.535" y1="100" y2="100" gradientUnits="userSpaceOnUse"><stop stop-color="#79E49B"/><stop offset=".937" stop-color="#309287"/><stop offset="1" stop-color="#309287"/></linearGradient></defs></svg>