<svg xmlns="http://www.w3.org/2000/svg" xmlns:svg="http://www.w3.org/2000/svg" xmlns:xlink="http://www.w3.org/1999/xlink" id="svg5" width="100mm" height="100mm" version="1.1" viewBox="0 0 100 100"><defs id="defs2"><style id="style824"/><linearGradient id="Dégradé_sans_nom_13" x2="141.404" y1="70.702" y2="70.702" gradientUnits="userSpaceOnUse"><stop id="stop826" offset="0" stop-color="#00a19a"/><stop id="stop828" offset="1" stop-color="#29235c"/></linearGradient><linearGradient id="Dégradé_sans_nom_13-2" x1="230.903" x2="260.314" y1="549.746" y2="549.746" gradientTransform="rotate(-15.00005,-1727.3378,1084.483)" xlink:href="#D%C3%A9grad%C3%A9_sans_nom_13"/><linearGradient id="Dégradé_sans_nom_13-3" x1="230.903" x2="256.858" y1="569.29" y2="569.29" gradientTransform="rotate(-15.00002,-1727.3417,1084.4848)" xlink:href="#D%C3%A9grad%C3%A9_sans_nom_13"/><linearGradient id="Dégradé_sans_nom_13-4" x1="295.791" x2="321.747" y1="549.824" y2="549.824" gradientTransform="rotate(-15.00002,-1727.3417,1084.4848)" xlink:href="#D%C3%A9grad%C3%A9_sans_nom_13"/><linearGradient id="Dégradé_sans_nom_13-5" x1="292.632" x2="318.588" y1="569.937" y2="569.937" gradientTransform="rotate(-15.00002,-1727.3417,1084.4848)" xlink:href="#D%C3%A9grad%C3%A9_sans_nom_13"/><linearGradient id="Dégradé_sans_nom_13-6" x1="54.986" x2="88.995" y1="19.836" y2="19.836" xlink:href="#D%C3%A9grad%C3%A9_sans_nom_13"/><linearGradient id="Dégradé_sans_nom_13-7" x1="249.846" x2="299.389" y1="618.406" y2="618.406" xlink:href="#D%C3%A9grad%C3%A9_sans_nom_13"/><clipPath id="clip0_411_785"><rect id="rect1108" width="200" height="200" fill="#fff"/></clipPath><clipPath id="clip0_639_988"><rect id="rect1602" width="200" height="200" fill="#fff"/></clipPath><clipPath id="clip0_639_988-3"><rect id="rect1590" width="200" height="200" x="0" y="0" fill="#fff"/></clipPath></defs><g id="layer1"><g style="fill:none" id="g2035" transform="matrix(0.26458333,0,0,0.26458333,7.0511684,12.694874)"><circle id="circle2008" cx="100" cy="100" r="100" fill="#627eea"/><path id="path2010" fill="#fff" fill-opacity=".6" d="m 99.5,35 v 48.0409 l 40.477,18.1481 z"/><path id="path2012" fill="#fff" d="M 99.5006,35 59,101.189 99.5006,83.0409 Z"/><path id="path2014" fill="#c0cbf7" d="m 99.5,132.329 v 32.648 l 40.501,-56.233 z"/><path id="path2016" fill="#fff" d="M 99.5006,164.976 V 132.329 L 59,108.768 99.5006,165 Z"/><path id="path2018" fill="#fff" d="M 99.5,124.75 139.977,101.165 99.5,83.041 Z" opacity=".2"/><path id="path2020" fill="#fff" d="M 59.0234,101.189 99.524,124.774 V 83.0645 Z" opacity=".6"/></g><g style="fill:none" id="g1607" transform="matrix(0.26458333,0,0,0.26458333,41.266133,36.681945)"><g id="g1588" clip-path="url(#clip0_639_988-3)"><path id="path1578" fill="#2775ca" d="m 161.82,144.3 c 2.87,4.54 4.53,9.92 4.53,15.7 0,16.25 -13.12,29.38 -29.38,29.38 -16.26,0 -29.37,-13.13 -29.37,-29.38 0,-7.08 2.5,-13.44 6.56,-18.54 0.31,-0.42 0.62,-0.83 1.04,-1.15 5.42,-5.94 13.12,-9.69 21.77,-9.69 5.68,0 10.97,1.6 15.46,4.38 3.8,2.35 7.01,5.53 9.39,9.3 z"/><path id="path1580" fill="#000" d="m 174.59,166.75 c 0.4,-2.23 0.62,-4.52 0.62,-6.86 0,-9.01 -3.15,-17.31 -8.41,-23.86 -2.83,-3.53 -6.27,-6.54 -10.16,-8.89 -5.75,-3.47 -12.48,-5.48 -19.66,-5.48 -3.68,0 -7.32,0.55 -10.79,1.59 -6.46,1.94 -12.38,5.58 -17.12,10.59 -0.83,0.83 -1.46,1.67 -1.88,2.19 -3.64,4.6 -6.14,9.74 -7.43,15.21 -0.67,2.84 -1.01,5.76 -1.01,8.75 0,17.23 11.52,31.88 27.25,36.62 -8.29,2.21 -17,3.38 -26,3.38 C 44.58,200 0,155.42 0,100 0,44.58 44.58,0 100,0 c 55.42,0 100,44.58 100,100 0,25.7 -9.59,49.08 -25.41,66.75 z"/><path id="path1582" fill="#23f7dd" fill-rule="evenodd" d="m 158.802,128.546 0.055,-0.106 -1.01,-0.54 c 0.322,0.211 0.64,0.426 0.955,0.646 z m -6.986,-3.871 c -4.566,-1.938 -9.58,-3.015 -14.836,-3.015 -3.68,0 -7.32,0.55 -10.79,1.59 -4.851,1.457 -9.398,3.873 -13.369,7.107 l -10.896,-4.416 c -1.235,-0.504 -2.6148,-0.504 -3.85,0 L 49.9852,145.529 41.1426,128.535 93.6334,100.416 41.1426,72.2971 49.9852,55.3037 98.075,74.7426 c 1.2352,0.5028 2.615,0.5028 3.85,0 l 48.09,-19.4389 8.816,16.9389 -52.492,28.1184 z" clip-rule="evenodd"/><path id="path1584" fill="#fff" d="m 166.35,160 c 0,16.25 -13.12,29.38 -29.38,29.38 -16.26,0 -29.37,-13.13 -29.37,-29.38 0,-7.08 2.5,-13.44 6.56,-18.54 0.31,-0.42 0.62,-0.83 1.04,-1.15 5.42,-5.94 13.12,-9.69 21.77,-9.69 5.68,0 10.97,1.6 15.46,4.38 3.79,2.34 7,5.53 9.38,9.29 2.88,4.55 4.54,9.93 4.54,15.71 z"/><path id="path1586" fill="#000" d="m 126.696,174.6 h 5.256 l 5.004,-16.776 5.004,16.776 h 5.328 l 7.452,-25.2 h -5.472 l -4.86,17.244 -5.184,-17.244 h -4.572 l -5.148,17.244 -4.824,-17.244 h -5.472 z"/></g></g></g></svg>