<svg xmlns="http://www.w3.org/2000/svg" xmlns:xlink="http://www.w3.org/1999/xlink" id="Layer_1" width="200" height="200" x="0" y="0" baseProfile="basic" version="1.1" viewBox="0 0 200 200" xml:space="preserve"><path fill="#212842" fill-rule="evenodd" d="M101,201c-0.7-0.7-1.3-1.3-2-2c-0.1-0.9,0.2-1.4,1.2-1.1	c4.2,2.8,5.9-1.7,8.7-2.9c0.9-0.5,1,0.1,1,0.8c-1.6,1.7-3.3,3.5-4.9,5.2C103.7,201,102.3,201,101,201z" clip-rule="evenodd"/><path fill="#0F293D" fill-rule="evenodd" d="M37,155c-2-3.5-4.1-7.1-6.1-10.6c-1.1-3.1-3.5-5.6-4.1-8.9	c-2.7-6.8-6.9-13.1-8.4-20.4c0.7-1.9,2-1.3,3.2-0.6c2.6,1.6,4.9,3.4,6.3,6.2c4.3,7.8,6.6,16.5,11,24.3c1.9,4.4,4.8,4.9,8.6,2.5	c1.2-0.8,2.7-1.4,4.2-0.9c0.4,0.3,0.7,0.6,0.7,1.1c-4.4,2.6-9.5,4-13.5,7.4C38.2,155.6,37.6,155.6,37,155z" clip-rule="evenodd"/><path fill="#255C86" fill-rule="evenodd" d="M143.2,17.7c4.8,3.8,11.3,5.4,14.6,11.2c0.7,1.5-0.4,1.5-1.4,1.6	c-3.3-0.5-5.4-3.2-8.3-4.4c2.8,1.3,4.9,3.7,8,4.6c4.9,0.6,7.2,4.2,9.2,8.1c0.1,1.5-0.9,2.1-2.2,2.5c-0.8,0.1-1.4-0.2-2-0.6	c-7.5-7.2-17.6-11.3-24-19.8c-1.8-2.4-3.6-0.1-5.4,0.1c-1.6,0.2-3.1-0.2-4-1.7c0.1-3.4,2.5-4.9,5.3-6.1	C137,13.4,140.2,15.3,143.2,17.7z" clip-rule="evenodd"/><path fill="#8E5E5B" fill-rule="evenodd" d="M52.4,147.7c-0.2-0.1-0.3-0.3-0.3-0.6c0-2.9-2.8-4.8-2.8-7.7	c1.3-3.2,2.9-1.6,4.5-0.3c7.8,9.5,14.4,19.9,21.9,29.7c2.3,2.9,4.3,3.2,7.6,2.4c6.6-1.6,12.9-4.2,19.8-4.3c1,2.4-1.1,2.3-2.3,3	c-6.6,1.6-13.3,3-19.8,4.8c-3.9,1-6.8,0.2-9.1-3.1c-4.8-6.8-9.9-13.4-14.7-20.1C55.9,149.7,55,147.7,52.4,147.7z" clip-rule="evenodd"/><path fill="#5C5660" fill-rule="evenodd" d="M111.9,181c-0.3,0-0.7,0-1,0.1c-7.7,2.1-7.7,2.1-7.8-5.9	c0.9-7.3,1.1-7.4,8.3-4.8c0.8,0.3,1.6,0.3,2.4,0.6c3.1,1.3,6.4,1.8,9.5,2.9c1.6,0.6,3.8,0.7,3.9,3.2	C122.4,179.8,117.7,182.4,111.9,181z" clip-rule="evenodd"/><path fill="#3878C0" fill-rule="evenodd" d="M180.8,55.1c0.7,4.3,1.3,8.6,2,12.9c-0.4,1.4,0.5,3-0.8,4.2	c-2,0.1-2.6-1.6-3.5-2.8c-0.2-0.4-0.4-0.8-0.6-1.3c-1.4-3.8-3.5-6.9-7.3-8.7c-2.2-2.3-2.8-5.6-4.3-8.3c-0.4-2.1-2.3-3.9-1.3-6.3	c5.8-1.6,7.8,3.1,10.6,6.4c0.2,0.3,0.4,0.5,0.5,0.8C176.8,54.4,177.1,57.3,180.8,55.1z" clip-rule="evenodd"/><path fill="#493844" fill-rule="evenodd" d="M111.9,181c5.1-1.4,10.2-2.8,15.2-4.2c1.3-1.3,3.1-1.4,4.8-1.9	c1.7-0.2,3.4-0.8,5.2-0.1c1.2,3.2-1.4,4.1-3.4,4.9c-2.8,1.2-5.2,2.7-7.1,5.1c-3.4,2.1-3.5,2.1-4.7,0.1c1-1.4,1.5-2.6-1-1.7	c-4.6,1.6-9.1,3.3-13.6,4.9c-1.3,0.5-2.7,0.9-5,1.7C105.2,185.4,109.9,184.6,111.9,181z" clip-rule="evenodd"/><path fill="#BC45C8" fill-rule="evenodd" d="M190.2,112c-1.9,3.4-2.8,7.2-3.7,11c-0.7,4.8-2.2,9.3-3.5,13.9	c-0.3,0.9-0.8,1.7-1.6,2.4c-2.5,1.1-3.4,3.5-4.6,5.7c-2.4,4.5-4.3,9.3-7.2,13.6c-1,0.8-1.9,2.9-3.3,0.4c-0.4-2.4,1.1-4.3,2-6.3	c5.6-10.6,10.2-21.6,15-32.6c1.2-2.7,2.4-5.5,3.7-8.2c0.4-0.7,1-1.2,1.8-1.3C189.7,110.7,190.3,111,190.2,112z" clip-rule="evenodd"/><path fill="#30C8DA" fill-rule="evenodd" d="M143.2,17.7c-3.7-0.8-6.4-3.7-10.3-4c-4.6-2.2-8.7-5.5-14-6	c-0.3-0.2-0.6-0.3-1-0.5c-0.9-1.3-3.4-1.7-2.1-4.1c6.6,0.2,12.7,2.5,19,4.1c1.3,1,1.7,2.3,1,3.8c0.9,4.4,5.4,3.1,7.9,5	c0.4,0.3,1.5-0.2,1.1,0.8C144.6,17.3,143.8,17.4,143.2,17.7z" clip-rule="evenodd"/><path fill="#EFE2ED" fill-rule="evenodd" d="M169.1,152.8c-0.7,2.1-1.5,4.1-2.2,6.2c0.7,2-0.6,3.9,0,5.9	c-3.1,3.1-7.5,3.9-11.1,6.1c-0.5-0.6-0.5-1.3-0.3-2c1.6-3.8,3.4-7.5,6.5-10.4c0.9-1.6,2.5-2.6,3.2-4.3c1.1-3.6,1.9-7.4,3.3-10.9	c0.4-1.4,0.3-3.1,2.2-3.7c0.8,0.2,1.4,0.7,1.8,1.4C172.8,145.4,170.8,149.1,169.1,152.8z" clip-rule="evenodd"/><path fill="#2A91BA" fill-rule="evenodd" d="M93,13.4c2.3-0.8,4.7-1.6,7-2.4c3.6,0,7.6-1,9.3,3.7	c-1.4,1.8-3.1,0.9-4.7,0.5c-3.8-0.7-3,2.1-3.2,4.2c-0.2,0.7-0.7,1.2-1.4,1.5c-1.5,0.5-3.1,1.1-4.7,0.6c-1.7-2.3-3.6,0.5-5.4-0.2	c-1.1-1.4-2.7-2.1-4-3.1c-0.2-2.2,1.7-2,2.9-2.6C90.1,14.7,92,15,93,13.4z" clip-rule="evenodd"/><path fill="#625566" fill-rule="evenodd" d="M137.2,175.1c-1.7,0.7-3.4,1.1-5.3,0.9c-0.4-1.1,0.2-1.8,0.9-2.5	c3.3-2.3,7.4-2.9,10.7-5.2c1.6-0.9,3.1-2.2,5.2-1.6c1.7,2.1-1,4.1-0.1,6.2c0.1,0.7,0,1.3-0.4,1.9c-2.9,2.7-6.3,4.7-10,6.2	c-0.2-0.2-0.3-0.3-0.5-0.5C137.5,178.6,140.7,176.5,137.2,175.1z" clip-rule="evenodd"/><path fill="#2D7EAE" fill-rule="evenodd" d="M185.9,72.8c2.9,2.1,3.8,4.9,3.9,8.5c0.2,4.6,1.1,9.2,1.6,13.8	c0.2,1.5,1.3,3.4-1.4,4c-1.1,0.7-1.9,0.4-2.6-0.6c-0.2-3.1-1.1-6.2-1.3-9.4c0.8-4.4-1.2-8.3-2.1-12.4c-0.5-1.3-1.9-2.4-1-4	C184,72,185,72.4,185.9,72.8z" clip-rule="evenodd"/><path fill="#9395EB" fill-rule="evenodd" d="M93,13.4c1.2,2.8-1.7,1.6-2.5,2.2c-1.4,1-3.4,1-4.7,2.3	c-1.4,1.8-3.5,2.8-5.3,4.1c-2.1,0.8-4.1,1.9-5.6,3.6c-2.2,0.9-4,2.9-6.7,1.8c-0.9-0.6-1.4-1.4-1.8-2.3c-0.2-0.7-0.3-1.5-0.1-2.2	c0.7-1.7,2.2-2.7,3.7-3.5c3-0.5,6.3,1.1,8.9-1.6C83.6,16.3,88.3,14.8,93,13.4z" clip-rule="evenodd"/><path fill="#44BEAF" fill-rule="evenodd" d="M77.1,14.2c-1,1-2,2-3,3c-1.4-1.2-1.7-4.5-4.7-2.4	c-5.1,2.6-9.2,6.9-14.7,8.9c-0.5,0-0.9,0-1.4-0.2c-0.2-0.2-0.4-0.3-0.5-0.5c2.5-2.6,2.8-7.9,8.7-6.5c1.2,0.3,3.1-1.6,4.5-2.8	c4.1-3.5,9-5.3,14.1-6.8C81.1,10.2,77.6,11.6,77.1,14.2z" clip-rule="evenodd"/><path fill="#3FD197" fill-rule="evenodd" d="M119,7.7c6.1-1.3,10.2,1.9,14,6c-1.9,1.4-3.8,2.9-4.8,5.1	c-2.2,1.2-3.6,0.9-4-1.8c2.7-0.3,1.9-1.5,0.8-2.8C122.9,12,120.9,9.9,119,7.7z" clip-rule="evenodd"/><path fill="#1E517A" fill-rule="evenodd" d="M37,155c0.6,0,1.3,0.1,1.9,0.1c1.5,7.1,6.9,10.5,12.6,13.7	c1,0.5,1.8,1.4,2.6,2.1c0.4,1.7-0.5,2.3-2.1,2.2c-5.1-1.9-9.3-5-13.1-8.9c-0.1-0.7,0.6-0.9,0.9-1.4C39.9,159.8,37.6,157.7,37,155z" clip-rule="evenodd"/><path fill="#1B5276" fill-rule="evenodd" d="M27.8,134.9c0.6,3.3,3.6,5.8,3.1,9.4c-5.7-5.1-11.5-10.3-17.2-15.4	c1.8-1.9,2.9,0.7,4.3,0.1c0.7,0.6,1.6,1.7,2.5,1.5C24.3,129.7,25.6,133,27.8,134.9z" clip-rule="evenodd"/><path fill="#2C7BA9" fill-rule="evenodd" d="M27.8,134.9c-2.9-2.5-7.7-2-9.9-5.8c1.6,0.1,3.1,0.3,5.2,0.4	c-2.4-6.7-7.1-12.3-7.5-19.4c0.2-0.7,0.7-1.2,1.5-1.4c1.7,0.1,2.4,1.1,2.5,2.7c0.1,1.3-1.4,2.2-0.7,3.6	C21.2,121.9,24.7,128.3,27.8,134.9z" clip-rule="evenodd"/><path fill="#1E5278" fill-rule="evenodd" d="M24.1,58c-1.7,4.5-6.7,3.4-9.5,6.2c-1.1-2.6,0.7-4.3,0.5-6.2	c0.3-1.5,1.1-2.6,2.3-3.5c2.2-1.9,4.2-2.9,5.2,1c0.3,1.2,1.4-0.2,1.7,0.7C24.6,56.8,24.6,57.4,24.1,58z" clip-rule="evenodd"/><path fill="#36BBD2" fill-rule="evenodd" d="M16,96c-2.6-4.1-0.9-8.1,0-12.2c0.4-1.9,0.7-3.8,1.1-5.8	c1.7-1.7,2.9-3.8,4.8-5.4c0.7-0.5,1.3-1.4,2.4-0.7c1,2.4-0.9,4-1.8,5.7c-1,1.8-2.5,3.5-1.7,5.8c0.1,0.4,0.1,0.9,0.1,1.4	c0,0.5-0.2,0.9-0.3,1.3c-1.3,1.8-2.5,3.6-1.9,6c-0.1,1.4-0.4,2.8-1.3,3.9C16.7,96.5,16.3,96.4,16,96z" clip-rule="evenodd"/><path fill="#2061A4" fill-rule="evenodd" d="M11.1,103.6c-2.9,1.1-5.2-0.8-7.8-0.9c-1.3,0-1.5-1.1-0.9-2.1	c1.5-2.3,2.5-6.1,4.9-6.3c2.1-0.2,1.8,3.9,2.8,6.1C10.6,101.3,10.8,102.4,11.1,103.6z" clip-rule="evenodd"/><path fill="#5B35BF" fill-rule="evenodd" d="M194.1,123.1c1,2.8-0.1,5.1-1.7,7.4c-2.4,3.5-4.3,7.4-5.6,11.4	c-0.8,0.9-1.8,0.9-2.8,0.4c-1.4-3.2,0.8-4.7,2.8-6.4c1.8-4.3,3.5-8.5,5.3-12.8C192.8,122.4,193.4,122.4,194.1,123.1z" clip-rule="evenodd"/><path fill="#236285" fill-rule="evenodd" d="M31,26.4c1.9,0.5,3.2,3.3,2.7,3.7c-2.3,1.8-4,4.6-7.2,4.9	c-1,0.1-2.4-0.6-3-1.4c-1.1-1.3,0.7-1.9,1.3-2.7C26.2,28.8,28.4,27.7,31,26.4z" clip-rule="evenodd"/><path fill="#66D7E0" fill-rule="evenodd" d="M29.8,50.7c2.2-4.9,5.8-8.7,9.2-12.7c0.6,0.4,1.2,0.8,1.8,1.1	c1.1,0.3,2.3-0.2,3.5,0.1c0.4,0.2,0.8,0.4,1,0.8c0.1,1.6-1,2.5-2.1,3.4c-3.4,1.5-6.7,3.2-9,6.3c-0.8,1-1.9,1.8-3.3,1.7	C30.4,51.4,30,51.2,29.8,50.7z" clip-rule="evenodd"/><path fill="#8CE2ED" fill-rule="evenodd" d="M39.9,40c-0.3-0.6-0.6-1.3-0.9-1.9c3.5-2.8,5.6-6.8,8.3-10.3	c1.5-2,3.2-3.7,5.4-4.9c0.2,0,0.4,0,0.5,0c0.7,1.2,0.3,2.3-0.6,3.1c-1.3,1.2,0,1.4,0.6,2C50,33.5,44.7,36.5,39.9,40z" clip-rule="evenodd"/><path fill="#E5E0DF" fill-rule="evenodd" d="M113.7,172c-1.1-0.1-2.4-0.1-3.4-0.5c-5.8-2.3-5.8-2.4-7.2,3.6	c-0.8-1.7,1-4.6-2.3-5.3c0.9-0.8,2.8-1,1.9-2.9c-0.1-0.5,0-0.9,0.3-1.2c1.1-0.3,2.2,0.1,3.3,0.4c0.9,0.3,1.7,0.6,2.5,0.9	c2.2,0.8,4.5,1.3,6.7,1.8c2.4,0.8,5.1,0.9,6.7,3.3c0.1,0.6-0.2,1-0.7,1.3C118.8,173.8,116.3,172.5,113.7,172z" clip-rule="evenodd"/><path fill="#CCE2F1" fill-rule="evenodd" d="M109.3,15c-2.2-3.5-6.2-2.7-9.3-4c1.7-2.5,4-1.8,6.1-0.9	c5,2.2,9.9,4.6,14.9,6.9c0.3,0.5,0.2,0.9-0.2,1.3c-2.8,1-5.2-1.2-8-1.1C111.4,17,109.7,16.9,109.3,15z" clip-rule="evenodd"/><path fill="#5ED1DC" fill-rule="evenodd" d="M24.1,58c0-0.6-0.1-1.3-0.1-1.9c-0.5-1.3-1.3-2.6,0-3.9	c2.3,0.8,4.2,0.1,5.8-1.5c0.2,0.2,0.3,0.4,0.5,0.5c0.8,1.3,1.8,2,3.3,2.4c1.8,0.5,2.6,1.9,1.1,3.7c-2.8,1-5.6,2.1-8.7,1.5	C25.4,58.6,24.8,58.3,24.1,58z" clip-rule="evenodd"/><path fill="#653194" fill-rule="evenodd" d="M122,185c1.7,1.8,2.8,0.1,4-0.7c2.1-1.7,4.4-2.8,7.1-3	c1.7,0.4,3.9,0.1,4,2.8c-5.1-0.6-9.4,2-14.1,3.2c-3.4,0.9-6.4,2.4-8.7,5.1c-0.7-0.2-0.9-0.8-1.1-1.4	C114.6,186.9,119.4,187.6,122,185z" clip-rule="evenodd"/><path fill="#2A5C7E" fill-rule="evenodd" d="M194.1,123.1c-0.7,0-1.3,0-2,0c1.9-7.7,3.9-15.4,5.8-23.1	c0.4-0.3,0.7-0.3,1.1,0C199.2,108.1,195.6,115.4,194.1,123.1z" clip-rule="evenodd"/><path fill="#223642" fill-rule="evenodd" d="M40.3,175.1c2.5,3,5.4,5.7,6.4,9.8c-3-2.7-8.5-1.9-9.5-7.3	C37.9,176.6,38.7,175.4,40.3,175.1z" clip-rule="evenodd"/><path fill="#3196BC" fill-rule="evenodd" d="M199,100.1c-0.4,0-0.7,0-1.1,0c-2-4.5-1.1-8.8,0.6-13.6	C201,91.2,202.2,95.5,199,100.1z" clip-rule="evenodd"/><path fill="#67514D" fill-rule="evenodd" d="M154.9,180.9c-3.6,1.4-7.3,2.9-10.9,4.3c-0.9,0.3-1.9,1.3-2.5-0.1	c-0.4-1,0.3-1.8,1.4-2.2c3-1.2,6-2.6,9.1-3.9C153.7,178.5,155.7,177.5,154.9,180.9z" clip-rule="evenodd"/><path fill="#E380ED" fill-rule="evenodd" d="M166.9,164.9c-1.6-2-0.5-3.9,0-5.9c1.3,1.1,1.2-1.1,2.1-0.9	c2.8-2.3,4.9-5.2,7.4-7.8c1.1-1.2,1.9-2.7,3.8-2.9c0.7,0,1.4,0.2,1.9,0.7c-4.1,4.3-8.2,8.6-12.3,13	C168.7,162.1,167.1,163,166.9,164.9z" clip-rule="evenodd"/><path fill="#86A8BA" fill-rule="evenodd" d="M24,52.2c-0.5,1.3,1.1,2.6,0,3.9c-0.8-0.2-1.6,1.5-1.7,0.8	c-1.1-6.9-3.6-1.4-5.5-0.7c-0.7,0.3-1.1,1.1-1.6,1.7c-0.7-5.4,5-6,6.7-9.9C23.6,49.4,23.7,50.9,24,52.2z" clip-rule="evenodd"/><path fill="#73E1E9" fill-rule="evenodd" d="M16,96c0.4,0,0.8,0,1.2,0c2,0.1,2,1.9,2.5,3.2	c0.2,2-0.4,3.8-0.7,5.8c-0.4,1.4-0.7,2.9-1.9,3.9c-0.5,0.4-1,0.8-1.5,1.3c-2-1.1-3.7-2.2-1.5-4.8C16.3,102.6,16.6,99.4,16,96z" clip-rule="evenodd"/><path fill="#6F49CA" fill-rule="evenodd" d="M39.9,162.8c-0.3,0.5-0.6,0.9-0.9,1.4c-6.2-6.1-12-12.6-17.4-19.4	c0-0.4,0.1-0.8,0.5-1C28,150.1,33.9,156.5,39.9,162.8z" clip-rule="evenodd"/><path fill="#6F84D7" fill-rule="evenodd" d="M181,54c-0.3-1.1-0.6-2.1-1.1-3.9c3.9,1.7,6.4,4.4,9.2,6.7	c0.3,1.6,1.2,3.4-1.2,4.2C184.9,59.4,183.7,55.9,181,54L181,54z" clip-rule="evenodd"/><path fill="#88E4F0" fill-rule="evenodd" d="M156.1,29.9c0.7,0,1.5,0,1.7-1c0.5-0.7,1.4-0.6,1.6-0.2	c2.1,3.7,6.9,5.4,7.4,10.3c-0.7,0.5-1.3,0.6-1.9-0.1c-2.7-3-4.7-6.9-9.2-7.8C155.5,30.7,155.6,30.2,156.1,29.9z" clip-rule="evenodd"/><path fill="#33C5D7" fill-rule="evenodd" d="M155,10.5c0.3-1.5,1.1-3.5,2.6-2c2.3,2.5,5.6,4.6,5.8,8.6	C157.7,17,155.1,14.9,155,10.5z" clip-rule="evenodd"/><path fill="#5E6ABE" fill-rule="evenodd" d="M187.9,61.1c0.4-1.4,0.8-2.8,1.2-4.2c0.9,0.7,1.9,1.3,2.7,2	c2,1.8,3.2,4.9,1.6,6.5c-1.7,1.6-2.6-2-4.1-2.9C188.7,62.2,188.4,61.6,187.9,61.1z" clip-rule="evenodd"/><path fill="#38C8DA" fill-rule="evenodd" d="M174.9,52.1c-2.6-3.2-4.7-7.1-9.7-7c-0.9-1.1,0.2-1.4,0.8-1.9	c1-0.4,1.9-0.9,2.9-1.1c3.2,1.9,5.3,4.8,7,8C176.4,51.2,175.8,51.7,174.9,52.1z" clip-rule="evenodd"/><path fill="#239681" fill-rule="evenodd" d="M155,10.5c1.1,4.3,5.4,4.6,8.4,6.6c-1.2,1.3-2.6,4.1-4.3,2.3	C156.9,17.2,151.9,15.4,155,10.5z" clip-rule="evenodd"/><path fill="#53826D" fill-rule="evenodd" d="M154.9,180.9c-0.1-2.1-1.6-1.8-3-1.9c2.4-1.8,5.2-3,8-4	c2.4-0.2,2.3,1.4,2,3C160,179.8,157.4,180.2,154.9,180.9z" clip-rule="evenodd"/><path fill="#D3DCE4" fill-rule="evenodd" d="M186.8,135.9c-0.9,2.1-1.9,4.2-2.8,6.3c0,0.9-0.4,1.1-1.2,0.9	c-1.1-1.1-2.3-2.2-1.9-4c0.4-0.6,0.7-1.2,1.1-1.8c1.5-1.7,0.1-5.4,3.9-5.4C186.4,133.1,185.7,134.7,186.8,135.9z" clip-rule="evenodd"/><path fill="#AADCED" fill-rule="evenodd" d="M124.1,17c1,1.4,2.5,1.7,4,1.8c1.3,0.4,2.6,0.8,3.9,1.2	c3.2,0.9,6,2.3,5.8,6.3c-3.1,1.6-4.8-0.5-6.5-2.4c-1.4-1.8-3.6-2.1-5.5-3c-1.5-0.7-3.7-1.1-2.9-3.7C123.2,17.2,123.7,17.1,124.1,17z" clip-rule="evenodd"/><path fill="#85D4E6" fill-rule="evenodd" d="M174.9,52.1c0.3-0.7,0.7-1.4,1-2c1.7,1.3,3.4,2.6,5.1,4	c0,0,0-0.1,0-0.1c-0.1,0.4-0.1,0.7-0.2,1.1c-1.4,1.1-4.4,1.3-1.1,4.9C174.9,58.1,176.7,54.2,174.9,52.1z" clip-rule="evenodd"/><path fill="#3A3567" fill-rule="evenodd" d="M100.2,197.9c-0.4,0.4-0.8,0.7-1.2,1.1c-3.7-3-7.4-6-11-8.9	c0.9-2.7,1.9-1.7,2.9-0.1C94,192.6,97.1,195.2,100.2,197.9z" clip-rule="evenodd"/><path fill="#66D1C3" fill-rule="evenodd" d="M77.1,14.2c-0.7-3.1,2.2-4.7,2.9-7.2c1.2-1.3,2.8-1.6,3.8-0.3	c0.9,1.1-0.6,2.4-1.4,3.3C80.7,11.4,78.9,12.8,77.1,14.2z" clip-rule="evenodd"/><path fill="#28A39F" fill-rule="evenodd" d="M68.9,13.8c4.9-2.5,4.9-2.5,5.2,3.4c-0.2,0.6-0.5,1.1-0.7,1.7	c-0.9,1-2.1,0.6-3.2,0.5C68.4,17.8,68.7,15.8,68.9,13.8z" clip-rule="evenodd"/><path fill="#CDCE89" fill-rule="evenodd" d="M148.3,174.7c-0.1-0.6-0.1-1.2-0.2-1.7c0.1-3,2.9-3.2,4.6-4.5	c0.7-0.3,1.3-0.4,2.1-0.3c0.5,0.1,0.8,0.4,1.1,0.8c0,0.6,0,1.3,0,1.9C153.5,172.7,151.7,175.3,148.3,174.7z" clip-rule="evenodd"/><path fill="#5D6D9B" fill-rule="evenodd" d="M185.9,131.8c-2.5,1-2.1,4-3.9,5.4c0.8-5,2.3-9.7,4.5-14.3	C187.4,126,186,128.9,185.9,131.8z" clip-rule="evenodd"/><path fill="#99D5E4" fill-rule="evenodd" d="M23.1,68.9c-0.2-1.4-0.9-2.9,0.9-3.9c0.6-0.4,1.2-0.2,1.8-0.1	c1.9,0.1,2.7-2.2,4.6-2.2c2.2,1.2,0.9,2.8,0.4,4.3c-1.1,1.5-2.2,2.9-4.2,3.4C25.3,70.2,24.2,69.5,23.1,68.9z" clip-rule="evenodd"/><path fill="#E3BFEF" fill-rule="evenodd" d="M183,143c0.3-0.3,0.7-0.6,1-0.8c0.9-0.1,1.9-0.2,2.8-0.2	c1.8,1.2,0.7,2.3-0.3,3.1c-1.4,1.1-2.9,2-4.4,3c-0.7,0-1.4,0-2.1,0C179.6,145.5,181.4,144.3,183,143z" clip-rule="evenodd"/><path fill="#DFD1EF" fill-rule="evenodd" d="M190.2,112c-0.4-0.3-0.7-0.7-1.1-1c-0.8-0.7-1.1-1.6-1.1-2.6	c0-1.4,0.4-2.8,1.2-3.9c0.8-1.2,1.9-0.7,2.9-0.5C194.5,107.4,191.5,109.5,190.2,112z" clip-rule="evenodd"/><path fill="#5D80DC" fill-rule="evenodd" d="M122.8,17.3c0.6,2.5,2.9,2.1,4.6,2.9c1.7,0.8,4,0.6,4.8,2.9	c-3.4,2.2-6.1-0.3-9-1.2c-1.3-0.9-2.8-1.8-2.2-3.9c0-0.3,0-0.6,0-0.9C121.6,17.1,122.2,17.2,122.8,17.3z" clip-rule="evenodd"/><path fill="#38BBD3" fill-rule="evenodd" d="M25.3,66.1c-0.4-0.4-0.8-0.8-1.3-1.1c0.3-1.5,0.8-2.9,1.9-4	c0.7-2.5,2.5-2.7,4.7-2.4C31.5,63,27.5,63.9,25.3,66.1z" clip-rule="evenodd"/><path fill="#225679" fill-rule="evenodd" d="M190.2,46.4c-2.7-0.3-2.1-2.4-2.7-3.8c-0.4-1,0.1-1.7,1-1.6	c1.7,0.1,3.3,1.1,3.6,2.7C192.5,45.2,190.9,45.7,190.2,46.4z" clip-rule="evenodd"/><path fill="#6847AD" fill-rule="evenodd" d="M52.1,173.1c0.7-0.7,1.4-1.5,2.1-2.2c3.4,0,1.8,2.4,1.7,3.8	c-0.1,1.2-1.3,2.2-2.4,2C51.3,176.3,52.5,174.3,52.1,173.1z" clip-rule="evenodd"/><path fill="#C8EAEF" fill-rule="evenodd" d="M22.1,73.2c-1.6,1.7-1.5,5.1-5,4.9C16,73.9,19.5,73.3,22,72	c0.3,0.2,0.4,0.5,0.3,0.8C22.3,73,22.2,73.2,22.1,73.2z" clip-rule="evenodd"/><path fill="#5982D7" fill-rule="evenodd" d="M169,42.1c-0.1,1.4-0.7,2-2.1,1.7c-1.6-0.3-3.2-0.5-3.8-2.3	c0-0.2-0.1-0.4-0.1-0.7c0.7-0.6,1.4-1.2,2-1.8c0.6,0,1.3,0.1,1.9,0.1C167.6,40,168.3,41,169,42.1z" clip-rule="evenodd"/><path fill="#50479B" fill-rule="evenodd" d="M90.8,190c-1-0.3-1.9-1.6-2.9,0.1c-0.4-0.3-0.7-0.5-1.1-0.8	c-0.7-1.5,0.7-2.3,1.1-3.4c1.8-1.5,3.1,0,4.1,1C93.4,188.3,90.7,188.7,90.8,190z" clip-rule="evenodd"/><path fill="#2E5E81" fill-rule="evenodd" d="M88,185.8c-0.4,1.1-0.7,2.3-1.1,3.4c-0.8,0-1.6,0-2.4,0.2	c-1.6,0.4-2.6,0-2.7-1.7c-0.1-1.9,1.2-2.2,2.5-1.6C85.7,186.7,86.8,186.5,88,185.8z" clip-rule="evenodd"/><path fill="#6C6367" fill-rule="evenodd" d="M140.8,189.2c1.7-0.1,1.5,1.9,2.6,2.4c-1,0.8-1.9,2-3,2.3	c-1.9,0.6-1.9-1.5-2.1-2.5C137.8,189.4,139.9,189.9,140.8,189.2z" clip-rule="evenodd"/><path fill="#50AF8D" fill-rule="evenodd" d="M162,178c-0.7-1-1.3-2-2-3c1.3-0.7,2.7-1.5,4-2.2	c1.7,0,1.6,1,1.2,2.2C164.1,176,163,177,162,178z" clip-rule="evenodd"/><path fill="#2B8BB4" fill-rule="evenodd" d="M31,59c-2-0.3-3.8,0.3-5,2c0-0.7,0-1.4,0.1-2c2.8-1.6,5.9-2,9.1-2	c0,0.3,0.1,0.5,0.1,0.8c-0.3,1.1-1.1,1.7-2.2,2C32.3,59.8,31.5,59.6,31,59z" clip-rule="evenodd"/><path fill="#6DAFDE" fill-rule="evenodd" d="M192.1,104c-0.6,1.3-1.4,0.2-2.1,0.1c-3.2-0.7-3.6-3-3.4-5.7	c0.3-0.5,0.7-0.7,1.2-0.4c0.7,0.4,1.5,0.8,2.2,1.1C190.1,101,191.3,102.4,192.1,104z" clip-rule="evenodd"/><path fill="#C6C7EA" fill-rule="evenodd" d="M185.9,72.8c-0.9,0-1.9-0.1-2.8-0.1c-0.5,0-0.7-0.3-0.7-0.7	c-0.4-1.1-0.8-2.2-1.1-3.3c-0.4-2.1,0.7-1.1,1.5-0.7C184.6,69,184.9,71.1,185.9,72.8z" clip-rule="evenodd"/><path fill="#93EBDA" fill-rule="evenodd" d="M165.1,175c0-0.9-0.1-1.8-1.2-2.2c1.4-0.9,2.8-1.9,5.2-3.4	C168.3,172.6,166.6,173.8,165.1,175z" clip-rule="evenodd"/><path fill="#CFEAEF" fill-rule="evenodd" d="M22.1,73.2c0-0.4-0.1-0.8-0.1-1.2c0.4-1,0.7-2.1,1.1-3.1	c1.5-0.7,2.5-0.3,2.9,1.3c0,1.3-0.6,1.9-1.9,1.8C23.5,72.4,22.8,72.8,22.1,73.2z" clip-rule="evenodd"/><path fill="#A763C1" fill-rule="evenodd" d="M137.1,184.1c-1-1.4-2.8-1.2-4.1-2.1c0.9-4.2,3-2.7,5.1-1	c0,0,0.2,0,0.2,0C138,182,138.4,183.4,137.1,184.1z" clip-rule="evenodd"/><path fill="#9CEDEB" fill-rule="evenodd" d="M135.9,10.9c-0.3-1.3-0.7-2.6-1-3.8c1.3-0.1,3-0.4,3.4,1.1	C138.7,9.7,137.1,10.4,135.9,10.9z" clip-rule="evenodd"/><path fill="#407CBC" fill-rule="evenodd" d="M70.1,19c1.1,0,2.2-0.1,3.3-0.1c1.8-0.4,3.7-0.7,5.5-1.1	c-2.3,3.3-5.8,2-8.8,2.3C69.8,19.7,69.8,19.3,70.1,19z" clip-rule="evenodd"/><path fill="#34C7DA" fill-rule="evenodd" d="M40.3,175.1c-0.1,2.1-1.9,2-3.2,2.6c-0.1-1.6-0.4-3.6,1.3-4.4	C39.2,172.9,39.9,174.2,40.3,175.1z" clip-rule="evenodd"/><path fill="#5996AD" fill-rule="evenodd" d="M115.9,3c-0.1,1.8,1.7,2.6,2.1,4.1c-3.4-1.8-3.4-1.8-5.5-5	C114,1.1,114.6,3.5,115.9,3z" clip-rule="evenodd"/><path fill="#67CFE3" fill-rule="evenodd" d="M22.1,143.8c-0.2,0.3-0.3,0.7-0.5,1c-1.4,0-2.6-0.4-2.7-2.1	c0-0.5,0.6-1.3,1-1.4C21.7,141.1,22,142.4,22.1,143.8z" clip-rule="evenodd"/><path fill="#3C336A" fill-rule="evenodd" d="M113.2,191c0.4,0.5,0.7,0.9,1.1,1.4c-1.1,1.6-2.5,2.8-4.3,3.4	c-0.3-0.3-0.7-0.5-1-0.8C110.3,193.6,111.7,192.3,113.2,191z" clip-rule="evenodd"/><path fill="#0C1B2C" fill-rule="evenodd" d="M49.9,140.1c1.1,1.7,2.2,3.5,3.3,5.2c0.8,1.3-0.1,1.6-1.1,1.8	c-1.6-0.2-2.9,0.6-4.1,1.4c-4.3,2.7-7.9,3.3-10-2.5c-2.6-7.6-6.4-14.7-8.5-22.5c1.8-2,2.9,0,4.1,0.8c4.2,2.9,7.7,6.5,11.6,9.7	c1,1.1,1.8,2.4,3,3.4C49.1,138.1,49.3,139.2,49.9,140.1z" clip-rule="evenodd"/><path fill="#133061" fill-rule="evenodd" d="M30.1,123.2C32.3,131,36.5,138,38,146c-4.6-8-7.3-16.7-11-25	c0.3-0.3,0.7-0.5,1.1-0.6c0.4,0,0.8,0.2,1.2,0.4C29.9,121.5,30.1,122.3,30.1,123.2z" clip-rule="evenodd"/><path fill="#1D6A97" fill-rule="evenodd" d="M27.9,121l-0.5,0c0,0-0.5,0-0.5,0c-2.3-2.5-4.2-5.6-8.1-6	c-1.2-1.1-1.2-2.1,0.3-3c1.4-0.5,2.2,1,3.5,1.1c0.4-1.9-2-3.5-0.4-5.4c0.5-0.1,1-0.1,1.5,0C26.9,111.6,30.3,115.4,27.9,121z" clip-rule="evenodd"/><path fill="#A3BCF1" fill-rule="evenodd" d="M138,26.1c-2-2-4-4-5.9-6c2.3-2.4,4-2.8,6.4,0.5	c5.7,7.8,14.9,11.6,21.8,18c0.6,0.5,1.2,1.1,1.7,1.6c-1.7,1.7-1.4,4.4-2.9,6.2c-0.9,0.6-1.8,0.6-2.7,0.3c-1.6-1.7-3.7-1-5.5-1.2	c-3.6-2.8-4.6-7.2-7.2-10.7c-1.7-2.3-2.8-4.9-5-6.8C138.1,27.4,137.7,26.9,138,26.1z" clip-rule="evenodd"/><path fill="#F3E9F2" fill-rule="evenodd" d="M158.8,45.9c0.6-2.2-0.9-5.5,3.1-5.8c0.3,0.2,0.6,0.4,1,0.6	c0,0,0,0.4,0,0.4c0.5,1,0.4,2,0.2,3c-1.3,3.6-0.6,7.9-3.4,11.1C155.9,52.3,155.7,50.1,158.8,45.9z" clip-rule="evenodd"/><path fill="#2BB0CC" fill-rule="evenodd" d="M156.1,29.9c-0.1,0.4-0.2,0.9-0.3,1.3c-4-1.7-7.7-3.7-10.2-7.7	C149.1,25.6,152.6,27.8,156.1,29.9z" clip-rule="evenodd"/><path fill="#142129" fill-rule="evenodd" d="M103.1,165.9c-0.1,0.4-0.2,0.7-0.3,1.1c-7.3,3.2-15.2,4.2-22.8,6.3	c-2.1,0.6-2.9-0.7-3.9-2.1c-7.6-10.4-15.3-20.8-23-31.1c-1.5-1.5,1.2-3.8-1-5.2c-2.8-3.3-4.1-7.3-6.4-10.9c-0.2-0.4-0.4-0.8-0.6-1.2	c-1.7-3.5-3.2-7.1-5.5-10.2c-0.6-0.8-1.2-1.5-1.8-2.2c-1.6-2-2.6-4.3-3.7-6.5c-2-3.9-2.7-7.5,0.3-11.6c3.1-4.3,3.7-9.9,6.5-14.5	c2.1-2.2,3.1-5.1,4.5-7.8c0.8-1.5,1.4-3.1,2.4-4.4c2.1-2.9,3.1-6.1,2.4-9.6c4.2-1.6,5.1-5.5,6.3-9.1c1.1-3.4,3.4-6.3,4.7-9.7	c0.6-1.4,1.6-2.5,3.2-2.7c2,0.1,2.7,1.4,2.7,3.2c-2.4,6.1-5.7,11.8-9,17.5c-2.8,2.3,0.7,4.5,0.2,6.7c0.1,2.3-0.3,4.4-1.2,6.5	c-2.3,9-5.6,17.7-8.3,26.7c-0.1,0.9-0.3,1.9-0.3,2.8c0.6,6.6,4.3,12.4,4.1,17.9c-0.1-0.6-0.4-2.3,2-2.8c2.8,2.2,2.8,5.2,2.3,8.3	c-0.1,0.9-1.6,1.3-1.3,2.3c0.2,0.7,1.1,0.2,1.6,0.1c3.8,0.8,2.3,4.9,4.2,6.9c0.2,0.4,0.3,0.8,0.5,1.3c0.1,0.4,0.2,0.9,0.3,1.3	c0.6,2.6,2.9,3.3,5,4.1c0.9,0.3,1.6,0.8,2.3,1.4c3.1,3,7,5,10.8,7c7.4,5.3,15.5,9.4,23,14.4c0.3,0.4,0.5,0.9,0.6,1.4	C104.2,163,104.4,164.6,103.1,165.9z" clip-rule="evenodd"/><path fill="#5B5661" fill-rule="evenodd" d="M52.9,134.2c4.4,1.9-0.8,3.9,0.1,5.8c-1.1-0.2-2.2-3.7-3.1,0.1	c-0.6-0.7-1.3-1.4-1.9-2.1c-0.5-1.8,1.2-1.9,2.1-2.7C51,134.8,51.9,134.5,52.9,134.2z" clip-rule="evenodd"/><path fill="#DB8879" fill-rule="evenodd" d="M113.7,172c2.9-0.6,5.5,1.6,8.4,0.9c2.1-1.7,4.4-0.4,6.7-0.3	c1,0.1,2,0.2,3,0.5c0.5,0.2,0.9,0.5,1.2,1c-0.3,0.6-0.7,1.2-1,1.9c-1.5,1.1-3.1,1.1-4.8,0.9C122.7,175.2,118.2,173.6,113.7,172z" clip-rule="evenodd"/><path fill="#6D39B1" fill-rule="evenodd" d="M185,76c1,4.4,3.9,8.5,2,13.3c-0.5,0.1-0.9,0-1.3-0.2	c-1.3-3-4.3-4.8-5.3-7.9c-0.3-3.3-2.3-5.8-3.5-8.7c-0.7-1.8-2.3-3.4-1.1-5.5c1.4-0.6,2.3,0.3,3.1,1.3c0,0.3,0,0.6,0.1,0.9	c2.4,3.3,4,7,5.4,10.9c0.4,0.5,0.7-0.4,0.2,0c-0.1,0.1-0.3,0-0.3-0.4C184,78.3,182.2,76.7,185,76z" clip-rule="evenodd"/><path fill="#87CAED" fill-rule="evenodd" d="M179,68.2c-1.2,0-2.1-0.7-2.9-1.5c-1.5,0.1-2.5-0.7-3.5-1.6	c-0.8-1.1-1.3-2.3-1.7-3.6c-0.2-0.9-0.5-1.7,0.2-2.6C176,60,177.7,63.9,179,68.2z" clip-rule="evenodd"/><path fill="#533AA3" fill-rule="evenodd" d="M185,76c-2.1,1.2,1,3.1-1,4.6c-2.1-3.7-3.7-7.5-5-11.5	c1.1,0.9,2.2,1.9,3.3,2.8c0.2,0.2,0.5,0.5,0.7,0.7C183.7,73.7,184.4,74.9,185,76z" clip-rule="evenodd"/><path fill="#BBA7E2" fill-rule="evenodd" d="M162.1,43c0.3-0.6,0.5-1.3,0.8-1.9c1.3,0.9,2.6,1.7,4,2.6	c-0.7,0.3-1.6,0.3-1.6,1.4c0.7,1.9,1.3,3.8,2,5.7c-0.2,0.1-0.4,0.3-0.6,0.4C163.2,49.5,163.1,46.1,162.1,43z" clip-rule="evenodd"/><path fill="#BBA7E2" fill-rule="evenodd" d="M171,58.9c0.3,0.7,0.6,1.4,0.8,2.1c-0.3,0.7-0.7,1.4-1.7,1.1	c-2.2-3.4-4.6-6.6-3.3-11c0,0,0.4-0.3,0.4-0.3C168.5,53.5,169.8,56.2,171,58.9z" clip-rule="evenodd"/><path fill="#F3F2F4" fill-rule="evenodd" d="M138.1,180.9c-1.8-0.2-3.9-1.6-5.1,1c-2.3,0.8-4.7,1.5-7,2.3	c1.2-3.1,3.7-4.5,6.6-5.4c2-0.6,4.4-1,4.6-3.8c1.1-0.2,2.2-0.3,3.5-0.5C140.3,177,140,179.2,138.1,180.9z" clip-rule="evenodd"/><path fill="#62536C" fill-rule="evenodd" d="M169.1,152.8c0.9-3.9,1.9-7.9,2.8-11.8c-0.8-5.8,2.4-10.8,3-16.3	c0.4-1.7,2.5-2.5,2.6-4.5c0.7-1.2,1.9-1.8,2.8-2.7c0.8-0.7,1.6-1.5,2.3-2.3c1.8-1.1,2.4-4.1,5.4-3c-5.8,13-11.5,26-17.3,39	C170.5,151.8,169.7,152.2,169.1,152.8z" clip-rule="evenodd"/><path fill="#FDFAFD" fill-rule="evenodd" d="M183,143c0,2.3-2.2,3.2-3,4.9c-3.8,3.2-6,8.1-11,10.1	c2.9-5.9,5.8-11.7,8.7-17.6c0.7-1.5,1.4-2.6,3.2-1.4C181.5,140.4,183.1,141.3,183,143z" clip-rule="evenodd"/><path fill="#87C6E7" fill-rule="evenodd" d="M188.1,112.1c-2.1,0.7-3.1,2.8-4.9,3.9c-0.5-3.9,1.3-6.5,5.7-8.2	c0.1,1,0.1,2.1,0.2,3.1C188.7,111.4,188.4,111.8,188.1,112.1z" clip-rule="evenodd"/><path fill="#59545E" fill-rule="evenodd" d="M170.9,139.8c-1.3,1.1-0.5,2.9-1.3,4.2c-2-1-3.6-1-5.1,1	c-1.3,1.6-3.1,2.9-5,3.9c-3.2,1.2-5.7,3.7-8.3,5.8c-2.5,1-3.6,4.8-7.3,3.5c-0.6-3.3,1.8-5.4,3.2-7.8c1.1-1.8,2.3-3.5,3-5.5	c0.5-3.3,3.1-4.8,5.4-6.7c1.5-0.8,3.3-1.2,4.1-3c1.6-0.8,3.1-1.6,4.2-3.1c1.7-1.7,3.3-3.6,5.3-5c1.4-0.9,2.9-2.4,4.6-0.3	C173.9,131.3,172.6,135.6,170.9,139.8z" clip-rule="evenodd"/><path fill="#CA6A3F" fill-rule="evenodd" d="M166,155.2c0.1,2.1-2.2,2.2-3,3.5c-1.6,1.7-3.4,3-5.7,3.7	c-2.7-1.1-5.3,0.8-8,0.4c-1.4-0.4-2.1-1.3-1.7-2.8c5.4-4,11.1-7.3,18.2-5.5C165.9,154.7,165.9,155,166,155.2z" clip-rule="evenodd"/><path fill="#9A514F" fill-rule="evenodd" d="M158.9,148c2.1-1.5,4.2-3,5.8-5.1c2.2-2.9,3.9-2.3,4.9,1.1	c-1.2,3.7-2.4,7.5-3.5,11.2c0,0-0.2-0.4-0.2-0.4c-1-2.2-1.8-4.6-5.1-4c-0.9,0.2-1.9-0.5-2.2-1.5C158.5,148.8,158.6,148.4,158.9,148z" clip-rule="evenodd"/><path fill="#EFEEF1" fill-rule="evenodd" d="M170.9,139.8c-0.3-4.7,2.1-9,2.1-13.7c0.4-1.5,1.2-2.5,3-2.1	c0.1,6-2.6,11.4-4,17C171.6,140.6,171.2,140.2,170.9,139.8z" clip-rule="evenodd"/><path fill="#625961" fill-rule="evenodd" d="M156.8,161.8c2.1-1,4.1-2.1,6.2-3.1c-2.4,3.4-4.7,6.9-7.1,10.3	c-0.2-0.2-0.4-0.3-0.7-0.4c0.6-2-1.6-3.6-0.6-5.6C155.1,162.2,155.7,161.6,156.8,161.8z" clip-rule="evenodd"/><path fill="#2378AA" fill-rule="evenodd" d="M67.9,26.8c2.8,0.9,4.4-2.2,7-2c1.4-0.9,2.9-1.8,4.7-1.3	c0.4,0.2,0.7,0.5,0.9,0.9c3.5,1.8,5.7-1.7,8.7-2.2c2.1-0.1,3.7-2.5,6-1.1c1.7-0.3,3.3-0.7,5-1c0.6,1.3,0,2.3-0.7,3.4	c-3.2,3.6-8.9,3.3-11.8,7.5c-0.9,0.9-2.1,1.2-3.3,1.3c-3.3,0.2-6.4,1.6-9.4,2.8c-2.4,0.9-4.5,0.9-6.4-0.8c-0.3-0.4-0.6-0.8-0.8-1.3	c0-1.1,0.5-1.8,1.3-2.5c1.1-0.6,2.4-0.6,3.3-1.3c0.8-0.2,0.4-0.5,0.2-0.2c-0.5,0.5-1.3,0.7-2.1,0.7c-1.2-0.3-2.2-0.8-2.6-2.1	C67.8,27.3,67.8,27,67.9,26.8z" clip-rule="evenodd"/><path fill="#2FC7DC" fill-rule="evenodd" d="M109.3,15c1.1,0.8,2.3,1.2,3.6,1c1.8,0.8,3.6,1.4,5.4,2.3	c1.6,0.8,2.8,1.8,2,3.8c-0.5,0.6-1.2,0.8-2,1c-5,0.5-9.2-3.4-14.3-2.8c-1-0.8-1.3-2-1.5-3.2c0-1.3,0.5-2.4,1.7-3	C105.9,14.3,107.4,15.4,109.3,15z" clip-rule="evenodd"/><path fill="#1B5980" fill-rule="evenodd" d="M80,24.9c-0.1-0.4-0.2-0.8-0.3-1.1c-0.4-0.9-0.1-1.8,0.2-2.6	c1.8-1.3,3.3-3.2,5.8-3.3c1.9,0.2,4.7-0.6,4.1,3c-0.4,1.8-2,1.9-3.3,2.4C84.3,23.6,82.7,26.4,80,24.9z" clip-rule="evenodd"/><path fill="#66E2E8" fill-rule="evenodd" d="M86.1,22.1c1.3-0.4,2.6-0.8,3.8-1.2c1.2-0.8,2.4-1.8,3.7-2.2	c3.3-1.1,2,0.9,1.5,2.4c-2,0.7-4,1.4-6,2.1C87.9,23.3,86.4,24.4,86.1,22.1z" clip-rule="evenodd"/><path fill="#285A8D" fill-rule="evenodd" d="M103.1,17.1c1,0.6,0.7,1.7,0.9,2.5c0,0.8-0.2,1.4-0.7,2	c-1.2,1.1-2.3,2.7-4.3,1.3c0.3-1,0.7-2,1-2.9c0.3-0.5,0.5-0.9,0.8-1.4C101,17.3,102,17.1,103.1,17.1z" clip-rule="evenodd"/><path fill="#8DE8EF" fill-rule="evenodd" d="M103.1,17.1c-0.8,0.5-1.5,1-2.3,1.5c-2.1-3.8-0.2-4.9,3.4-4.7	C103.9,15,103.5,16.1,103.1,17.1z" clip-rule="evenodd"/><path fill="#E98B3E" fill-rule="evenodd" d="M148,160c0,1.3,0.8,1.9,2,2c0.2,2.1-1.8,1.9-2.8,2.6	c-1.6,1.1-3.3,2-3.3,4.4c-3.3,2.4-7,4-10.9,5.1c-0.4,0-0.7,0-1.1-0.1c0.3-3.7,2.7-5.9,5.6-7.8c4.1-0.6,5.9-4.7,9.2-6.5	C147.2,159.7,147.6,159.7,148,160z" clip-rule="evenodd"/><path fill="#F0C942" fill-rule="evenodd" d="M143.9,169c-1.5-0.2-2.2-0.7-1.2-2.2c1.7-2.7,4.6-3.5,7.2-4.7	c2.3,0.5,4.4-3.4,6.8-0.2c-0.6,0.4-1.2,0.8-1.8,1.2c-1,1.4-2,2.9-3.4,4c-0.9,0.6-1.7,0.2-2.5-0.3C147.4,167.5,145.6,168.3,143.9,169	z" clip-rule="evenodd"/><path fill="#DAD060" fill-rule="evenodd" d="M149.1,166.8c0.7-0.9,1.2,0.1,1.7,0.2c1.7-0.6,2.2,0.4,2.3,1.9	c-0.8,2.4-4.1,1.8-5,4.1C145.6,170.5,148.8,168.9,149.1,166.8z" clip-rule="evenodd"/><path fill="#8FC3E9" fill-rule="evenodd" d="M186.1,89.3c0.3,0,0.6,0,0.9,0c1,2.8,2.5,5.6,0.8,8.6	c-0.3,0.1-0.7,0.1-1,0.2c-0.5,0.1-0.9,0-1.2-0.4c-0.2-1.8-0.9-3.4-1.5-5.1C184.1,91.1,184.2,89.7,186.1,89.3z" clip-rule="evenodd"/><path fill="#205E8B" fill-rule="evenodd" d="M70.1,19c0,0.4,0,0.7,0,1.1c-1,1-2,2-3,3c-1.6,2.2-4,3.6-5.3,6	c-0.4,0.6-0.8,1.1-1.3,1.6c-2,2-4.5,3.1-6.9,4.4c-3.3,1.4-5.9,4.5-9.7,4.8c-1.3-0.4-2.5,2.2-3.9,0.1c3.7-4.9,9-7.9,13.4-11.9	c2.3-1.3,0.6-3.2,0.8-4.8c5-3.1,9.9-6.3,14.9-9.4C70.8,15.2,69.7,17.3,70.1,19z" clip-rule="evenodd"/><path fill="#A7E0EC" fill-rule="evenodd" d="M60,29.9c0.3-0.3,0.6-0.7,0.9-1c2.1-1.2,3.7-3.4,6.3-3.8	c0.7,0.4,0.7,1,0.7,1.7c0,0,0.1,0.3,0.1,0.3c-0.4,1.9-1,3.7-2.3,5.3c-0.5,0.7-1,1.5-1.8,1.9c-0.6,0.2-1.3,0.4-1.9,0	c-0.7-1.1-1.3-2.3-2.3-3.2C59.6,30.7,59.6,30.3,60,29.9z" clip-rule="evenodd"/><path fill="#2A8AB5" fill-rule="evenodd" d="M67.2,25.2c-1.6,2-3.1,4.3-6.3,3.8c0.9-3.2,3.3-4.8,6.1-5.8	C67.1,23.8,67.2,24.5,67.2,25.2z" clip-rule="evenodd"/><path fill="#31B6D3" fill-rule="evenodd" d="M80,21.2c0.8,1,0.5,1.8-0.2,2.6c-1.6,0.5-3.1,1.6-4.9,1	C75.2,21.7,78.2,22.2,80,21.2z" clip-rule="evenodd"/><path fill="#1F658A" fill-rule="evenodd" d="M54,23.2c0.5,3.4,2.5-0.1,3.8,0.9c-1.1,1.9-2.3,3.5-4.6,3.9	c-0.8,0.1-1.6,0.2-3,0.4c1.1-2,2-3.7,3-5.4C53.5,23,53.8,23.1,54,23.2z" clip-rule="evenodd"/><path fill="#163142" fill-rule="evenodd" d="M22.2,107.9c0.9,2.4,1.9,4.9,3,7.8c-3.2-0.2-4-2.9-6-3.7	c-0.3-1.3-0.7-2.5-2-3.2c-0.3-1.4,0.3-2.6,0.9-3.8C20.3,104.7,21.7,105.6,22.2,107.9z" clip-rule="evenodd"/><path fill="#14222B" fill-rule="evenodd" d="M20,85.9c0.1-0.3,0.2-0.5,0.3-0.7c1.9-4.8,6.3-7.7,8.8-12.1	c0.8-1.4,2.5-1.6,3.3-3c3.4-4.3,7.6-7.7,11.2-11.8c1.4-1.2,2.2-3.4,4.7-2.5c3.5,3.4,0.3,5.7-1.2,8.4c-2.4,3.1-4.9,6-7.2,9.1	c-0.7,0.9-1.5,1.6-2.3,2.4c-1.5,1.4-2.9,2.9-4.3,4.4c-2.8,2.8-5.6,5.6-8.1,8.8c-0.9,1.2-2.3,2.3-3.9,1.3	C19.6,89.2,18.9,87.8,20,85.9z" clip-rule="evenodd"/><path fill="#184F73" fill-rule="evenodd" d="M20,85.9c0.3,1.4,0.3,3.3,1.9,3.6c1.7,0.4,2.3-1.5,3.1-2.6	c2.3-3,5-5.6,7.9-8c2.3-0.5,3.4-2,3.9-4.1c0.7-0.7,1.3-1.3,2-2c1.3,0.9,1.3,2.3,1.3,3.7c-2.3,7.8-6.4,14.7-10.1,21.8	c-1.7,0.9-3.4,1-5-0.2c-0.7-2.3-2.5-3.5-4.3-4.7c-0.8-0.6-1.8-0.9-2.6-1.5C15.3,88.9,17.9,87.5,20,85.9z" clip-rule="evenodd"/><path fill="#183241" fill-rule="evenodd" d="M33,71.1c-0.4,1.6-1.9,1.3-3,1.6c-3.4,3.7-5.6,8.4-10.1,11.1	c-2.1-2.5-0.4-4.3,0.9-6.3c1.2-1.8,2.2-3.7,3.2-5.5c0.6-0.6,1.2-1.2,1.9-1.8c1.3-1.1,2.6-2.2,3.9-3.3c0.8-0.4,1.3,0.1,1.8,0.6	C32.7,68.4,32.4,70,33,71.1z" clip-rule="evenodd"/><path fill="#E0F3F4" fill-rule="evenodd" d="M18.2,91.9c0.9-0.7,1.8-0.3,2.6,0.1c1,1.2,1.1,2.6,1,4	c-0.1,0.5-0.3,0.9-0.5,1.3c-0.6,0.8-1.3,1.4-2.3,1.6c-1.5-0.5-0.7-2.3-1.9-3C16.8,94.5,17.2,93.1,18.2,91.9z" clip-rule="evenodd"/><path fill="#206A94" fill-rule="evenodd" d="M20,83.8c3.6-3.5,6-8,10.1-11.1c-2.1,5.1-6,8.7-9.8,12.4	C20.2,84.7,20.1,84.3,20,83.8z" clip-rule="evenodd"/><path fill="#195479" fill-rule="evenodd" d="M35.1,57c-0.1-1.5-0.9-3-2.3-2.5c-5,2-2.1-1.8-2.5-3.2	c1.9-0.1,2.8-1.7,3.7-3c2.3-3.1,5.2-4.9,9-5.2c0.1,0.2,0.3,0.4,0.4,0.5c0.1,0.5,0.1,0.9,0.1,1.4c-0.3,1.4-1.1,2.5-1.9,3.7	C39.3,51.3,39.5,56,35.1,57L35.1,57z" clip-rule="evenodd"/><path fill="#50D1DF" fill-rule="evenodd" d="M43.7,39.9c3-2.1,6-4.4,9.5-5.7c0.5,0.6,0.6,1.3,0.4,2.1	c-0.4,1.2-1.5,1.9-2.5,2.5c-1.9,0.7-3.6,2.7-6,1.3C44.7,40,44.2,39.9,43.7,39.9z" clip-rule="evenodd"/><path fill="#2584B1" fill-rule="evenodd" d="M45.1,40.1c2-0.7,3.9-1.4,5.9-2.1c-1.6,4.4-3.9,5.9-8.1,5.1	c0,0,0,0.1,0,0.1C43.7,42.1,44.4,41.1,45.1,40.1z" clip-rule="evenodd"/><path fill="#194F73" fill-rule="evenodd" d="M103.1,165.9c0-1.6,0-3.2,0-4.8c3-4.2,7.9-5.7,12-8.3	c3.4-2.2,7.2-4.1,10.6-6.3c6.3-3.7,12.9-7.1,18.7-11.5c2.2-2,1.7-5.1,3-7.5c0.9-1.7,1.5-3.6,3.3-4.7c0.2,0,0.5-0.1,0.7-0.1	c0.5,0.1,0.9,0.4,1.2,0.8c1.1,2.5,2.3,5,2.1,7.9c-2.9,6.7-6,13.1-12.8,17c-3.9,2.3-5.1,6.6-5.8,11c-0.8,5.3-3.8,6.2-8.4,3.1	c-1.3-1.7-0.3-4.5-2.7-5.7c-2.4-1.8-1.6,0.3-1.7,1.4c-0.4,0.9-1,1.5-1.8,2c-5,2.5-9.8,5.6-15.4,6.8	C104.9,167.2,104.1,166.3,103.1,165.9z" clip-rule="evenodd"/><path fill="#2D3B53" fill-rule="evenodd" d="M127.9,161.9c5.1,2.6,6.6,1.9,7.1-3.5c0.5-6.4,4.1-10.5,9.3-13.5	c3-1.8,5.4-4.3,6.2-7.4c0.7-2.5,2.1-4.4,3.5-6.4c0.2-0.2,0.3-0.3,0.5-0.5c0.4,0.1,0.8,0.3,1,0.7c0.5,1.4-0.4,2.8,0.2,4.2	c0.3,0.7,0.7,1.5,0.4,2.3c0.1,3.6-4.9,3.7-5,7.2c-5.7,8.3-11.1,16.8-17.3,24.8c-1.4,1.8-2.8,3.2-4.8,4.1c-2.3-0.3-4.6-0.6-6.9-0.9	c0-0.3-0.1-0.6-0.2-0.9c-0.5-1.1,0.4-1.6,1-2.1c2-1.4,1.3-3.3,1-5.2c0.2-2-0.3-4.2,1-6C128.1,157.9,127.1,160.7,127.9,161.9z" clip-rule="evenodd"/><path fill="#2A6D6C" fill-rule="evenodd" d="M124,171c-0.8,0.1-1.6,0.3-2,1.1c-2.3-0.8-4.7-1.5-7-2.3	c-2.9-2.2,0-4.2,0.3-6.2c1.5-2,4.3-2,5.9-3.9c1.3-0.1,2.4-2,3.9-0.5c0.7,2-0.1,4-0.1,6c-0.9,2.3-2.3,3.8-4.8,3.9	C121.4,169.4,123.8,168.2,124,171z" clip-rule="evenodd"/><path fill="#5ECEBE" fill-rule="evenodd" d="M121.2,160.2c-1.7,1.3-3.5,2.5-5.2,3.8c-2.1,2.4-5.1,3.2-8,4	c-0.7-0.4-1.3-0.7-2-1.1c5-2.6,10-5.2,14.9-7.8c0.3,0.2,0.5,0.4,0.4,0.7C121.4,160,121.3,160.2,121.2,160.2z" clip-rule="evenodd"/><path fill="#2B867D" fill-rule="evenodd" d="M108,167.9c2-2.6,5.2-2.8,8-4c0.3,2-2.4,3.6-1,5.8	C112.7,169.2,110.3,168.6,108,167.9z" clip-rule="evenodd"/><path fill="#3A85D8" fill-rule="evenodd" d="M120.1,22c-0.6-4.1-5.3-3.3-7.1-6c2.9-0.2,5.2,1.8,8,2	c0.7,1,1.3,2,2,3C122.4,22.4,121.5,22.9,120.1,22z" clip-rule="evenodd"/><path fill="#29AEC8" fill-rule="evenodd" d="M19,99c0.5-0.8,0.7-2,2-2c1.7,3.5,3,7.1,2.1,11	c-0.3,0-0.6-0.1-1-0.1c-1.4-1-2.8-1.9-4.1-2.9C17.4,102.9,18.8,101,19,99z" clip-rule="evenodd"/><path fill="#77E7ED" fill-rule="evenodd" d="M120.1,22c1.2,0.2,2-0.5,3-1c3.2-0.1,5.8,2.8,9.2,2.1	c1.3,2.3,3.1,3.4,5.8,3c0.3,0.3,0.7,0.7,1,1c0.6,1-0.1,1.6-0.7,2.2c-1.8,1.1-0.3,1.8,0.3,2.6c0.5,0.8,1,1.6,0.1,2.5	c-2.1,0.7-3.8-0.2-5.4-1.5c-1.5-3.3-4.7-4.6-7.5-6.6c-2.5-1.7-6.4-0.7-8-4.1C118.6,22.1,119.3,22,120.1,22z" clip-rule="evenodd"/><path fill="#B96655" fill-rule="evenodd" d="M153.1,168.9c-0.5-1-1.1-1.7-2.2-1.9c0.7-2.1,2.1-3.4,4.2-4	c-1.1,1.9,3,3.7,0.1,5.6C154.5,168.7,153.8,168.8,153.1,168.9z" clip-rule="evenodd"/><path fill="#66CFDB" fill-rule="evenodd" d="M35,56.9c2-3,3.9-6,5.9-9c0.8,0.2,1.3,0.6,1.6,1.4	c-1,6-5.8,10.2-7.7,15.8c-1,1.2-1.3,3.3-3.7,2.6c-0.4-0.3-0.8-0.6-1.2-0.9c-0.4-1.3,1.8-2.4,0.3-3.8c-0.6-2.5,1.6-2.9,2.9-4	C34.1,58.6,34.8,58,35,56.9z" clip-rule="evenodd"/><path fill="#1D5D82" fill-rule="evenodd" d="M33.1,59c-1,1.3-2,2.7-2.9,4c-1.7,0.9-1.9,4.3-4.9,3.1	c1.1-3,4.1-4.5,5.7-7.1C31.7,59,32.4,59,33.1,59z" clip-rule="evenodd"/><path fill="#2A7FB0" fill-rule="evenodd" d="M186.1,98.1c0.2,0,0.5,0,0.7,0c0.5,2.3,1.6,4.2,3.2,5.9	c-0.4,1.3-0.7,2.6-1.1,3.9c-2.4,2.4-5.1,4.6-5.7,8.2c-0.6,0.7-1.2,1.3-1.8,2c-3.4,1-3.2-1.1-2.7-3.3c0.7-3.1,2.4-5.8,3.8-8.6	c1.1-2.2,1.7-4.6,2.6-7C185.3,98.8,185.6,98.4,186.1,98.1z" clip-rule="evenodd"/><path fill="#4825A7" fill-rule="evenodd" d="M30.1,123.2c-0.8-0.5-1.2-1.2-1.1-2.2c3.4-1.4,5,1.4,7.1,3	c3.5,2.7,6.6,5.9,10.9,7.2c0.7,0.3,1.1,0.8,1.2,1.6c-0.7,1.3-2,1.8-3.3,2.2C40,131.1,35,127.1,30.1,123.2z" clip-rule="evenodd"/><path fill="#E1DCE5" fill-rule="evenodd" d="M44.9,135c0.2-1.9,1.6-1.9,3-2.1c2.7-0.7,3.8,0.3,3,3.1	c-1,0.7-2,1.3-3,2C45.5,138.5,45.8,136.2,44.9,135z" clip-rule="evenodd"/><path fill="#14222B" fill-rule="evenodd" d="M47.3,132.1c-4.8,0.2-7.2-3.6-10.6-6c-2.5-1.8-4.4-4.5-7.7-5.1	c-0.4,0-0.7,0-1.1,0c0-4.9-2-9.1-4.8-12.9c-0.8-3.7-2.9-7.1-2.1-11l0,0.1c1.3-1,2.6-1.3,3.9,0.1c1.4,1.3,3.3,0.6,4.9,0.8	c3,2.3,3.9,6,5.9,9c2.2,6.4,5.9,12,9.1,17.8C45.8,127.2,48.4,129,47.3,132.1z" clip-rule="evenodd"/><path fill="#F5F4F2" fill-rule="evenodd" d="M137.9,28.9c0.4-0.6,0.7-1.2,1.1-1.9c3.7,1.7,4.6,5.7,6.7,8.6	c2.1,2.9,3.6,6.2,5.3,9.4c0.9,0.9,1.7,1.8,1.5,3.3c-0.4,1.1-1.3,1.4-2.4,1.2c-4.1-3.1-6-7.9-8.9-11.9c-1-2-1.2-4.4-2.7-6.2	C137.9,30.7,137.4,29.9,137.9,28.9z" clip-rule="evenodd"/><path fill="#B0E4ED" fill-rule="evenodd" d="M150.3,49c0.8-0.1,1.5-0.3,1.8-1.1c1.1-1.1,2.4-1.7,4-1.9	c0.9,0,1.8-0.1,2.7-0.1c-0.8,3.1-2.2,6.4,0.9,9.1c1,1.9-0.5,2.6-1.8,3.3c-4.8-0.6-6.4-4.5-8.3-8.2C149.7,49.7,149.9,49.3,150.3,49z" clip-rule="evenodd"/><path fill="#6B6D78" fill-rule="evenodd" d="M156.1,46c-0.8,1.9-2.1,2.5-4,1.9c-0.4-1-0.7-1.9-1.1-2.9	C152.9,44.4,155.2,41.6,156.1,46z" clip-rule="evenodd"/><path fill="#9645CC" fill-rule="evenodd" d="M158,57.8c0.6-0.9,1.1-1.8,1.7-2.7c0.8-4,1.6-8,2.4-12	c2.5,2.2,2.4,5.8,4.8,8.1c1.3,3.7,2.6,7.4,4,11.1c1.6,2.5,3.2,5.1,2.7,8.4c-0.8,1.2-1.8,0.7-2.5,0.2C166,67.1,162.8,61.6,158,57.8z" clip-rule="evenodd"/><path fill="#142129" fill-rule="evenodd" d="M61,132.8c0-0.3,0.1-0.5,0.1-0.8c0.8-0.5,1.6-0.9,2.6-1.1	c-0.9-0.2-1.7,0.6-2.6,0.2c-2.8-1.5-1.1-5.6-4.1-7c-1.5,0.1-1.5-0.7-1.1-1.8c0.3-3.3,0.3-6.5-1.8-9.2c-1.8,0.3,2.2-2.4-0.8-1.6	c-0.5,0.1-1-0.1-1.4-0.4c-2.1-1.7-3.7-12.2-2.3-14.7c3.4-1,6.9-0.7,10.3-0.2c2.4,0.8,3.4,2.9,4.7,4.8c5.9,8.3,10.8,17.3,16.9,25.5	c2.8,4.1,5.5,8.3,7.8,12.6c0.1,1.1-0.4,1.8-1.2,2.5c-2.8,1.2-5.4,2.8-8.2,3.9c-3.9-1.6-7.5-3.8-10.8-6.3c-0.6-0.3-1.3-0.7-1.9-1	C64.9,136.6,62.2,135.5,61,132.8z" clip-rule="evenodd"/><path fill="#184E73" fill-rule="evenodd" d="M57,60.9c-1.5-4-1.5-4-0.1-6c1-0.6,1.8,0,2.7,0.5	c4.2,3.5,8.6,6.8,13.1,9.9c1.5,1,3.1,1.9,3.9,3.8c-0.3,4.5-3.4,7.6-5.3,11.3c-1.3,2.5-2.9,4.7-4.2,7.2c-1.1,1.4-1.7,3.3-3.7,3.8	c-1.9-0.1-2.3-1.6-2.6-3c-0.7-3.4-1.9-6.6-2.2-10c-1-2.8-0.8-5.8-0.8-8.7C57.2,66.8,59.3,63.7,57,60.9z" clip-rule="evenodd"/><path fill="#114574" fill-rule="evenodd" d="M58.5,56c-0.6-0.4-1.1-0.7-1.7-1.1c3.2-5.5,5.3-11.6,9.2-16.7	c0.7-1.1,1.7-1.9,3-2.2c1.7-0.2,3.5-0.3,5.2-0.9c2-0.2,3.5,0.4,4.3,2.4c-1.5,5.3-6.7,6.8-10.4,9.9c-2,1.7-4.1,3.2-5.4,5.6	c-0.6,0.7-1.3,1.3-1.9,2C60.2,55.5,59.6,56.2,58.5,56z" clip-rule="evenodd"/><path fill="#908C7A" fill-rule="evenodd" d="M34.6,107.1c-1.8-3-3.9-5.8-4.8-9.2c2.1-7.4,6.8-13.6,9.2-20.9	c0.7-0.9,0.4-2.7,2.3-2.5c1.6,0.8,1.4,1.9,0.6,3.2c-3.2,6-4.5,12.8-8.7,18.3c-1.1,1.5,0.4,3.2,1,4.7c1.4,3.2,3.1,6.2,4.7,9.2	c0.6,1,1.1,2.3-0.3,2.8c-1.2,0.5-1.3-1-1.9-1.7C35.9,109.9,36.1,108.1,34.6,107.1z" clip-rule="evenodd"/><path fill="#D7C05F" fill-rule="evenodd" d="M126.2,147.3c-7.3,5.3-15.4,9.1-23,13.7c-0.1-0.3-0.2-0.6-0.3-1	c-0.4-0.7-0.5-1.4-0.2-2.2c6.8-5.5,14.7-9.3,22.4-13.4c0.6-0.3,1.3-0.1,1.9,0.2C127.7,145.9,126.4,146.5,126.2,147.3z" clip-rule="evenodd"/><path fill="#7E5C41" fill-rule="evenodd" d="M103.4,158c-0.2,0.7-0.4,1.4-0.6,2.1c-8.1-3.9-15.9-8.3-22.9-14.1	c0.2-0.2,0.4-0.3,0.5-0.5c0.7-0.3,1.4-0.4,2.1-0.2c6,2.4,10.6,7.4,16.8,9.5c1.3,0.4,2.4,1,3.4,2C103,157.2,103.2,157.6,103.4,158z" clip-rule="evenodd"/><path fill="#1F658D" fill-rule="evenodd" d="M47.8,95.2c-1.2-1.7,0.3-3.1,0.7-4.5c2.4-7.6,5-15.2,7.4-22.8	c1.1,0,1.9,0.3,2.4,1.3c0.1,1.2,0.2,2.4,0,3.6c-1.5,0.3-1.7,1.4-2,2.8c-1.8,6.8-3.9,13.4-7.2,19.6C48.7,95.5,48.2,95.5,47.8,95.2z" clip-rule="evenodd"/><path fill="#7F7B73" fill-rule="evenodd" d="M34.6,107.1c2.5,0.8,2.1,3.8,4.2,5.3c0.1-0.9,0.2-1.7,0.2-2.4	c1,0.3,1,1.1,1.1,1.9c2.2,3.6,3.4,7.7,6,11.1l0,0c0.7,2.3-0.1,2.9-2.3,2.2C40.1,119.4,37.2,113.4,34.6,107.1z" clip-rule="evenodd"/><path fill="#16425F" fill-rule="evenodd" d="M49,96.9c-0.3,5,2.1,9.2,3.5,13.6c2.2,0.2,1.6-2.4,3.3-2.6	c0.4,2.1-1.3,3.4-1.7,5.1c-1.6,1.6-0.6,3.6-0.8,5.4c-2.4-7.2-5.2-14.1-6.2-21.6C47.7,96.5,48.4,96.3,49,96.9z" clip-rule="evenodd"/><path fill="#184E72" fill-rule="evenodd" d="M46,63.8c0.6-2.5,4.8-4.2,1.9-7.6c0-0.2,0-0.4,0-0.6	c0.1-1.1,0.2-2.1,1.2-2.8c0.5-0.1,0.9,0,1.2,0.3c0.4,0.6,0.5,1.2,0.4,1.9c-0.2,0.4-0.4,0.8-0.7,1.1c2.3,2.4,2.1,4.7,0.2,7.3	c-1.5,2.1-2.6,4.4-3.9,6.7c-1-0.5-1.2-1.4-1.2-2.4C45.5,66.4,45.5,65,46,63.8z" clip-rule="evenodd"/><path fill="#6C6C6C" fill-rule="evenodd" d="M43.8,125.1c1.4-0.1,2.1-0.8,2.3-2.2c2.3,3.7,4.6,7.5,6.8,11.2	c-0.4,0.9-1,1.5-1.9,1.8c0.6-2.6-1.3-2.8-3-3.1c-0.2-0.3-0.4-0.6-0.6-0.9C46.2,129.7,45,127.4,43.8,125.1z" clip-rule="evenodd"/><path fill="#5554C1" fill-rule="evenodd" d="M49,96.9c-0.6,0-1.3,0-1.9,0c0.2-0.5,0.5-1.1,0.7-1.6	c0.4-0.1,0.9-0.2,1.3-0.3c3.4-2.3,7.2-1.4,10.8-0.9c0.8,0.3,1.5,0.8,1.6,1.8c0,0.6-0.3,1-0.8,1.3C56.8,96.3,52.9,96.8,49,96.9z" clip-rule="evenodd"/><path fill="#808280" fill-rule="evenodd" d="M46,66.8c0.1,1.1,0.2,2.1,0.2,3.2c-1.3,2.7-2.2,5.6-4.3,7.8	c0-1.1,0.1-2.3-1.1-2.9C40.2,70.7,42.6,68.4,46,66.8z" clip-rule="evenodd"/><path fill="#2471A3" fill-rule="evenodd" d="M62.3,33.7c0.6,0.2,1.1,0.4,1.7,0.5l0.4,0.2l-0.1,0.5	c-3.4,3.4-4.5,8.2-7,12.1c-1.1-0.4-1.5-1.3-1.7-2.3C56.6,40.3,58.3,36.3,62.3,33.7z" clip-rule="evenodd"/><path fill="#6979D8" fill-rule="evenodd" d="M56,45c1,0.3,1,1.3,1.3,2.1c-1.8,3.5-0.6,9.4-7.3,9	c0-0.3,0-0.7,0-1c1.6-1.3,2.6-3,2.4-5.2C53,47.8,53.8,45.9,56,45z" clip-rule="evenodd"/><path fill="#316AA0" fill-rule="evenodd" d="M58.1,69c-0.9,0-1.7-0.2-2.1-1.1c0.7-2.3,1.2-4.6,1-7	c1.5-0.8,2.2-0.3,2.1,1.3c-0.1,2.3-0.2,4.6-0.2,6.9C58.5,69.5,58.3,69.4,58.1,69z" clip-rule="evenodd"/><path fill="#2D5A45" fill-rule="evenodd" d="M69.1,139c3.6,2,7.2,3.9,10.8,5.9c0.4,0.3,0.5,0.6,0.4,1.1l-0.3,0	C75.7,144.6,71.8,142.9,69.1,139z" clip-rule="evenodd"/><path fill="#34B289" fill-rule="evenodd" d="M72.4,154.6c4.8,1.5,7,4.2,9.5,6.5	C78.5,160.1,75.6,158.5,72.4,154.6z" clip-rule="evenodd"/><path fill="#EAE8EF" fill-rule="evenodd" d="M64.3,34.9c-0.1-0.2-0.2-0.5-0.3-0.7c0.1-0.8,0.2-1.7,1-2.1	c1.1-0.1,2.2-0.2,2.9,1l-0.1,0c0.9,1.1,2.6,2,1.1,3.9c-0.8,0.7-1.6,1.4-2.8,1.2C65.6,37,66.2,35.3,64.3,34.9z" clip-rule="evenodd"/><path fill="#6C6C6C" fill-rule="evenodd" d="M46.1,123c-3.5-2.9-4.8-7-6-11.1C42.9,115.1,44.7,118.9,46.1,123z" clip-rule="evenodd"/><path fill="#42C9D1" fill-rule="evenodd" d="M44.9,97.2c-0.7,1.3-1.6,2.1-3.1,1.4c-1.5-0.8-1-2.2-0.7-3.4	C43.8,93,44.2,95.4,44.9,97.2z" clip-rule="evenodd"/><path fill="#164563" fill-rule="evenodd" d="M92.2,156.6c-1.9,1.5-3.8,2.6-6.9,2.2	C87.7,156.9,89.8,156.4,92.2,156.6z" clip-rule="evenodd"/><path fill="#174767" fill-rule="evenodd" d="M44.9,97.2c-0.8-1.6-1.9-2.6-3.8-2c0.6-1.2,0.7-3.4,2.5-2.9	C46,93,44.7,95.4,44.9,97.2z" clip-rule="evenodd"/><path fill="#1F648C" fill-rule="evenodd" d="M81.9,168c0.3,0-0.5-0.2-0.6-1.2c-0.1-1,0.4-1.6,1.3-1.7	c1.1-0.1,2.1,0.2,2.1,1.5C84.8,167.5,84.1,167.9,81.9,168z" clip-rule="evenodd"/><path fill="#4A4DAA" fill-rule="evenodd" d="M61.1,131c1.7-0.8,3.2-2.3,6-1.9c-1.9,2.2-3.7,2.9-6,2.8	C61.1,131.6,61.1,131.3,61.1,131z" clip-rule="evenodd"/><path fill="#3DCF92" fill-rule="evenodd" d="M55.9,122.2c0.4,0.6,0.7,1.2,1.1,1.8c-0.1,1-0.2,2.2-1.7,1.6	c-1.3-0.6-2-1.9-1.6-3.2C54,121.4,55.1,122,55.9,122.2z" clip-rule="evenodd"/><path fill="#1AAD65" fill-rule="evenodd" d="M61,132.8c2.1,1.8,4.2,3.5,6.3,5.3C64.1,137.5,61.1,136.8,61,132.8	z" clip-rule="evenodd"/><path fill="#195175" fill-rule="evenodd" d="M77.8,147.6c1.3,1.9,2.8,2.8,2.4,5.5	C78.7,151.3,76.5,150.9,77.8,147.6z" clip-rule="evenodd"/><path fill="#76737B" fill-rule="evenodd" d="M129,173.9c7.4-8.4,13-18.2,20-26.9c0.6-0.8,1-1.7,2.1-2	c-1.3,5-5.6,8.3-7.1,13.2c0.5,1.6-0.8,2.4-1.4,3.5c-1.5,1.8-2.3,4.3-4.8,5.2c-2.7,1.8-3.8,4.8-5.9,7.1C131,174,130,173.9,129,173.9z" clip-rule="evenodd"/><path fill="#184E73" fill-rule="evenodd" d="M158,57.8c2.9,0.4,4.6,2.6,6.4,4.6c2.8,3,5.7,6,8.5,8.9	c0.8,0,1.4,0.3,1.9,0.8c1.9,3.1,5.5,5.1,6.1,9c1.5,2.9,5.5,4.2,5.1,8.3c-0.9,1.1-1.2,2.3-1.3,3.7c-2.9,0.1-3-2.5-4.2-4.1	c-0.2-0.4-0.5-0.8-0.7-1.2c-1.6-3.3-4-6-6.3-8.8c-0.4-0.5-0.8-1-1.2-1.5c-1-1.1-2.1-2.1-3.2-3.2c-2.6-2.6-5.3-5.3-8-7.9	c-1-0.8-1.4-2.1-2.6-3c0.7,1.7,1.5,3.2,2.3,4.6c3.4,7.5,8,14.5,10.8,22.3c0.5,1.3,1.4,2.5,2,3.8c0.2,0.5,0.3,0.9,0.4,1.4	c0.2,2.2,0.2,4.3-0.7,6.3c-4.4,8.9-8.4,17.9-13.6,26.4c-1.1,1.7-2.2,3.4-4.7,2.8L155,131c-1.2-2.6-1.4-5.6-3-8l0,0	c-1.3-1.4-1.5-3.1-0.7-4.6c3.3-6.5,4.8-13.7,9-19.8c1.4-0.9,3.2-0.5,4.9-1.1c0-2-1.4-3.3-2.2-4.9c-0.1-0.6-0.8,0.3-0.2,0	c1.3,2.4,1.4,4.2-2.1,4c-5.1-4.5-5.6-11.1-7.7-17c-0.1-2.6,0-4.9,3.4-5.5c2.6-0.5,1-2.2,0.7-3.4c-1.3-3.5-3.7-6-7.2-7.4	c-3.1-1.3-1.4-4.4-2.4-6.5c-0.1-0.5-0.2-0.9-0.2-1.4c0.6-1.9-1.7-4,0.4-5.8c1-0.4,1.9,0,2.7,0.6C152.6,52.8,153.8,56.8,158,57.8z" clip-rule="evenodd"/><path fill="#8942C7" fill-rule="evenodd" d="M181,81c-2.4-3-4.8-6-7.3-9c1.1-2.4-1.8-4.6-0.5-7	c1.4-0.3,2.2,0.5,2.8,1.6c0.4,3.8,3,6.6,4.2,10C180.8,78.1,182.8,79.3,181,81z" clip-rule="evenodd"/><path fill="#CFB0E7" fill-rule="evenodd" d="M173.2,65.1c0,2.3,3.3,4.5,0.5,7c-0.2-0.3-0.5-0.6-0.7-0.8	c-0.7-3-1.4-6-2.1-9.1c0.4-0.4,0.7-0.8,1.1-1.1C172.3,62.4,172.8,63.7,173.2,65.1z" clip-rule="evenodd"/><path fill="#6DAFDE" fill-rule="evenodd" d="M186,98.9c-0.4,5.5-3.9,9.8-5.7,14.7c-0.5,1.3-2.9,3.8,1,4.4	c-0.9,1-1.6,2.1-3.2,2c-1.2,0.6-1.9-0.1-2.5-1c0.5-5.5,4-9.9,5.5-15.1c1.1-1.8,1.2-4.3,3.5-5.5C185.2,98.5,185.6,98.6,186,98.9z" clip-rule="evenodd"/><path fill="#77C7D7" fill-rule="evenodd" d="M176,119c0.7,0.4,1.5,0.7,2.2,1.1c1.3,2.5-0.8,3-2.3,3.8	c-1,0.7-2,1.4-3,2.1c-3.6,1.5-5.6,5.2-9,7.1c-2.8-1.9-0.1-3,0.8-4C168.1,125.4,172.4,122.5,176,119z" clip-rule="evenodd"/><path fill="#624389" fill-rule="evenodd" d="M176,119c-1.5,4.7-6.4,6.3-9.2,9.8c-1.1,1.3-3.6,1.8-2.8,4.4	c-1,1-1.4,3.2-3.6,1.9c-0.8-0.2-1.2-0.9-1.5-1.6c-0.7-5.6,3.6-9.3,5.5-13.9c2.6-0.3,3.7-2.5,5.1-4.2c2.5-3,4.9-6.2,7.4-9.2	c1.3-1.5,2.5-3.7,5.2-2.2C180.9,109.4,178.2,114.1,176,119z" clip-rule="evenodd"/><path fill="#ECCBD7" fill-rule="evenodd" d="M159.7,133.2c0.2,0.6,0.4,1.3,0.6,1.9c-0.3,2.6-1,4.6-4.2,2.7	c-0.4-0.6-0.8-1.3-1.3-1.9C155.4,131.7,156.4,131.2,159.7,133.2z" clip-rule="evenodd"/><path fill="#B6AB6C" fill-rule="evenodd" d="M141.9,160.9c0.7-0.9,1.4-1.8,2.1-2.8c2.3-1.4,4.6-2.9,6.9-4.3	c0.1,0.2,0.3,0.4,0.4,0.6c-0.5,2.9-3,4-5.1,5.4C144.9,160.8,143.7,162.5,141.9,160.9z" clip-rule="evenodd"/><path fill="#C2A571" fill-rule="evenodd" d="M158.9,148c0,0.3,0,0.5,0,0.8c-1.5,3.4-3.6,5.8-7.7,5.3	c0,0-0.3-0.2-0.3-0.2C153,151.1,155.5,149,158.9,148z" clip-rule="evenodd"/><path fill="#B6573F" fill-rule="evenodd" d="M151.1,154.1c3.1-1,5.3-3.3,7.7-5.3c0.6,0.9,1.5,1.4,2.5,1.1	c5.7-2.2,4.7,1.7,4.5,4.9c-6.6-0.4-12,3-17.9,5.2c-0.3,0-0.6,0-0.9,0c-1,0.3-1.2-0.1-1-1C147.8,157.4,149.4,155.8,151.1,154.1z" clip-rule="evenodd"/><path fill="#174F74" fill-rule="evenodd" d="M78,38c-0.8-1.8-2.3-2.1-4-2c2.5-3.6,6.9-3,10.2-5	c1,0,2.1,0.1,2.8-0.9c6.6-3.3,12.8-8.1,20.9-5.4c3.4,0.9,6.5,2.6,9.9,3.4c1.8,0.7,3.6,1.2,5.3,2.1c2.6,1.5,5.4,2.3,8.3,2.9	c0.4,0.1,0.9,0.3,1.3,0.5c2.6,1.5,5.6,2.2,8.1,4c2.4,2.7,4.7,5.4,4.6,9.3c-1.7-0.4-2.9,3.2-4.9,0.6c-0.3-0.7-0.4-1.3-0.3-2.1	c-0.4-5.1-5-4.3-8-5.7c-5.9-2.6-12-4.2-18.5-2.7c-1.4,0.6-2.8,1.2-4.4,1c-2.3-0.4-4-1.8-5.8-3.1c-3.1-1.3-5.5,1.3-8.4,1.3	c-1.9,0-3.9,0.2-5.8-0.1c-2.5-0.8-4.8-0.5-7.1,1C80.9,37.8,79.6,38.8,78,38z" clip-rule="evenodd"/><path fill="#4F57AB" fill-rule="evenodd" d="M108.3,25.9c-5.8-2.1-11,0.1-16.1,2.4c-1.6,0.7-3.4,1.2-5.2,1.7	c2.6-4.7,8.3-4.2,12-7.1c1.7,0.2,2.6-1.2,3.8-2c1.6,0.7,2.8,2,4.4,2.6C107.9,24.2,108.5,24.9,108.3,25.9z" clip-rule="evenodd"/><path fill="#4A59B8" fill-rule="evenodd" d="M84.2,31c-2.9,2.6-7.1,2.6-10.2,5c-1.7,0.3-3.4,0.7-5.1,1	c-0.4-1.3-0.7-2.6-1.1-3.9c2.8,1.6,5.3,1.6,8.3,0.1C78.5,32,81.3,30.9,84.2,31z" clip-rule="evenodd"/><path fill="#30BFD5" fill-rule="evenodd" d="M86.1,22.1c0.7,1.3,2,0.8,3,1.1c-2.5,1.9-5.6,2.5-8.5,3.7	c-0.6,0.2-1.8,0.6-1.9-0.6c0-0.4,0.8-0.9,1.3-1.3C82.7,25.3,83.9,22.6,86.1,22.1z" clip-rule="evenodd"/><path fill="#236087" fill-rule="evenodd" d="M67.9,33.1c-1-0.1-2.2,0.1-2.9-1c0.9-1.8,1.5-3.7,3-5	c0.7,0.6,1.3,1.2,2,1.9c0,0.7-0.3,1.3-0.8,1.9C68.7,31.6,68.3,32.3,67.9,33.1z" clip-rule="evenodd"/><path fill="#2AB6D1" fill-rule="evenodd" d="M69.2,30.8c0.3-0.6,0.5-1.2,0.8-1.9c2,0.2,3.3-2,5.9-1.3	C73.8,29.7,71.5,30.3,69.2,30.8z" clip-rule="evenodd"/><path fill="#D8F1F3" fill-rule="evenodd" d="M106.5,24.1c-2.6,0.5-3.6-0.8-3.7-3.1c0.4-0.4,0.8-0.9,1.2-1.3	c1-1,1.9-1.9,3.6-0.8c3.1,2,6.8,2.5,10.3,3.3c3,1,6,2,9,2.9c-0.4,2.7-2.3,1.7-3.8,1.4c-3.4-0.6-6.6-1.6-9.9-2.6	c7.1,2.3,14.7,3.2,20.7,8.2c1.4,1.2,3.3,1.5,5,2c1,0.5,1.8,1,0.8,2.3c-3,0.7-5.1-1.8-7.8-2.3l0,0c-3.2-1-6.3-2.1-9.5-3	c-1.5-0.5-3-1-4.5-1.5C114.6,26.8,110.1,26.3,106.5,24.1z" clip-rule="evenodd"/><path fill="#CF6E3E" fill-rule="evenodd" d="M146.1,159.1c0.3,0.3,0.6,0.7,1,1c-2.8,2.6-4.3,7-9.2,6.8	c1.4-2,2.7-4,4.1-6C143.7,161.3,144.6,159.5,146.1,159.1z" clip-rule="evenodd"/><path fill="#8B65D9" fill-rule="evenodd" d="M186,98.9c-0.4,0-0.8,0.1-1.2,0.1c-2.4-0.4-5.2,1.3-7-1.5	c2.8-2.6,1.7-6.5,3.2-9.6c1.8,1.3,1.7,4,3.9,5c1.5,1.5,1.7,3.2,1.2,5.1C186.1,98.4,186,98.7,186,98.9z" clip-rule="evenodd"/><path fill="#93DDEA" fill-rule="evenodd" d="M53,35.9c0.1-0.6,0.1-1.2,0.2-1.8c2.3-1.4,4.5-2.8,6.8-4.3	c0,0.4,0,0.8,0.1,1.1c0.4,2.4-1.5,3.3-2.9,4.5C55.8,36.1,54.5,36.8,53,35.9z" clip-rule="evenodd"/><path fill="#235578" fill-rule="evenodd" d="M57.1,34.8c1-1.2,2-2.5,3-3.7c2.4-0.5,3.6-0.1,2.2,2.6	c-2.1,3.8-4.2,7.5-6.3,11.3c-1,1.6-2.1,3.3-3.1,4.9c-0.9,1-1.2,3.2-3.4,1.9c-1-1.7-0.9-3.4-0.2-5.1c2.5-1.6,3.2-4.5,4.5-6.9	C54.7,38,55.6,36.2,57.1,34.8z" clip-rule="evenodd"/><path fill="#1A5B7E" fill-rule="evenodd" d="M33.9,64.9c1.5-6,6.3-10.2,8.1-16c-0.4-1.2,0.3-1.9,1.3-2	c1.5-0.1,1.9,1.3,2.6,2.3c0.9,2.1,2.3,4,2.2,6.5c-0.1,0.2-0.2,0.3-0.3,0.5C45.8,56,45.6,58.6,44,59c-2.9,1.9-5,4.9-7.6,7.1	C34.6,67.6,33.4,67.9,33.9,64.9z" clip-rule="evenodd"/><path fill="#1E6A95" fill-rule="evenodd" d="M33.9,64.9c0.5,2.9,1.6,0.9,2.5,0.3c2.7-1.9,3.9-5.6,7.6-6.2	c-3.6,4-7.3,8.1-10.9,12.2c-1.4-0.7-1.5-2.1-1.9-3.4C32.7,67.4,32.9,65.7,33.9,64.9z" clip-rule="evenodd"/><path fill="#1B668F" fill-rule="evenodd" d="M46,66.8c-2.5,2.2-4.2,4.9-5.2,8.1c-0.6,0.7-1.2,1.4-1.8,2.2	c-0.1-1.4-0.1-2.8-0.2-4.2c2.4-3,4.7-6,7.1-9C46.5,64.8,46.8,65.8,46,66.8z" clip-rule="evenodd"/><path fill="#206F9D" fill-rule="evenodd" d="M36.9,74.8c0.1,3.7-0.8,4.7-3.9,4.1C34.3,77.6,35.6,76.2,36.9,74.8	z" clip-rule="evenodd"/><path fill="#2F82AF" fill-rule="evenodd" d="M24.9,97.1c-1.3,0-2.6,0-3.9-0.1c-0.1-1.7-0.1-3.3-0.2-5	c1.2,0.7,2,1.8,3.5,2.3C25.7,94.7,26.4,95.8,24.9,97.1z" clip-rule="evenodd"/><path fill="#2DC5D9" fill-rule="evenodd" d="M57.1,34.8c-0.8,3.9-3.1,7.1-4.8,10.6c-0.6,1.2-1.4,1.1-2.3,0.7	c-1.4,0.2-2.9,0.3-4.3,0.3c-1.4-0.3-2-1.5-2.7-2.5c-0.1-0.3-0.1-0.6,0-0.8c3.7-0.1,5.8-2.7,8.1-5.1c0.7-0.7,1.3-1.3,2-2	C54.4,35.6,55.7,35.2,57.1,34.8z" clip-rule="evenodd"/><path fill="#BBE9EE" fill-rule="evenodd" d="M42.9,43.9c1.7-0.4,2,1.2,2.9,2.1c0.5,0.3,0.8,0.7,0.9,1.2	c0,1.3,0.4,2.7-1.6,2.8c-0.8-1-1.1-3.6-3.1-1c-0.4-0.3-0.7-0.6-1.1-1C41.6,46.6,42.3,45.2,42.9,43.9z" clip-rule="evenodd"/><path fill="#C6B973" fill-rule="evenodd" d="M126.2,147.3c0.3-0.8,0.5-1.7,0.8-2.5c-4.3-0.8-8.4-2.6-12.5-4	c-1.7-0.6-3.4-1.3-3.6-3.5c0.2-0.5,0.6-0.8,1.1-0.9c2.3-0.2,4.2,0.9,6.3,1.7c1.9,0.9,4,1.4,5.9,2.1c3.4,2.1,6.6,1.3,9.9-0.6	c3.3-1.9,6.1-4.7,10.1-5.2c0.5,0.1,0.9,0.3,1.2,0.7c-1.3,3-4.3,3.8-6.8,5.3C134.3,142.8,130.7,145.8,126.2,147.3z" clip-rule="evenodd"/><path fill="#857782" fill-rule="evenodd" d="M161.1,98.9c-3.2,7.9-8,15.3-9.1,24.1c-0.2,0.1-0.4,0.2-0.7,0.2	c-0.9-0.1-1.9-0.2-2.6-1c-0.4-0.6-0.4-1.3-0.3-2.1c0.4-1.1,1.1-2,1.7-3.1c2.6-6.3,4.9-12.7,8.1-18.8c0.3-0.4,0.7-0.6,1.2-0.8	c0.5-0.1,1,0,1.4,0.2c0.3,0.2,0.4,0.5,0.4,0.8C161.2,98.8,161.1,98.9,161.1,98.9z" clip-rule="evenodd"/><path fill="#A3B77D" fill-rule="evenodd" d="M149.1,122.1c0.9-0.1,1.7,0.2,2.2,1.1c-2.3,3.2-3.7,6.8-4.4,10.7	c-0.2,1.2-0.5,1.8-1.8,1.3c0,0-0.4-0.1-0.4-0.1c-1.5-2.7,0.2-4.9,0.9-7.3C146.8,125.8,146.9,123.3,149.1,122.1z" clip-rule="evenodd"/><path fill="#96AF77" fill-rule="evenodd" d="M121.2,160.2c-0.1-0.4-0.1-0.7-0.2-1.1c0.7-0.4,1.3-0.9,2-1.3	c0.4-0.8,1-1.4,2-1.4c5.3-0.5,2.3,3.4,2.9,5.4c-1.2-0.6-0.5-3.3-2.8-2.8C123.8,159.5,122.5,159.8,121.2,160.2z" clip-rule="evenodd"/><path fill="#299E80" fill-rule="evenodd" d="M125,156.4c-0.7,0.5-1.3,0.9-2,1.4c-0.7-1-3.2-1.8-1.2-3.3	C123.5,153.2,124.8,154.3,125,156.4z" clip-rule="evenodd"/><path fill="#31A689" fill-rule="evenodd" d="M152,123c3,1.9,2.7,5,3,8c-0.3,0-0.7,0-1,0.1	C153.8,128.3,151.7,125.9,152,123z" clip-rule="evenodd"/><path fill="#AB95B5" fill-rule="evenodd" d="M159.7,133.2c-2.9-1.4-4.4-0.2-4.9,2.7c-2.5-1.7,0.7-3.2,0.2-4.8	c1.9-0.8,3.1-2.2,4-4c4.2-8.4,8.5-16.7,12.9-25c1.3-2.4,0.9-4.8,0.9-7.2c1.8-0.3,2.6,1,3.4,2.3c-2,8.5-6.1,15.9-11.4,22.8	C163.2,124.3,159.6,128,159.7,133.2z" clip-rule="evenodd"/><path fill="#269578" fill-rule="evenodd" d="M124,171c-1-1.6-3.1-0.5-4.7-1.7c2-1.5,3.8-2.9,5.6-4.2	C126.5,167.3,126,169.3,124,171z" clip-rule="evenodd"/><path fill="#A3F0F3" fill-rule="evenodd" d="M133.9,32.1c-7.4-2.8-14.8-5.5-22.2-8.3c5.2-0.6,9.9,3,15.2,1.2	C129.1,27.5,133.3,28,133.9,32.1z" clip-rule="evenodd"/><path fill="#226D91" fill-rule="evenodd" d="M137.9,28.9c0.4,0.7,0.8,1.4,1.2,2.1c0.3,1-0.2,1.3-1.1,1.3	c-1.3-0.4-2.8-0.7-2.7-2.4C135.4,28.4,136.6,28.2,137.9,28.9z" clip-rule="evenodd"/><path fill="#5DACC9" fill-rule="evenodd" d="M137.9,32.3c0.4-0.4,0.8-0.8,1.1-1.3c1.2,1.9,2.9,3.6,2.7,6.1	c-0.4,0.2-0.8,0.2-1.1,0c-0.3-0.3-0.4-0.7-0.5-1.1c-0.4-0.6-0.8-1.3-1.2-1.9C138.6,33.5,138.3,32.9,137.9,32.3z" clip-rule="evenodd"/><path fill="#575763" fill-rule="evenodd" d="M141.2,37c0.2,0.1,0.4,0.1,0.6,0.1c2.8,4,5.7,8,8.5,11.9	c0,0.3,0,0.6,0,0.9c-1.2,0-2.3,0-3.5,0.1c-2,0-2.8-0.9-1.9-2.8c-1.3-3.3-2.6-6.6-5.1-9.2C140.1,37.4,140.5,37,141.2,37z" clip-rule="evenodd"/><path fill="#705BD5" fill-rule="evenodd" d="M80.9,127.4c-6.7-10.1-13.5-20.2-20.2-30.2	c0.2-0.1,0.4-0.2,0.6-0.3c0.7-0.5,1.4-0.5,2.1-0.2c7,9.1,14,18.2,19.3,28.5C82.5,126.2,81.9,127,80.9,127.4z" clip-rule="evenodd"/><path fill="#59535E" fill-rule="evenodd" d="M88,141c0.3-0.7,0.7-1.3,1-2c-1-2.2-2.6-4.2-3.7-6.3	c-0.7-1.3-2.5-2.5-0.9-4.3c4.1-1.3,7.6-1,9.5,3.5c0.4,1.7,0.9,3.3,1.4,4.9c-0.2,3.2-3.5,3.4-5.1,5.3c-0.8,0.3-1.4,0-1.9-0.5	C88.2,141.4,88.1,141.2,88,141z" clip-rule="evenodd"/><path fill="#8163BE" fill-rule="evenodd" d="M84,129c1.2,3.6,5.1,5.8,5,10c-3.5-3.3-5.2-7.9-8.1-11.6	c0.4-0.7,0.8-1.5,1.1-2.2c1.5-1.6,4.3-1.2,5.4-3.5c2.7,0.6,3.7,2.2,3.2,4.9C89.1,129.3,85.6,126.7,84,129z" clip-rule="evenodd"/><path fill="#6D6268" fill-rule="evenodd" d="M80.2,146c-0.1-0.4-0.2-0.7-0.4-1.1c2.2-2.4,4.8-3.9,8.1-3.9l0,0	c-0.5,3.4-3.5,3.8-5.9,5C81.4,146,80.8,146,80.2,146z" clip-rule="evenodd"/><path fill="#2278A9" fill-rule="evenodd" d="M58.5,56c0.5-0.7,1.1-1.4,1.6-2.1c6-2,11.9-4.5,17.6-7.2	c2-0.1,2.6,1.6,3.7,2.7c1.3,1.8,2.6,3.6,4.1,5.3c0.5,0.8,0.9,1.6,0.6,2.6c-3.8,3.3-5.1,8.5-8.7,11.9c-0.4,0.2-0.9,0.2-1.3,0.1	C70.1,65,64,61,58.5,56z" clip-rule="evenodd"/><path fill="#9A45B9" fill-rule="evenodd" d="M76.2,69.2c0.3-0.1,0.5-0.1,0.8-0.3c0.9,0.5,1.4,1.3,1.5,2.3	c-3.1,6-6,12.1-10.8,17c-0.9,0-1.3-0.5-1.5-1.2C69.4,81.1,72.8,75.2,76.2,69.2z" clip-rule="evenodd"/><path fill="#C75BD0" fill-rule="evenodd" d="M66.1,87c0.3,0.4,0.7,0.7,1,1.1c1,1.4-0.5,3.5,1.2,4.8	c0.3,0.7,0.3,1.3,0.1,2c-0.5,0.8-1.3,1.3-2,1.9c-1,0.6-2.1,1.2-3.2,0.3c-0.6-0.1-1.3-0.1-1.9-0.2c-0.1-0.7-0.3-1.4-0.4-2.1	c-0.2-0.5-0.2-0.9,0-1.3c0.5-1.4,2.3-1.5,3-2.7C64.6,89.5,65.3,88.3,66.1,87z" clip-rule="evenodd"/><path fill="#8258D4" fill-rule="evenodd" d="M63.8,90.7c-0.3,1.6-1.6,2.4-2.7,3.3c-3.4-4.2-2.8-9.4-3.7-14.3	c0.2-1.2,0.9-1.9,2.2-1.7c0.8,3.8,1.6,7.6,2.4,11.4C62.3,90.6,62.9,90.8,63.8,90.7z" clip-rule="evenodd"/><path fill="#8362D1" fill-rule="evenodd" d="M59.7,78.1c-0.5,0.3-1,0.6-1.5,0.9c-2.1-1.9-1.7-4-0.5-6.1	c0.1-1.3,0.2-2.5,0.4-3.8c0.2,0,0.5,0.1,0.7,0.2C59.1,72.1,59.4,75.1,59.7,78.1z" clip-rule="evenodd"/><path fill="#155487" fill-rule="evenodd" d="M80.9,50c-1.5-0.5-1.7-2.2-2.7-3.1c-4,1.4-7.7,3.5-11.7,5	c-1.5,0.6-2.8,1.7-4.6,0.9c0.5-5.9,6.7-6.1,9.7-9.6c1.8-2,4.6-3,6.3-5.3c3.6-1.2,6.3-5.9,11-3c0.3,3-2.6,3.4-4,5.1	c-1.2,1.4-3,2.1-3.8,3.8c-0.4,1.2,0.5,1.9,1,2.8c0.2,0.4,0.3,0.8,0.3,1.3C82.2,48.8,81.8,49.6,80.9,50z" clip-rule="evenodd"/><path fill="#29B8D1" fill-rule="evenodd" d="M62,52.9c3.9-1.7,7.8-3.5,11.8-5.1c1.4-0.6,2.7-2.3,4.5-0.8	c-5.3,4.1-11.2,6.7-18,7C60.4,53,61.3,53.1,62,52.9z" clip-rule="evenodd"/><path fill="#C96354" fill-rule="evenodd" d="M111,137.3c2.9,3.1,7.2,3.2,10.8,4.8c1.8,0.8,3.9,1.1,5.2,2.7	c-7.8,4.4-15.7,8.7-23.5,13.1c-0.2-0.1-0.3-0.1-0.5-0.1c-2.3-4.8-1.4-9.7-1-14.7c0.9-2.8,3.5-3.9,5.5-5.6	C108.6,137.1,109.7,136.2,111,137.3z" clip-rule="evenodd"/><path fill="#15222A" fill-rule="evenodd" d="M103.1,142c-0.1,5.3-0.1,10.6-0.2,15.9c-0.9-0.7-1.9-1.3-2.8-2	c-4.8-3.6-8.1-8.2-10-13.9c-0.4-3.5,4.3-2.3,4.7-5.2c0.6-0.5,1.3-0.6,2.1-0.4C99.2,138,102.5,138.5,103.1,142z" clip-rule="evenodd"/><path fill="#54313C" fill-rule="evenodd" d="M90.1,142c3.3,4.6,6.6,9.3,10,13.9c-6.8-0.8-10.9-6.5-16.8-9.1	c-0.4-0.2-0.8-0.5-1.2-0.8c1.2-2.5,4.4-2.7,5.9-5C88.7,141.3,89.4,141.7,90.1,142z" clip-rule="evenodd"/><path fill="#15222B" fill-rule="evenodd" d="M57.7,72.8c0.2,2,0.3,4.1,0.5,6.1c1,5,1.9,10.1,2.9,15.1	c-0.1,0.2-0.2,0.5-0.3,0.7c-3.9,0-7.8,0.1-11.7,0.1c2.3-7.5,4.5-15.1,7-22.6C56.7,70.8,57.1,72.8,57.7,72.8z" clip-rule="evenodd"/><path fill="#182E38" fill-rule="evenodd" d="M46,46.9c-0.1-0.3-0.1-0.7-0.2-1c1.4-1.7,2.8-0.9,4.1,0.1	c0,2,0,4,0.1,6c0.3,0.4,0.2,0.7-0.2,0.9l-0.4,0l-0.4,0C45.8,52.1,47.1,48.9,46,46.9z" clip-rule="evenodd"/><path fill="#8DD8E2" fill-rule="evenodd" d="M46,46.9c1,2,2.1,4,3.1,6c-0.1,1,0.5,2.3-1,2.8	c-1.7-1.6-2.3-3.7-3-5.8C46.3,49.2,45.8,47.9,46,46.9z" clip-rule="evenodd"/><path fill="#F2F0F3" fill-rule="evenodd" d="M49.8,52.9c0.2-0.3,0.2-0.6,0.2-0.9c0.8-0.9,1.1-2.6,2.9-2.2	c1.9,3.4,0.9,5.1-2.9,5.2C49.9,54.3,49.9,53.6,49.8,52.9z" clip-rule="evenodd"/><path fill="#F1ECF3" fill-rule="evenodd" d="M104,33.8c1.7,1.1,3.3,2.2,5,3.4c2,0.7,4.1,0.9,6,1.9	c9.8,4.3,19.5,8.6,29.1,13c1.5,0.9,3.1,1.4,3.9,3.2c0,0.2,0,0.4,0.2,0.6c0.6,1.4,0.2,3,0.3,4.4c-0.2,0.7-1,1.3-1.3,0.7	c-1.6-3.2-4.5-2.9-7.4-2.9c-2.5-5.2-9.6-8-15.1-6c-2.6,1-4.9,2.7-7.7,3.5c-1.1-0.1-1.9-0.6-2.4-1.5c-0.3-1.1,0-2,0.9-2.6	c2.2-1,4.8-1.3,6.9-3.4c-4.5-3.4-9.8-4.9-14.3-7.8c-1.7-0.9-3.9-0.1-5.5-1.6c-1.4-1-2.5-2.2-1-4C102.2,33.9,103,33.5,104,33.8z" clip-rule="evenodd"/><path fill="#5C8FDC" fill-rule="evenodd" d="M162,66c2.7,2.6,5.4,5.3,8.1,7.9c0,2.4,0.4,4.6,2.5,6.1	c0.8,0.6,1.5,1.1,2.1,1.8c0.8,1,1.2,2.1,1.3,3.4c0.1,1,0,2-0.3,3c-0.6,1.4-0.4,3.7-2.4,3.7c-1.6,0-2-1.9-2.4-3.2	c-2.9-7.2-7.2-13.9-9.6-21.4C161.5,66.8,161.7,66.4,162,66z" clip-rule="evenodd"/><path fill="#328CD7" fill-rule="evenodd" d="M148,61.3c0.1-1.8,0.1-3.6,0.2-5.5c1.8,1.8,0.4,4.2,1.1,6.1	c0,0.1,0.2,0.2,0.4,0.2c0.1,0,0.3-0.1,0.4-0.2c2.4,2.9,4.1,6.5,7.9,8c0.5,1,1.2,2,1.6,3c0.6,1.6,0.8,3.2-1.8,2.3	c-4.1-1.4-3.8,1.4-3.8,3.9c-2.7-0.5-2.5-3.1-3.7-4.7c-0.4-0.8-0.9-1.6-1.1-2.5c-0.2-0.7-0.2-1.3-0.3-2c0-1.5-0.1-3-0.8-4.4	c-0.3-0.8-0.7-1.6-0.8-2.5C147.3,62.4,147.4,61.8,148,61.3z" clip-rule="evenodd"/><path fill="#D66EE3" fill-rule="evenodd" d="M175,88.2c0-1.1,0-2.2,0-3.4c3.1-1.1,4.3,1.5,6,3.2l0,0	c-0.4,3.3,3.4,8-3.2,9.1c-0.6,0.5-1.1,0.5-1.7,0c-1.6,0-2.1-1.5-3.1-2.2c-0.1-0.2-0.1-0.4-0.1-0.6C174.4,92.5,174.4,90.3,175,88.2z" clip-rule="evenodd"/><path fill="#A1A8C3" fill-rule="evenodd" d="M161.9,67c3.3,7,6.6,14.1,9.8,21.1c-0.7,0.9,0.3,2.3-0.9,3.1	c-3.6-7.8-7.3-15.6-10.9-23.4c-0.4-0.6-0.7-1.2,0.1-1.7C161,65.5,161.5,66.3,161.9,67z" clip-rule="evenodd"/><path fill="#DED9EE" fill-rule="evenodd" d="M150.8,73.5c1,2,2.1,3.9,3.1,5.9C156,85,157.3,91,161,96	c0.6,0.8,0.5,1.5-0.1,2.2l-0.4,0L160,98c-1.4-0.7-2.4-1.9-3.1-3.3c-2.3-4.9-4.6-9.9-6.3-15.1C150,77.6,149.2,75.5,150.8,73.5z" clip-rule="evenodd"/><path fill="#2864AF" fill-rule="evenodd" d="M157.9,70c-5.7,0.4-7-3.6-7.9-8c0.1-0.8,1-2,1.2-1.5	C152.4,64.5,157.8,65.4,157.9,70z" clip-rule="evenodd"/><path fill="#2DB7CE" fill-rule="evenodd" d="M160.9,98.2c0-0.7,0.1-1.4,0.1-2.2c1.2-1.5,1.2-1.5,0.2-6.5	c1.2,1.3,2.5,2.1,3,3.3c0.9,2.1,4.3,3.5,3.3,5.5c-1,2.1-4.2,0.3-6.4,0.7C161,98.7,161,98.4,160.9,98.2z" clip-rule="evenodd"/><path fill="#267EAB" fill-rule="evenodd" d="M148,55.3c-1.3-0.7-2.6-1.4-3.9-2.2c-1.1-1.1-2.6-1.9-3.6-3.1	c-0.8-1-2.1-2.5,0.5-3.1c1.2,2.3,2.8-1.8,4.1,0.2c0.1,1.3,0.7,2.2,1.9,2.8C147.7,51.7,149.2,53.2,148,55.3z" clip-rule="evenodd"/><path fill="#8B65D9" fill-rule="evenodd" d="M181,88c-2-1.1-4-2.1-6-3.2c-0.3-1-0.6-2-0.9-2.9	c-1-1.3-1.3-2.6,0-3.9C176.9,81,179.9,83.8,181,88z" clip-rule="evenodd"/><path fill="#848AC4" fill-rule="evenodd" d="M161.9,67c-1-0.6-1.9-0.8-2,0.8c-1.6-2.2-3.6-4.3-2.4-7.9	c2.4,1.6,3,4.1,4.5,6C162,66.3,162,66.7,161.9,67z" clip-rule="evenodd"/><path fill="#B1D9E9" fill-rule="evenodd" d="M170.9,91.2c0.3-1-0.2-2.3,0.9-3.1c0.4,1,0.9,2,1.3,3.1	c1.7-0.5,0.3-2.6,1.8-3c-0.6,2,1.7,5.1-2.1,6C171.6,93.6,170.8,92.7,170.9,91.2z" clip-rule="evenodd"/><path fill="#7DDDE2" fill-rule="evenodd" d="M172.1,81.1c-2.1-2-4.6-3.9-2-7.2c1.2,0.8,2.4,1.7,3,3.1	C172.3,78.2,173.2,79.9,172.1,81.1z" clip-rule="evenodd"/><path fill="#DBE8F2" fill-rule="evenodd" d="M172.1,81.1c0.3-1.4-2.5-3.5,1-4.1c0.3,0.3,0.6,0.7,1,1	c0,1.3,0,2.6,0,3.9C173.4,81.6,172.8,81.4,172.1,81.1z" clip-rule="evenodd"/><path fill="#4A3475" fill-rule="evenodd" d="M176.1,97.1c0.6,0,1.1,0,1.7,0c2,2,5.1-0.4,7,1.9	c-0.9,1.7-1.8,3.3-2.7,5c-4.9,0.9-5.9,5.9-8.9,8.7c-2,1.9-3.4,4.4-5.1,6.6c-0.8,0.9-1.7,2.4-3.1,0.7	C168.7,112.4,172.4,104.7,176.1,97.1z" clip-rule="evenodd"/><path fill="#2EC7DB" fill-rule="evenodd" d="M140.9,46.9c-1.9,3.5,3.6,3.4,3.1,6.2c-10-4.4-19.9-8.9-29.9-13.3	c0.8-3.2,3.4-1.7,5.2-1.8c2.4,0,4.7,1.2,6.9,0.7c-4.4-0.7-9.2-0.1-13.3-2.9c7.2-2.7,13.7-0.2,20,3c0.8,0.9,0.2,2.6,2.4,2.8	c2.1,0.3,4.6,0.7,5.7,3.2C141,45.6,141,46.3,140.9,46.9z" clip-rule="evenodd"/><path fill="#1A659A" fill-rule="evenodd" d="M104,33.8c-0.6,0.4-1.3,0.8-1.9,1.2c-2.2,0.5-2.2,3.3-4.3,3.9	c-4.2,1.7-8.2,3.8-12.3,5.5c-1.8,0.8-4.1,2.4-5.5-0.7c1.8-4.2,6.6-5.3,9-8.8c4.4-0.1,8.9,0.4,12.8-2.5	C102.7,31.8,103.5,32.9,104,33.8z" clip-rule="evenodd"/><path fill="#78E0ED" fill-rule="evenodd" d="M113,36c5.8,0.9,11.6,1.9,17.4,2.8c-5.4,2-10.9-1.4-16.2,1.1	c-1.7-0.9-3.4-1.8-5.1-2.7C110.4,37.2,111.8,36.8,113,36z" clip-rule="evenodd"/><path fill="#227BAB" fill-rule="evenodd" d="M141.1,45c-2.2-0.8-4.3-1.6-6.5-2.2c-2.3-0.6-1.9-2.1-1.6-3.8	C139.5,40,140.9,41.1,141.1,45z" clip-rule="evenodd"/><path fill="#E8D6EC" fill-rule="evenodd" d="M106.5,24.1c4.1,1.2,8.6,1.7,11.5,5.5c-3.2-1.2-6.5-2.4-9.7-3.6	C107.7,25.3,107.1,24.7,106.5,24.1z" clip-rule="evenodd"/><path fill="#E8D6EC" fill-rule="evenodd" d="M141.2,37c-0.4,0.3-0.8,0.6-1.3,1c-2.6-1.3-5.6-1.9-7.9-3.9	c3-0.6,5.2,2.4,8.2,1.9C140.5,36.3,140.8,36.7,141.2,37z" clip-rule="evenodd"/><path fill="#E8D6EC" fill-rule="evenodd" d="M122.5,31.1c3.5,0,6.6,1,9.5,3C128.4,34.2,125.4,32.7,122.5,31.1z" clip-rule="evenodd"/><path fill="#3BA9C0" fill-rule="evenodd" d="M112.3,31.8c-2.1,1.6-3.5,1.2-5.3,0.7	C108.6,30.3,110,31,112.3,31.8z" clip-rule="evenodd"/><path fill="#864565" fill-rule="evenodd" d="M150.9,117.9c-0.2,1-0.9,1.7-1.8,2.2c-8.8,6.2-18,11.7-26.6,18.1	c-1.3,0.9-2.8,1.9-4.5,1c-2-0.7-4-1.4-5.9-2.1c-1-1.3-0.2-2.4,0.5-3.4c1.4-1.6,3-2.5,5.2-2.5c2,0.3,3.9,0.2,4.9-2	c0.3-0.3,0.6-0.6,1-0.9c1.9-0.9,2.4-3.2,4.5-4c5.6-2.2,10-6.3,15.1-9.3c1.8-1.1,3.3-2.9,5.8-2.1	C150.8,113.9,150.7,115.9,150.9,117.9z" clip-rule="evenodd"/><path fill="#A3515F" fill-rule="evenodd" d="M117.9,139c8.8-4.7,16.5-11.1,25-16.4c1.9-1.2,3.5-3.1,6.2-2.7	c0,0.7,0,1.4,0,2c-0.8,1.9-1.5,3.9-2.3,5.8c-6.4,3.4-11.9,8.1-17.9,12c-1.5,0.9-2.9,2.3-4.9,1.2C121.8,140.8,119.7,140.4,117.9,139z" clip-rule="evenodd"/><path fill="#BF5B58" fill-rule="evenodd" d="M123.9,141c4.6-1.8,8.6-4.8,12.3-7.9c3.1-2.7,6.7-4.2,10.5-5.2	c-0.7,2.4-1.3,4.7-2,7.1c-3.9,1-6.8,3.7-10.2,5.7C131.1,142.7,127.6,144.5,123.9,141z" clip-rule="evenodd"/><path fill="#B250C3" fill-rule="evenodd" d="M113,134.1c-0.3,0.9-0.7,1.9-1,2.8c-0.3,0.1-0.7,0.3-1,0.4	c-0.9,0.3-1.8,0.5-2.7,0.8c-0.8,0.4-1.5,0.5-2.3,0.1C107.2,132.3,109.3,131.1,113,134.1z" clip-rule="evenodd"/><path fill="#59545E" fill-rule="evenodd" d="M150.9,117.9c-1.2-1.4-1.5-3.1-1.9-4.9c-1.9-1-2.2-3-2.7-4.8	c-0.2-0.9-0.3-1.8-0.1-2.7c0.1-2.2,0.1-4.3-1.9-5.8c-0.3-0.3-0.6-0.7-0.7-1.2c0.1-0.5,0.2-1,0.6-1.4c0.8-0.8,1.8-1.2,2.8-1.3	c4.2-0.1,8.4-0.5,12,2.4C156.3,104.8,153.6,111.3,150.9,117.9z" clip-rule="evenodd"/><path fill="#E696E8" fill-rule="evenodd" d="M159,98.3c-4.2-1.1-8.6-1.2-12.9-1.4c-0.3-1.4,0.5-2.2,1.7-2.7	c3.5-0.6,6.9-1.3,10.2,0.8c0.7,1,1.4,2.1,2.1,3.1C159.7,98.1,159.4,98.2,159,98.3z" clip-rule="evenodd"/><path fill="#1C4F78" fill-rule="evenodd" d="M63.1,97.1c0.9-0.2,1.8-0.4,2.8-0.7c3.8,0.7,5.5,4.1,7.6,6.7	c3.8,4.6,8.1,8.9,11.5,13.8c1,1.5,2.4,2.8,2.1,4.9c1.3,5.6-3.2,2.4-5.1,3.4C75.7,115.8,69.4,106.4,63.1,97.1z" clip-rule="evenodd"/><path fill="#2B303B" fill-rule="evenodd" d="M84,129c-0.8-0.8-1.4-1.8,0.2-2c2-0.3,4-0.1,6-0.1	c0.5-0.2,0.9-0.2,1.4-0.1c2.4,1.7,6.3,2.4,5,6.8c-1.3,0.6-2.5,0.4-3.6-0.4C92,127.4,87.5,129.3,84,129z" clip-rule="evenodd"/><path fill="#A959BC" fill-rule="evenodd" d="M93,133.1c1.3-0.1,2.6-0.2,3.8-0.3c1.1-0.4,1.9,0.2,2.6,0.8	c1.1,1.9,4.4,2.5,3.4,5.7c-2.4,0.6-3.8-1.9-5.9-2.1c-0.7-0.1-1.4-0.3-2.1-0.4C93.5,136,92.9,134.7,93,133.1z" clip-rule="evenodd"/><path fill="#EBD3CC" fill-rule="evenodd" d="M91.1,127.1c-0.3,0-0.6-0.1-0.9-0.3c0.1-2.4-1.1-4-3.1-5	c-6.5-9-13.6-17.4-21.2-25.4c0.3-0.9,1-1.2,1.9-1.1c0.9-0.3,1.8-0.3,2.7,0.1c4.3,3.7,7.5,8.4,11.2,12.7c0.7,1.1,1.5,2.3,1.9,3.5	c1.7,3.2,4.5,5.6,6.4,8.6C91.3,122.2,93.8,124.4,91.1,127.1z" clip-rule="evenodd"/><path fill="#0E3A66" fill-rule="evenodd" d="M85.8,57.1c-0.3-0.7-0.6-1.3-1-2c0.3-0.4,0.7-0.6,1.2-0.6	c3.2,1.1,3.8,4.5,5.6,6.8c0.9,1.5,1.9,3,3,4.4c0.9,1.3,2.1,1.4,3.4,0.8c0.5-0.1,0.9-0.1,1.4-0.1c3.5,1.6,5.9,4.4,8,7.6	c0.2,1-0.3,1.9-0.9,2.7c-2.5,3-5,2-7.5,0.1c-2-2.2-4.5-3.4-7.1-4.6c-0.6-4.9-4.7-8-6.4-12.3C85.1,58.8,85.2,57.9,85.8,57.1z" clip-rule="evenodd"/><path fill="#B857D6" fill-rule="evenodd" d="M85.8,57.1c0,1,0.1,2,0.1,2.9c-0.8,5-3.2,8.9-8,10.9	c-0.3-0.7-0.6-1.3-0.9-2C80,65.1,80.8,59.5,85.8,57.1z" clip-rule="evenodd"/><path fill="#1C2F41" fill-rule="evenodd" d="M86.1,55c-0.4,0-0.9,0.1-1.3,0.1c-1.8-1.3-3-3.1-3.9-5.1	c0.3-0.7,0.5-1.5,0.8-2.2c2.6,0.7,3.4,3.2,4.8,5C86.7,53.6,86.7,54.3,86.1,55z" clip-rule="evenodd"/><path fill="#595460" fill-rule="evenodd" d="M77.8,71c3-3.4,5.8-7,8-10.9c2.7,3.7,7.3,6.4,6.3,12	c-0.3,0.4-0.7,0.6-1.1,0.8c-5.3-0.9-5.1,4.2-7.3,6.6c-5,4.9-10,9.7-15.8,13.7c-6-0.6,0.1-3.4-0.9-5C70.7,82.4,74.3,76.7,77.8,71z" clip-rule="evenodd"/><path fill="#8A8F97" fill-rule="evenodd" d="M68,93.1c4.1-5.7,10-9.3,14.9-14.1c0.4-0.4,0.8-0.4,1.2,0	c0.1,3-2.1,4.8-3.7,6.6C77.1,89.2,73.7,92.8,70,96c-0.7-0.3-1.4-0.5-2.1-0.8C67.9,94.5,68,93.8,68,93.1z" clip-rule="evenodd"/><path fill="#62B1E0" fill-rule="evenodd" d="M80,43.8c2,1.5,3.7,0.1,5.4-0.6c4.2-1.6,8-4.3,12.5-5.2	c0.1,0.2,0.2,0.4,0.3,0.6c-2.3,4.1-6.8,4.6-10.4,6.6c-1.7,0.5-3.3,1.5-5,2c-0.4,0-0.9,0-1.3-0.1C80.9,46,77.8,46.1,80,43.8z" clip-rule="evenodd"/><path fill="#C48EE5" fill-rule="evenodd" d="M85.7,53.3c-1.4-1.8-2.7-3.6-4.1-5.4c0-0.3,0-0.6-0.1-0.8	c0.2,0.1,0.4,0,0.5-0.1c3.2,0.2,4.7,2.1,5.3,5C87,52.6,86.6,53.1,85.7,53.3z" clip-rule="evenodd"/><path fill="#EDE0E8" fill-rule="evenodd" d="M96.9,137.2c2.7-1.4,3.9,1.8,6.2,1.8c0.4-0.7,1-1.2,1.8-1.5	c0.4-0.1,0.8,0,1.1,0.3c0.7,0.1,1.5,0.1,2.2,0.2c-1.3,1.9-3.1,3.1-5.2,3.9C101.2,140.2,98.5,139.5,96.9,137.2z" clip-rule="evenodd"/><path fill="#F5AEF5" fill-rule="evenodd" d="M148.1,62.9c0.3,0.7,0.5,1.5,0.8,2.2c-0.4,1.5,0,3.2-1.6,4.3	c-0.4,0.3-0.8,0.4-1.3,0.6c-3.1,0.5-6.3,0.4-9.5,0.3c-2.7-0.1-4.5,0.8-5.1,3.5c-1,0.9-2,0.3-2.6-0.4c-4.4-5.3-8.4-11-11.8-17	c-0.3-0.4,0-0.9,0.3-1.4c6.3-6,16.3-6.5,22.6-1.1c1.8,1.5-0.1,2.7,0.2,4C140.8,62.7,145.3,61.3,148.1,62.9z" clip-rule="evenodd"/><path fill="#BDBAF3" fill-rule="evenodd" d="M108,39c5.3,2.7,10.6,5.4,15.9,8.1c0.3,0.1,0.4,0.5,0.9,1.1	c-2.7,1.8-5.2,3.8-8.7,3.8c-3.9-3.6-7.3-7.5-9.2-12.6c0-0.1,0.2-0.3,0.3-0.4C107.4,38.8,107.7,38.8,108,39z" clip-rule="evenodd"/><path fill="#EDC7F2" fill-rule="evenodd" d="M108,39c0.8,4.2,4.4,6.5,6.5,9.9c0.6,1,1.5,1.8,1.6,3	c-0.9,0.5-1.1,1.4-1.1,2.3c-0.6,0.8-1.3,1.5-2.3,0.5c-0.6-4.1-2.9-7.2-6-10.4c-1,5.5,0.4,10.8-0.9,15.9c-0.4,0.7-1,1.2-1.9,1.2	c-1.2-0.2-2.1-0.9-2.4-2.1c0.3-6.7-0.3-13.3,0.5-20c0.2-0.6,0.5-1.1,1-1.5C104.3,39.9,106.6,37.3,108,39z" clip-rule="evenodd"/><path fill="#2C7BAF" fill-rule="evenodd" d="M113,55c0.7-0.3,1.3-0.5,2-0.8c0.8,0.3,1.5,0.6,2.3,0.9	c4.5,6.5,9.1,12.9,13.6,19.4c0.2,0.5,0,0.9-0.4,1.1c-1.6,0.5-2.8-0.1-3.8-1.2c-1.5-2-2.7-4.1-4.2-6.1c-1.7-2.6-3.3-5.3-5.2-7.7	c-2.1-2.5-4.4-1.2-6.8-0.5c-1.5,0.5-3.4,2.9-4.8-0.2C107.3,57.1,109.6,55.3,113,55z" clip-rule="evenodd"/><path fill="#C067E2" fill-rule="evenodd" d="M148.1,62.9c-3.4,2-6.1-1-9.1-1.5c-1.7-0.3,1-2.1,1.1-3.4	c4.6-3.4,6.6-0.7,8,3.3C148,61.8,148,62.4,148.1,62.9z" clip-rule="evenodd"/><path fill="#62B1E0" fill-rule="evenodd" d="M102.9,37.9c-0.1,0.3-0.2,0.6-0.3,0.9c-0.7,0.4-1.4,0.4-2.1,0.3	c-1-0.1-1.9-0.4-2.5-1.2c0,0,0-0.1,0-0.1c1.4-1,1.7-3.6,4.2-2.9C101.3,36.3,102.1,37.1,102.9,37.9z" clip-rule="evenodd"/><path fill="#BD5FE0" fill-rule="evenodd" d="M157.9,94.9c-3.7,0.1-7.4,0.1-11.1,0.2c-1.8,0-2.4-1.2-2.9-2.6	c-0.6-6.6,2.2-12.5,3.5-18.7c0.2-1,1-2.2,2.5-1.6c0.3,0.4,0.6,0.8,0.8,1.2C151.3,81.3,156,87.6,157.9,94.9z" clip-rule="evenodd"/><path fill="#F5AEF5" fill-rule="evenodd" d="M150,72.2c-3.3,6.6-4.2,13.7-5.1,20.9c-0.6,0.2-1.1,0-1.5-0.6	c-1.3-8.2,0.7-15.9,3.6-23.5l0.3-0.2c1.1-0.3,1.9,0.3,2.6,1.1C149.9,70.7,149.9,71.5,150,72.2z" clip-rule="evenodd"/><path fill="#F8EEF4" fill-rule="evenodd" d="M149.8,70c-0.9-0.4-1.7-0.7-2.6-1.1c1.3-0.9-0.8-3.3,1.6-3.7	C150.4,66.5,150,68.2,149.8,70z" clip-rule="evenodd"/><path fill="#2378AA" fill-rule="evenodd" d="M144.1,98c0,0.3-0.1,0.6-0.1,0.9c-0.2,1-0.9,1.6-1.6,2.2	c-4,4.5-6.6,9.9-9.4,15.1c-0.4,0.9-0.9,1.6-1.4,2.4c-2.7,3.4-4.9,7.2-7.8,10.5l-0.5,0l-0.5,0c-3,0-4.8-1.8-6.3-4.1	c-0.5-1.9,0.6-3.1,1.7-4.4c2.1-2,3.6-4.4,5.2-6.9c2-2.1,3.2-4.7,4.9-7c0.4-0.5,0.9-1,1.3-1.5c1.9-2.3,4.3-4.3,4.8-7.5	c0.4-1.6,1.2-2.9,2.4-4c0.6-0.3,1.3-0.4,2-0.3c1.1,0.4,2,1.1,3,1.7C142.8,95.9,144.5,96.2,144.1,98z" clip-rule="evenodd"/><path fill="#673B6C" fill-rule="evenodd" d="M131,117.7c0.4-0.6,0.7-1.1,1.1-1.7c0.8-1.3,1.6-2.4,3-3	c2.7-0.8,4.8-2.6,7.2-4c1.4-0.8,2.8-2.5,4.8-1.1c1.6,1.3,0.8,3.6,2,5c-5.5,2.2-9.9,6.3-14.9,9.3c-1.9,1.1-3.5,3.1-6.1,2.7	C127,121.8,130.5,120.4,131,117.7z" clip-rule="evenodd"/><path fill="#563970" fill-rule="evenodd" d="M106,137.9c-0.4,0.1-0.7,0.2-1.1,0.3c-1.2-1.1-1.3-2.5-1.5-4	c1.4-3,4.5-4,6.8-5.9c0.9-0.4,1.8-0.7,2.8-0.6c2,1.1,4.4,1.7,4.9,4.4c-2.1-0.3-3.5,1.1-5.1,2.1C108.1,130.7,108.5,136.9,106,137.9z" clip-rule="evenodd"/><path fill="#262A58" fill-rule="evenodd" d="M118,132c-1.7-1.2-3.4-2.4-5.1-3.5c0-1.9,1.3-2.8,2.7-3.7	c0.5-0.2,0.9-0.1,1.3,0.3c2,1.4,3.9,2.7,5.9,4.1C123.4,133.6,120.6,132.7,118,132z" clip-rule="evenodd"/><path fill="#B856C5" fill-rule="evenodd" d="M131,117.7c0.4,3-2.8,4.5-3,7.3c-1.7,1.1-1.4,4.1-4.2,4.1	C125.7,125,127.9,121.1,131,117.7z" clip-rule="evenodd"/><path fill="#4B3174" fill-rule="evenodd" d="M147,108c-3,0.5-4.9,2.9-7.4,4.3c-1.6,0.9-2.9,2-4.9,1.6	c0.8-5.5,4.8-9.3,7.4-13.9c0.6-0.4,1.3-0.7,1.9-1.1l0,0c2,1.5,1.8,4.2,2.9,6.2C147,106.1,147,107,147,108z" clip-rule="evenodd"/><path fill="#F7EAF3" fill-rule="evenodd" d="M144.1,98c-1-0.7-2-1.4-3-2.1c-1.6-2,0.2-2.5,1.4-3.3	c0.5-0.1,1,0,1.4,0.2c0.3,0.1,0.6,0.1,0.9,0.2c0.7,0.7,1.3,1.3,2,2c-0.2,0.6-0.5,1.1-0.7,1.7C145.4,97.2,144.8,97.6,144.1,98z" clip-rule="evenodd"/><path fill="#9958BA" fill-rule="evenodd" d="M147,105.2c-2.2-1.5-2.3-3.9-2.9-6.2	C148.8,99.2,146.8,102.7,147,105.2z" clip-rule="evenodd"/><path fill="#CDD98C" fill-rule="evenodd" d="M91.1,127.1c0.7-5.7-4.5-8.2-6.7-12.2c-0.5-0.9-2.7-1.2-1-2.9	c2.7,0,3.8,2.2,5.3,3.9c0.8,1.3,1.8,2.5,2.9,3.5c0.5,0.4,1,0.9,1.4,1.4c2.2,2.2,4.6,4.3,6.6,6.7c1.3,1.5,2.5,3.1,1.9,5.4	c-0.5,0.9-1.2,1.5-2.4,1.2c-0.7-0.4-1.5-0.9-2.2-1.3C95.4,130.4,93,129,91.1,127.1z" clip-rule="evenodd"/><path fill="#25263B" fill-rule="evenodd" d="M99.1,134.2c0.6-0.3,1.2-0.7,1.8-1c1.1-0.2,2.2-0.3,3.1,0.7	c1.6,1.1,0.8,2.8,1,4.3c-0.4,0.7-1.1,1-1.9,0.9C102.4,136.9,99.3,136.7,99.1,134.2z" clip-rule="evenodd"/><path fill="#2CC7DB" fill-rule="evenodd" d="M88,116.7c-1.6-1.5-3.1-3.1-4.7-4.6c-0.7-0.9-1.3-1.9-2-2.8	c-1-3.9,0.1-8.3-2.8-11.8c-0.1-0.8,0.1-1.5,0.4-2.2c0.8-5.7,1.1-11.6,6.5-15.4c3.5-0.4,4.8,2,5.9,4.6c1.2,6.2,6.2,9.8,10.2,13.9	c2,2.1,3-1.9,4.6-2.8c1-2,3.6-3.1,3.3-5.8c-1.8-4.3-5-6.5-9.6-6.7c-0.6-2.3-0.8-4.7-0.8-7c2.3,0.2,4.8,3.5,7-0.2	c2.1,0.2,0.9,1.6,0.9,2.5c1.2,6,4.8,7.9,8.7,4.6c1.4-1.2,3-2.1,5-1.3c5.7,3.2,6.3,8.5,5.8,14.2c0,1.3,0,2.7-0.2,4	c-0.9,3.5-0.8,7.2-1.9,10.7c-0.3,1-0.7,1.9-1.4,2.7c-2,2.1-3.9,4.2-5.8,6.4c-2,1.2-2.7,0-3.1-1.7c-0.4-2.3,0.2-4.5,0.7-6.6	c0.5-3,1.3-6,1.8-9.2c-1.7,1-2.7,2.9-4.7,3.4c-2.5,0.5-3.5,2.8-5.2,4.2c-1.6,1.3-2.8,3.3-5.4,2.9c-3.6-1.6-5.1-5.8-8.8-7.2	c-0.6,0.2-1.4-1.5-1.4-0.3c-0.1,2,1.1,3.9,0.9,6c-0.1,0.4-0.3,0.8-0.6,1.1c-1.7-0.3-0.9,1-1.1,1.8C89.7,115,90.6,117.1,88,116.7z" clip-rule="evenodd"/><path fill="#195274" fill-rule="evenodd" d="M78.7,97.2c5.7,3,2.6,7.9,2.7,12.1c-3.8-4.4-7.6-8.8-11.4-13.2	c0.3-3,3.1-4.1,4.7-6.1c3-3.7,6.3-7.3,9.5-10.9c0.2-0.3,0.6-0.4,0.9-0.3c0.5,0.3,0.8,0.7,0.9,1.3C81,84.2,81.3,90.4,80,96	c-0.1-0.1-0.3-0.2-0.4-0.2c-1.3-0.4-1.4-2.7-3.4-2.1c-0.5,0.1-0.8,0.6-0.7,1.1C75.7,96.6,77.7,96.2,78.7,97.2z" clip-rule="evenodd"/><path fill="#0E2E56" fill-rule="evenodd" d="M125,96c1-5.6-0.7-10.2-5.2-13.8c-4.7-2.2-8.3-5.9-12.9-8.2	c-2.7-2.3-5.4-4.7-8-7c-1.3-2.9-3.5-4.7-6.2-6c-0.4-0.2-0.8-0.5-1.2-0.8c-0.9-1.8-3.6-2.8-2.1-5.5c4.8,0.4,9,2.3,12.7,5.3	c0.6,0.3,1.3,0.7,1.9,1c4.3,1,6.4,4.7,9.5,7.3c1.6,1.8,3.5,3.4,5,5.3c1.3,2.3,3.2,4,5.1,5.8c2,2.1,4,4.1,6.1,6.1	c2.3,3,6.2,4.7,7.1,8.8c0.3,1.7-1.4,2.3-1.8,3.7c0.1,2.2-1.5,2.9-3.1,3.7c-2.9,0-2.5-2.1-2.6-4C128.5,95.7,126.2,97.4,125,96z" clip-rule="evenodd"/><path fill="#0B487A" fill-rule="evenodd" d="M86.1,80.1c-0.3-0.3-0.7-0.6-1-0.9c0.2-4,3.2-5.7,6.3-7.1	c0.3,0,0.5,0,0.8,0c2.9,0.3,5.6,1,6.9,4.1c2.6,2.2,1.9,4.7,0.7,7.2c-1.6,2.6-3.7,4.4-7,4.4c-1.1-0.5-2.1-1.1-1.9-2.6	C89.7,83,88.1,81.3,86.1,80.1z" clip-rule="evenodd"/><path fill="#074F81" fill-rule="evenodd" d="M107,74c6,0.1,8.9,5,12.9,8.2c-1.7-0.3-3,0.5-4.1,1.6	c-4-0.8-8.4-0.8-9.8-5.9c0-0.7,1.3-1.4,0-2.1C106.3,75.2,106.7,74.6,107,74z" clip-rule="evenodd"/><path fill="#E9D4E8" fill-rule="evenodd" d="M89.2,55c1,1.6,1.9,3.2,2.9,4.7c0.5,1.2,0.6,2.3-1.2,2.3	c-1.6-2.4-3.2-4.7-4.8-7.1c-0.1-0.6-0.3-1.1-0.4-1.7c0.5-0.5,1-1,1.4-1.5c0.4-0.1,0.8,0,1.2,0.3c0.5,0.7,0.8,1.5,0.9,2.3	C89.2,54.6,89.2,54.8,89.2,55z" clip-rule="evenodd"/><path fill="#535687" fill-rule="evenodd" d="M92.9,60c2.7,1.7,6.8,2.2,6,6.9c-0.3,0-0.6,0-0.9,0.1	c-2.5-0.6-3.4-2.9-4.9-4.5C92.6,61.8,92.2,60.9,92.9,60z" clip-rule="evenodd"/><path fill="#7D778E" fill-rule="evenodd" d="M93.9,62c1.4,1.7,2.8,3.3,4.1,5c-2.2,2.9-3.5,2.3-4.1-1	C93.2,64.7,92.7,63.4,93.9,62z" clip-rule="evenodd"/><path fill="#E0A7E2" fill-rule="evenodd" d="M93.9,62c0,1.3,0,2.6,0.1,4c-1.4-1-2.4-2.3-3-3.9	c1-0.5,1.1-1.4,1.2-2.3c0.3,0.1,0.6,0.2,0.8,0.3C93.3,60.7,93.6,61.4,93.9,62z" clip-rule="evenodd"/><path fill="#717DA7" fill-rule="evenodd" d="M91.4,72c-2.1,2.4-4.2,4.8-6.3,7.1c-0.3,0-0.5-0.1-0.8-0.1	C83.8,79,83.4,79,83,79c0.6-0.8,1.7-1.7,1.6-2.4C83.5,70.1,88.2,72.3,91.4,72z" clip-rule="evenodd"/><path fill="#4986D2" fill-rule="evenodd" d="M87.8,51.8c-0.2,0-0.4,0-0.7,0c-1.7-1.6-3.4-3.2-5.1-4.9	c1.4-1.5,3.3-2.1,5.1-2.8c1.9,0.6,4.1,0,5.8,1.5c0.3,0.4,0.5,0.8,0.4,1.3C92.1,49.2,90.6,51.3,87.8,51.8z" clip-rule="evenodd"/><path fill="#3A76C0" fill-rule="evenodd" d="M93.1,46.1c-2.2-0.1-4.2-0.6-6-1.9c3.8-1.7,8-2.8,10.9-6.1	c1,0,2.1,0,3.1,0c0.5,2.2-1.4,3.2-2.5,4.6C96.8,43.8,95.9,46.4,93.1,46.1z" clip-rule="evenodd"/><path fill="#E174EC" fill-rule="evenodd" d="M143.9,92.9c-0.3,0.1-0.5,0.1-0.8,0.1c-5.9-4.8-9.5-11.1-12.4-18	c0-0.2,0.1-0.4,0.1-0.6c-1.4-4.5,0.4-5.9,4.8-5.5c3.8,0.3,7.6,0.1,11.3,0.1C146.7,77.1,143.4,84.8,143.9,92.9z" clip-rule="evenodd"/><path fill="#5966D8" fill-rule="evenodd" d="M98,41.9c1-1.3,2.1-2.6,3.1-3.9c0.5,0.3,1,0.6,1.5,0.8	c0.5,7.1,1.4,14.2-0.5,21.2c-4.6-0.8-8.4-3.8-12.9-5l-0.4,0c-1.3-4.4,2.9-5.4,4.7-8C94.9,45.3,97,44.1,98,41.9z" clip-rule="evenodd"/><path fill="#A797EA" fill-rule="evenodd" d="M113,55c-2.3,1.7-4.7,3.3-7,5c-0.3,0.4-0.6,0.4-0.9,0	c0-6,0-12,0-18C110.2,44.5,114,50.8,113,55z" clip-rule="evenodd"/><path fill="#7CB0ED" fill-rule="evenodd" d="M105.1,60c0.3,0,0.6,0,0.9,0c2.5,1,4.1-1.2,6.1-2	c2.7-1,4.7-0.8,5.9,2c1.4,4.8-1.7,7.2-5.1,9.3c-3-2.8-5.9-5.5-8.9-8.3C104.4,60.7,104.7,60.3,105.1,60z" clip-rule="evenodd"/><path fill="#1E4F78" fill-rule="evenodd" d="M130.7,75.1c4.1,6,8.3,12,12.4,18c-0.3,1.2-2.8,0.9-2,2.9	c-1.1-0.3-1.8-1.1-2.4-2c-2.7-2.9-4.2-6.6-6.5-9.7c-1.2-3.9-5.5-4.6-7.8-7.4c-0.2-2,0.9-2.7,2.7-2.7	C128.3,74.9,129.5,75.1,130.7,75.1z" clip-rule="evenodd"/><path fill="#678AE8" fill-rule="evenodd" d="M127.3,74.1c-0.6,1.1-2.5,1.2-2.3,2.9c0.8,2,1.2,3.7-2,3	c-1.9-1.7-4-3.3-5.1-5.7c0.1-3.5,1.3-6.1,5.3-6.4C125.2,69.5,126.3,71.8,127.3,74.1z" clip-rule="evenodd"/><path fill="#729EEC" fill-rule="evenodd" d="M123.2,67.9c-2.8,1.3-3.7,4.1-5.3,6.4c-1.7-1.7-3.3-3.3-5-5	c1.6-3.2,5.2-5.2,5.1-9.3C120.1,62.4,122,64.9,123.2,67.9z" clip-rule="evenodd"/><path fill="#3EBB94" fill-rule="evenodd" d="M90.8,112c0.1-0.3,0.1-0.7,0.2-1c2.4-1.5,4.6,0.8,6.9,0.5	c0.9,0.1,1.7,0.4,2.4,1c0.9,0.8,2.1,0.5,3.1,0.8c4,1.1,7.5,3.5,11.5,4.8c0.1,1.6,0.9,1.5,2,0.9c2.1-0.7,3-0.2,2.2,2.1	c-0.5,1.4-2.1,2.3-2.1,4c-0.3,0.1-0.5,0.1-0.8,0.1c-2.7,1-4.9,0.5-7.2-1.3c-4.1-3.2-9.4-3.8-14-5.9c-1.5-0.6-3.3-0.6-4.4-2	C89.9,114.5,90,113.2,90.8,112z" clip-rule="evenodd"/><path fill="#0B4472" fill-rule="evenodd" d="M131.1,97.1c0.5,1.3-2.5,3.4,0.9,3.9c0.9,2.4-2.2,3.2-2.1,5.3	c-0.3,0.2-0.5,0.5-0.8,0.7c-2.3,0.9-2.7,4.6-5.9,4c0.6-3.6,0.6-7.3,1.9-10.8C126.8,98.6,128.3,96.6,131.1,97.1z" clip-rule="evenodd"/><path fill="#485CDE" fill-rule="evenodd" d="M133.1,83.9c2.5,3,4.9,6.1,5.7,10c-0.7,0.1-1.3,0.3-2,0.4	c-2.6-2.8-5.2-5.5-7.9-8.3C130,84.7,131.4,84.1,133.1,83.9z" clip-rule="evenodd"/><path fill="#2C9E8E" fill-rule="evenodd" d="M119,121c-0.1-1.4-0.8-2-2.2-2.1c0.8-2.8,2.9-4.3,5-6	c1.2-0.5,1.7,0.1,2.2,1.1C123.1,116.9,121.6,119.4,119,121z" clip-rule="evenodd"/><path fill="#8783D2" fill-rule="evenodd" d="M142.1,100.1c-2.5,4.6-4.9,9.2-7.4,13.9c-0.9,0.7-1.8,1.4-2.7,2.1	C134.8,110.3,137.5,104.6,142.1,100.1z" clip-rule="evenodd"/><path fill="#1A7F83" fill-rule="evenodd" d="M124,114c-0.7-0.4-1.4-0.7-2.2-1.1c0.4-0.7,0.8-1.3,1.2-2	c2.2-0.9,3.1-3.9,5.9-4C127.6,109.5,126.9,112.5,124,114z" clip-rule="evenodd"/><path fill="#27A5C5" fill-rule="evenodd" d="M129.8,106.3c-2-2.9,2.2-3.2,2.1-5.3c1-1,2-2,3.1-3	C135.5,102.1,132.1,103.8,129.8,106.3z" clip-rule="evenodd"/><path fill="#49CD9A" fill-rule="evenodd" d="M91.2,116c7,1.5,14.1,2.9,19.7,7.8c1.8,1.6,3.9-0.6,5.3,1.3	c-1.1,1.1-2.1,2.2-3.2,3.4c-0.7,0.2-1.4,0.3-2,0.5c-2,0.4-3.7,0.7-5.2-1.7c-1.6-2.5-5.2-2.5-7.8-3.8c-1.9-0.9-4.1-1.3-5.8-2.5	c-0.3-0.3-0.7-0.6-1-0.9C90.2,118.7,89.7,117.3,91.2,116z" clip-rule="evenodd"/><path fill="#57E4A1" fill-rule="evenodd" d="M92,121c5.3-0.1,9.6,3,14.4,4.5c1.6,0.5,1.6,4,4.5,3.5	c-2.1,1.9-4.2,3.9-6.9,4.9c-1.1,0.1-2.3,0.6-3.1-0.7c0.2-3.8-3.1-5.2-5-7.6C94.7,123.9,93.3,122.5,92,121z" clip-rule="evenodd"/><path fill="#8BE9E8" fill-rule="evenodd" d="M91.2,116c0,1.4-0.1,2.8-0.1,4.1c-1.4-0.8-2.6-1.8-3-3.4	c1.7-1.3,0.6-3.1,0.9-4.6c0.5-2.8,1.2-0.4,1.9-0.1C90.9,113.3,91,114.6,91.2,116z" clip-rule="evenodd"/><path fill="#047EA0" fill-rule="evenodd" d="M92.9,87c3,0.2,3.8-3.9,6.8-3.7c4.7-2.2,10.1,1.3,10.3,6.8	c0.1,2.4-2,2.8-3.5,3.8c-2.7,0.7-5.3,0.6-8,0.2C95.8,92.3,93.3,90.5,92.9,87z" clip-rule="evenodd"/><path fill="#2FA38D" fill-rule="evenodd" d="M114.9,118c-0.7,0.2-1,1.8-1.8,1c-2.8-2.7-6.9-2.9-10-5	c1.1-2.8,2.9-5,5.6-6.4c2.2,1.5,4.7,2.3,7.1,3.3C115.5,113.3,115.2,115.7,114.9,118z" clip-rule="evenodd"/><path fill="#1A8283" fill-rule="evenodd" d="M115.9,111c-3,0.6-5.6,0.3-6.8-3c-0.6-1.8,0.9-2.3,2-3	c2.6-1.4,3.7-4.5,7.2-6C117.4,103.5,116.6,107.2,115.9,111z" clip-rule="evenodd"/><path fill="#D6F1F2" fill-rule="evenodd" d="M92.9,87c1.7,2,3.4,4,5.1,6c2.8,3.4,6.1,1.7,9.3,1.1	c0.2,0.7,0.2,1.4-0.2,2c-1,1.3-2,2.6-3,3.9c-1.1,1.4-2.3,1.3-3.3,0.1C97.1,95.5,93.5,91,90,86.5c-0.8-1-0.2-1.4,0.9-1.4	C91.6,85.7,92.2,86.4,92.9,87z" clip-rule="evenodd"/><path fill="#32A991" fill-rule="evenodd" d="M98.1,111.9c-2.6,1.8-4.7-0.9-7.1-0.9c-0.5-3-2.2-5.9-1.8-9.2	c2.2,0.2,2.3,2.4,3.7,3.2C94.9,107,98.6,107.9,98.1,111.9z" clip-rule="evenodd"/><path fill="#056194" fill-rule="evenodd" d="M106,78c2.3,3.6,6.9,3.3,9.8,5.9c-1,1.9-2.6,4.4-4.6,2.5	C108.9,84.1,104,83,106,78z" clip-rule="evenodd"/><path fill="#147580" fill-rule="evenodd" d="M78.7,97.2c-2.4,1.3-4.3,0.2-5.2-1.8c-0.7-1.5,1.1-2.8,2.3-3.4	c4.2-1.9,2.7,2.8,4.2,4C79.5,96.4,79.1,96.8,78.7,97.2z" clip-rule="evenodd"/><path fill="#70E8EB" fill-rule="evenodd" d="M111,105.1c-0.7,1-1.3,2-2,3c-2,2-4,4-5.9,6	c-1.1-0.1-2.4,0.3-3.1-0.9c-0.3-1,0.1-1.3,1.1-1.1c3.1-0.3,4.1-3.4,6.3-4.9C108.5,106.3,108.8,103.9,111,105.1z" clip-rule="evenodd"/><path fill="#6099DA" fill-rule="evenodd" d="M131.1,97.1c-2,1.1-3.1,3.8-6,3c0-1.4,0-2.7,0-4.1	C127,96.5,129.8,92.6,131.1,97.1z" clip-rule="evenodd"/><path fill="#6EE3E6" fill-rule="evenodd" d="M101,112c-0.4,0.4-0.7,0.7-1.1,1.1c-0.6-0.4-1.2-0.8-1.9-1.2	c-0.6-3.1-3.9-4.3-5.1-7C96.9,105.9,98.6,109.4,101,112z" clip-rule="evenodd"/><path fill="#78E9ED" fill-rule="evenodd" d="M107,96c0-0.7-0.1-1.4-0.1-2.1c-0.3-0.2-0.4-0.4-0.4-0.6	c0-0.3,0.1-0.4,0.2-0.4c1.1-1,2.2-1.9,3.3-2.9c1.4,0.1,1.6,0.7,0.7,1.7C109.5,93.2,108.3,94.6,107,96z" clip-rule="evenodd"/><path fill="#5671E3" fill-rule="evenodd" d="M133.1,83.9c-0.8,1.9-2.3,2.2-4.1,2.1c-2-2-4-4-6-6	c2-0.1,2-1.5,2-3C129,77.8,132.1,79.6,133.1,83.9z" clip-rule="evenodd"/><path fill="#C48EE5" fill-rule="evenodd" d="M94.1,47c-1.3,2.9-5.4,4.1-5.2,8c-1-0.8-0.8-2.1-1-3.2	c1.7-1.6,3.5-3.2,5.2-4.8C93.4,46.6,93.7,46.6,94.1,47z" clip-rule="evenodd"/><path fill="#8F8EE2" fill-rule="evenodd" d="M94.1,47c-0.4,0-0.7,0-1.1,0c0-0.3,0-0.6,0.1-1	c1.6-1.4,3.3-2.8,4.9-4.1C98.3,44.9,95.6,45.5,94.1,47z" clip-rule="evenodd"/><path fill="#12A1B8" fill-rule="evenodd" d="M106.7,92.9c0.1,0.3,0.1,0.7,0.2,1c-3.5,4.2-6.4,3.4-8.9-0.9	C100.9,93,103.8,92.9,106.7,92.9z" clip-rule="evenodd"/></svg>