<svg xmlns="http://www.w3.org/2000/svg" xmlns:xlink="http://www.w3.org/1999/xlink" id="Layer_1" x="0" y="0" version="1.1" viewBox="0 0 84.4 92.4" style="enable-background:new 0 0 84.4 92.4" xml:space="preserve"><style type="text/css">.st0{fill:url(#SVGID_1_)}.st1{fill:url(#SVGID_2_)}.st2{fill:url(#SVGID_3_)}.st3{fill:url(#SVGID_4_)}.st4{fill:url(#SVGID_5_)}.st5{fill:url(#SVGID_6_)}</style><g><linearGradient id="SVGID_1_" x1="-1113.54" x2="-1189.948" y1="2031.531" y2="2133.888" gradientTransform="matrix(0.7142 -0.6999 0.6999 0.7142 -602.4046 -2222.2778)" gradientUnits="userSpaceOnUse"><stop offset="0" style="stop-color:#1da2dc"/><stop offset="1" style="stop-color:#1da2dc"/></linearGradient><path d="M47.9,9.1L47.9,9.1c5.6,2.8,9.7,8.1,11.3,14.5c0,0,0,0.1,0,0.1c1.2,4.7-0.6,9.7-4.4,12.7 c-1.7,1.4-3.8,2.4-6.2,2.2c3.7-1,7.5-2.6,7.4-8.4c0-0.5,0-1,0-1.5c-0.1-1.2-0.2-2.4-0.5-3.5c-1.2-5.6-4.7-10.4-9.5-12.7l-0.4-0.3 c-1.1-0.7-1.7-1.9-1.6-3.1l0.1-2.9c0-0.9-0.7-1.7-1.6-1.7l-5-0.1c-0.9,0-1.7,0.7-1.7,1.6l0,2.9c0,1.4-0.8,2.7-2.1,3.2 C27.5,15,23.2,22,23.1,29.6L23,33.8l-0.5,32.7c0,2.4,0.3,4.4,1,6c1.9,4.6,4.4,6.9,12.6,7l0.7,0c0.6,0,6.4,0.1,7,0.1 c-1,0.7-1.9,1.3-2.9,2c-0.5,0.3-1.3,0.7-2.2,1.3c0,0,0,0,0,0c-0.2,0.1-0.4,0.3-0.7,0.4c-1.6,1-2.2,1.3-3.3,1.9 c-0.7,0.4-1.5,0.8-3.2,1.5c-1.5,0.6-3.7,1.5-6.5,2.6c-8.5,3.2-15.8,3.3-20.2-0.6C-0.1,84.5-0.6,76.1,2.4,66 c2.8-9.2,8.5-19.8,16.6-30.2l0-1.5l0.1-4.7c0.2-9.2,5.1-17.3,12.7-20.7l0-0.5c0-0.2,0-0.4,0-0.4l0-1.8c0.1-3.1,2.6-5.5,5.7-5.5 l5,0.1c3,0.1,5.5,2.6,5.5,5.7l0,1.8c0,0,0,0.2,0,0.4L47.9,9.1z" class="st0"/><linearGradient id="SVGID_2_" x1="-1094.362" x2="-1095.476" y1="2044.052" y2="2060.982" gradientTransform="matrix(0.7177 -0.6963 0.6963 0.7177 -591.1485 -2212.5706)" gradientUnits="userSpaceOnUse"><stop offset=".303" style="stop-color:#1d70b7"/><stop offset="1" style="stop-color:#00a3e5"/></linearGradient><path d="M83,8.9c-0.5-1.3-1.3-2.6-2.3-3.8c-5-5.4-13-4.6-19.4-2.6c-4.7,1.5-9.1,3.8-13.3,6.4c-0.1,0.1-0.6,0.5-0.7,0.4 c4.8,2.3,8.5,6.9,10.2,12.6c0,0,0,0,0,0c0.2,1.2,1,2.4,1.1,3.5c0,0.5,0.4,1.4,0.4,1.9c0.1,5.8-4.9,9.9-8.7,10.9 c-0.2,0.1-0.4,0.1-0.7,0.1c0,0-0.1,0-0.1,0c-0.2,0-0.4,0-0.6,0.1c-0.7,0-1.5,0-1.9-0.6c-0.5-0.7,0-1.8-0.3-2.6 c-0.6-1.4-2.5-0.9-3.8-0.2c-4.7,2.5-9.4,5-14,7.4c-0.5,0.3-1.1,0.6-1.3,1.1c-0.5,1.1,0.5,2.3,1.5,3.1c3,2.4,5.9,4.9,8.9,7.3 c0.8,0.7,1.7,1.4,2.5,2c1.1,0.9,3,1.8,3.8,0.6c0.3-0.5,0.3-1.1,0.6-1.6c0.2-0.5,0.5-0.9,0.8-1.4c0.4,0,0.8,0.1,1.2,0.1 c4.1,0.2,8.5,0.1,12.4-1.1c4-1.3,7.6-3.8,10.5-6.8c7.4-7.4,12.4-17.2,13.9-27.6C84,15,84.1,11.8,83,8.9z" class="st1"/><linearGradient id="SVGID_3_" x1="71.885" x2="32.135" y1="45.45" y2=".075" gradientUnits="userSpaceOnUse"><stop offset="0" style="stop-color:#00a3e5"/><stop offset=".106" style="stop-color:#019fe1"/><stop offset=".219" style="stop-color:#0594d4"/><stop offset=".334" style="stop-color:#0b81bf"/><stop offset=".452" style="stop-color:#1367a1"/><stop offset=".569" style="stop-color:#1e457c"/><stop offset=".65" style="stop-color:#272a5d"/></linearGradient><path d="M83.6,18.1c-1.5,10.4-6.5,20.2-13.9,27.6c-3,3-6.5,5.5-10.6,6.8c-3.9,1.3-8.3,1.3-12.4,1.1 c-0.4,0-0.8,0-1.2-0.1c-0.3,0.4-0.5,0.9-0.8,1.3c-0.2,0.5-0.2,1.2-0.6,1.6c-0.9,1.2-2.7,0.3-3.8-0.6c-0.8-0.7-1.7-1.4-2.5-2 c-2.9-2.4-5.9-4.8-8.9-7.3c-1-0.8-2-1.9-1.5-3.1c0.2-0.5,0.8-0.8,1.3-1.1c3.4-1.8,6.7-3.6,10.1-5.4c1.3-0.7,2.6-1.4,3.9-2.1 c1.3-0.7,3.3-1.1,3.8,0.2c0.2,0.6,0,1.3,0.1,1.9c0,0.2,0.1,0.4,0.2,0.7c0.4,0.5,1,0.6,1.7,0.6h0c0.1,0,0.1,0,0.2,0 c0.2,0,0.4,0,0.6-0.1c0,0,0.1,0,0.1,0c0.1,0,0.3,0,0.4-0.1c0.1,0,0.2,0,0.3-0.1c1.5-0.3,3.3-1,4.5-2c3.8-3,5.6-8,4.4-12.7 c0,0,0-0.1,0-0.1C57.6,17.2,53.5,11.9,48,9.1l-0.1,0c0,0,0,0,0,0c4.2-2.6,8.6-4.9,13.3-6.4c1-0.3,2.1-0.6,3.1-0.9 c5.7-1.3,12.1-1.1,16.3,3.4c1,1.2,1.8,2.4,2.3,3.7C84.1,11.8,84,15,83.6,18.1z" class="st2"/><linearGradient id="SVGID_4_" x1="11.168" x2="43.043" y1="27.568" y2="67.506" gradientUnits="userSpaceOnUse"><stop offset="0" style="stop-color:#00a3e5"/><stop offset=".283" style="stop-color:#1284c9"/><stop offset=".506" style="stop-color:#1d70b7"/><stop offset="1" style="stop-color:#35a8e0"/></linearGradient><path d="M54.8,36.3c-1.2,1-3.1,1.6-4.5,2c-0.1,0-0.2,0-0.3,0.1c-0.4,0.1-0.8,0.1-1.1,0.2c-0.1,0-0.1,0-0.2,0 c3.7-1,7.5-2.6,7.4-8.4c0-0.5,0-1-0.1-1.4c-0.1-1.2-0.2-2.4-0.5-3.5c-1.2-5.7-4.7-10.4-9.5-12.7l-0.4-0.3c-1.1-0.7-1.7-1.9-1.6-3.1 l0.1-2.9c0-0.9-0.7-1.7-1.6-1.7l-5-0.1c-0.9,0-1.7,0.7-1.7,1.7l0,2.9c0,1.4-0.8,2.7-2,3.2C27.5,15,23.2,22,23,29.6L23,33.8 l-0.5,32.8c0,0.5,0,1.1,0,1.6l0,0.1c0.1,1.7,0.4,3.1,1,4.3c1.1,2.7,2.4,4.5,4.9,5.7c0,0,0.1,0,0.1,0c1.8,0.8,4.2,1.3,7.6,1.3l0.7,0 c0.6,0,6.4,0.1,7,0.1c-0.1,0-0.1,0.1-0.1,0.1c-0.9,0.6-1.8,1.3-2.8,1.9c-0.5,0.3-1.3,0.7-2.2,1.3c0,0,0,0,0,0 c-0.2,0.1-0.5,0.3-0.7,0.4c-1.6,1-2.2,1.4-3.3,1.9c-0.7,0.4-1.5,0.8-3.2,1.5c-1.4,0.6-3.7,1.5-6.5,2.6c-8.5,3.2-15.8,3.3-20.2-0.6 c-2.2-1.9-3.5-4.6-4-7.9c-1.4-8.3,2.3-20.3,9.8-33c1.8-3,3.8-6.1,6.1-9.1c0.2-0.3,0.5-0.6,0.7-0.9c0.3-0.4,0.5-0.7,0.8-1.1 c0.3-0.4,0.6-0.8,0.8-1.1v0l0-2.5c0,0,0,0,0-0.1l0.1-3.7c0.2-9.2,5.2-17.3,12.7-20.7V8.3c0-0.2,0-0.4,0-0.4l0-1.8 c0.1-3.1,2.6-5.5,5.7-5.5l5,0.1C45.6,0.7,48,3.2,48,6.3v1.9c0,0,0,0.2,0,0.4l0,0.5l0.1,0c5.6,2.8,9.6,8.1,11.3,14.5c0,0,0,0,0,0.1 C60.4,28.3,58.6,33.3,54.8,36.3z" class="st3"/><linearGradient id="SVGID_5_" x1="-1134.488" x2="-1135.172" y1="2051.86" y2="2051.323" gradientTransform="matrix(0.7142 -0.6999 0.6999 0.7142 -602.4046 -2222.2778)" gradientUnits="userSpaceOnUse"><stop offset="0" style="stop-color:#00a3e5"/><stop offset=".309" style="stop-color:#0797db"/><stop offset=".861" style="stop-color:#1879bf"/><stop offset="1" style="stop-color:#1d70b7"/></linearGradient><path d="M23,33.8l-0.1,7L23,33.8C23,33.8,23,33.8,23,33.8z" class="st4"/><linearGradient id="SVGID_6_" x1="14.883" x2="3.004" y1="69.86" y2="42.291" gradientUnits="userSpaceOnUse"><stop offset="0" style="stop-color:#00a3e5;stop-opacity:0"/><stop offset=".816" style="stop-color:#28295d"/></linearGradient><path d="M19.9,66.6L0.8,80.9c-1.4-8.3,2.3-20.3,9.8-33c1.8-3,3.8-6.1,6.1-9.1c0.2-0.3,0.5-0.6,0.7-0.9 c0.3-0.4,0.5-0.7,0.8-1.1c0.3-0.4,0.6-0.8,0.8-1.1L19.9,66.6z" class="st5"/></g></svg>