<svg xmlns="http://www.w3.org/2000/svg" xmlns:svg="http://www.w3.org/2000/svg" xmlns:xlink="http://www.w3.org/1999/xlink" id="svg5" width="100mm" height="100mm" version="1.1" viewBox="0 0 100 100"><defs id="defs2"><style id="style824"/><linearGradient id="Dégradé_sans_nom_13" x2="141.404" y1="70.702" y2="70.702" gradientUnits="userSpaceOnUse"><stop id="stop826" offset="0" stop-color="#00a19a"/><stop id="stop828" offset="1" stop-color="#29235c"/></linearGradient><linearGradient id="Dégradé_sans_nom_13-2" x1="230.903" x2="260.314" y1="549.746" y2="549.746" gradientTransform="rotate(-15.00005,-1727.3378,1084.483)" xlink:href="#D%C3%A9grad%C3%A9_sans_nom_13"/><linearGradient id="Dégradé_sans_nom_13-3" x1="230.903" x2="256.858" y1="569.29" y2="569.29" gradientTransform="rotate(-15.00002,-1727.3417,1084.4848)" xlink:href="#D%C3%A9grad%C3%A9_sans_nom_13"/><linearGradient id="Dégradé_sans_nom_13-4" x1="295.791" x2="321.747" y1="549.824" y2="549.824" gradientTransform="rotate(-15.00002,-1727.3417,1084.4848)" xlink:href="#D%C3%A9grad%C3%A9_sans_nom_13"/><linearGradient id="Dégradé_sans_nom_13-5" x1="292.632" x2="318.588" y1="569.937" y2="569.937" gradientTransform="rotate(-15.00002,-1727.3417,1084.4848)" xlink:href="#D%C3%A9grad%C3%A9_sans_nom_13"/><linearGradient id="Dégradé_sans_nom_13-6" x1="54.986" x2="88.995" y1="19.836" y2="19.836" xlink:href="#D%C3%A9grad%C3%A9_sans_nom_13"/><linearGradient id="Dégradé_sans_nom_13-7" x1="249.846" x2="299.389" y1="618.406" y2="618.406" xlink:href="#D%C3%A9grad%C3%A9_sans_nom_13"/><clipPath id="clip0_411_785"><rect id="rect1108" width="200" height="200" fill="#fff"/></clipPath><style id="style1077"/><linearGradient id="Dégradé_sans_nom_13-28" x2="141.404" y1="70.702" y2="70.702" gradientUnits="userSpaceOnUse"><stop id="stop1079" offset="0" stop-color="#00a19a"/><stop id="stop1081" offset="1" stop-color="#29235c"/></linearGradient><linearGradient id="Dégradé_sans_nom_13-2-2" x1="230.903" x2="260.314" y1="549.746" y2="549.746" gradientTransform="rotate(-15.00005,-1727.3378,1084.483)" xlink:href="#Dégradé_sans_nom_13-28"/><linearGradient id="Dégradé_sans_nom_13-3-2" x1="230.903" x2="256.858" y1="569.29" y2="569.29" gradientTransform="rotate(-15.00002,-1727.3417,1084.4848)" xlink:href="#Dégradé_sans_nom_13-28"/><linearGradient id="Dégradé_sans_nom_13-4-9" x1="295.791" x2="321.747" y1="549.824" y2="549.824" gradientTransform="rotate(-15.00002,-1727.3417,1084.4848)" xlink:href="#Dégradé_sans_nom_13-28"/><linearGradient id="Dégradé_sans_nom_13-5-8" x1="292.632" x2="318.588" y1="569.937" y2="569.937" gradientTransform="rotate(-15.00002,-1727.3417,1084.4848)" xlink:href="#Dégradé_sans_nom_13-28"/></defs><g id="layer1"><g id="g345" transform="matrix(0.27891537,0,0,0.28039668,8.0023064,11.565347)"><g id="Grid" display="none"><rect id="rect312" width="192" height="192" x="-.039" y="0" display="inline"/><line id="line314" x1="-.039" x2="-.039" y1="0" y2="-14.477" fill="none" display="inline"/><line id="line316" x1="191.961" x2="191.961" y1="0" y2="-14.477" fill="none" display="inline"/><line id="line318" x1="191.961" x2="206.438" y1="0" y2="0" fill="none" display="inline"/><line id="line320" x1="-.039" x2="-.039" y1="192" y2="206.477" fill="none" display="inline"/><line id="line322" x1="191.961" x2="191.961" y1="192" y2="206.477" fill="none" display="inline"/><line id="line324" x1="191.961" x2="206.438" y1="192" y2="192" fill="none" display="inline"/></g><g id="Layer_2"><path id="path327" fill="#00a19a" d="m 19.545,143.155 c -0.984,2.694 -1.667,5.488 -2.035,8.333 C -13.241,108.298 -3.157,48.356 40.033,17.604 76.988,-8.708 127.317,-5.56 160.704,25.151 c 0,0 -34.253,33.907 -45.196,43.124 -15.131,12.749 -35.866,29.414 -40.474,24.921 -4.608,-4.493 33.83,-67.853 33.83,-67.853 0,0 -44.889,71.501 -51.532,67.2 -6.643,-4.301 3.226,-63.437 3.226,-63.437 0,0 -21.082,87.667 -29.03,86.093 -3.84,-0.729 -4.301,-21.658 -4.109,-34.253 -0.539,15.861 -2.382,47.195 -7.874,62.209 z m 96.846,-29.222 c 6.489,8.947 59.98,-19.814 59.98,-19.814 0,0 -53.223,29.53 -62.055,37.095 -8.832,7.565 -12.402,16.243 -4.915,18.547 14.745,4.34 66.739,-6.912 66.739,-6.912 0,0 -92.16,23.77 -92.467,31.795 -0.423,7.412 24.96,7.681 28.8,7.681 v 0 c -1.92,0 -10.214,0 -43.776,0.384 -5.53,0 -9.869,0.308 -12.826,0.537 48.122,22.256 105.175,1.285 127.429,-46.838 15.789,-34.143 10.184,-74.36 -14.341,-102.883 0.001,-0.002 -58.252,72.69 -52.568,80.408 z M 107.827,92.505 C 122.572,86.592 192,0 192,0 192,0 87.897,100.492 107.827,92.505 Z m -24.998,29.339 c -7.027,-7.681 -32.025,6.259 -43.699,16.857 -9.216,8.332 -13.44,19.199 -11.52,27.455 1.503,-4.378 4.353,-8.168 8.141,-10.828 7.411,-5.568 16.089,-6.49 19.43,-2.074 3.341,4.416 0,12.52 -7.411,18.087 -3.006,2.315 -6.521,3.882 -10.253,4.569 7.68,1.997 18.317,-1.268 26.88,-9.101 C 76.301,156.25 89.856,129.6 82.829,121.844 Z"/></g></g><g style="fill:none" id="g1122" transform="matrix(0.26458333,0,0,0.26458333,41.266133,36.680623)"><g id="g1106" clip-path="url(#clip0_411_785)"><path id="path1102" fill="#50af95" d="M 100,200 C 155.228,200 200,155.228 200,100 200,44.7715 155.228,0 100,0 44.7715,0 0,44.7715 0,100 0,155.228 44.7715,200 100,200 Z"/><path id="path1104" fill="#fff" fill-rule="evenodd" d="m 111.028,103.812 c -0.619,0.046 -3.816,0.237 -10.946,0.237 -5.6713,0 -9.698,-0.17 -11.1106,-0.237 -21.9172,-0.963 -38.2764,-4.7744 -38.2764,-9.3383 0,-4.5635 16.3592,-8.3699 38.2764,-9.3486 v 14.8909 c 1.4332,0.102 5.5372,0.345 11.2086,0.345 6.805,0 10.214,-0.283 10.827,-0.34 V 85.1354 c 21.871,0.9735 38.194,4.7851 38.194,9.3383 0,4.553 -16.318,8.3643 -38.194,9.3333 z m 0,-20.2167 V 70.2703 H 141.55 V 49.9507 H 58.4493 v 20.3196 h 30.5169 v 13.3199 c -24.8044,1.1383 -43.4579,6.047 -43.4579,11.9291 0,5.8827 18.6535,10.7857 43.4579,11.9287 v 42.7 h 22.0568 v -42.715 c 24.747,-1.139 43.37,-6.042 43.37,-11.9188 0,-5.877 -18.607,-10.7805 -43.37,-11.924 z" clip-rule="evenodd"/></g></g></g></svg>