<svg xmlns="http://www.w3.org/2000/svg" width="200" height="200" fill="none" viewBox="0 0 200 200"><path fill="url(#paint0_linear_5184_335)" d="M10.4766 100C10.4766 149.446 50.5602 189.529 100.006 189.529C149.452 189.529 189.535 149.446 189.535 100C189.535 50.5542 149.452 10.4706 100.006 10.4706C50.5602 10.4706 10.4766 50.5542 10.4766 100Z"/><mask id="mask0_5184_335" style="mask-type:luminance" width="200" height="200" x="0" y="0" maskUnits="userSpaceOnUse"><path fill="#fff" d="M0 -2.98023e-06H200V200H0V-2.98023e-06Z"/></mask><path fill="#fff" fill-opacity=".6" d="M99.9492 41.5V84.7368L136.379 101.07L99.9492 41.5Z"/><path fill="#fff" d="M99.9505 41.5L63.5 101.07L99.9505 84.7368V41.5Z"/><path fill="#B9E1D3" d="M99.9492 129.096V158.479L136.4 107.869L99.9492 129.096Z"/><path fill="#fff" d="M99.9505 158.479V129.096L63.5 107.892L99.9505 158.5V158.479Z"/><path fill="#fff" d="M99.9492 122.275L136.379 101.049L99.9492 84.7373V122.275Z" opacity=".2"/><path fill="#fff" d="M63.5195 101.07L99.9701 122.296V84.7578L63.5195 101.07Z" opacity=".6"/><defs><linearGradient id="paint0_linear_5184_335" x1="10.477" x2="189.535" y1="100" y2="100" gradientUnits="userSpaceOnUse"><stop stop-color="#79E49B"/><stop offset=".937" stop-color="#309287"/><stop offset="1" stop-color="#309287"/></linearGradient></defs></svg>