<svg xmlns="http://www.w3.org/2000/svg" xmlns:xlink="http://www.w3.org/1999/xlink" width="200" height="200" className="expanded" viewBox="0 0 200 200"><defs><linearGradient id="lkmex" x1=".5" x2=".5" y2="1" gradientUnits="objectBoundingBox"><stop offset="0" stop-color="#1a45c2"/><stop offset="1" stop-color="#001f9c"/></linearGradient><linearGradient id="lkmex-2" x1=".5" x2=".5" y1=".491" y2=".009" xlink:href="#lkmex"/></defs><g transform="translate(0.237 0.236)"><circle cx="99" cy="99" r="99" fill="#fff" transform="translate(-0.237 -0.236)"/><g><g><path fill="url(#lkmex)" fill-rule="evenodd" d="M378.85,152.213l-10.414,48.375H342.182Z" transform="translate(46.363 37.001) translate(-323.013 -152.213)"/><path fill="#1a45c2" fill-rule="evenodd" d="M380.4,271.184l-19.166,25.487H295.04l19.169-25.487Z" transform="translate(46.363 37.001) translate(-295.04 -222.808)"/><path fill="url(#lkmex-2)" fill-rule="evenodd" d="M404.314,333.864,367.646,382.24l10.414-48.376Z" transform="translate(46.363 37.001) translate(-338.123 -260.002)"/></g><g transform="translate(46.363 37.001)"><ellipse cx="36.72" cy="36.719" fill="#fff" rx="36.72" ry="36.719" transform="translate(45.974 55.76)"/><circle cx="31.037" cy="31.037" r="31.037" fill="#f5bb07" transform="translate(51.657 61.442)"/><path fill="#fff" d="M25.824,8.337H24.275V3.688a9.813,9.813,0,0,0-19.627,0V8.337H3.1a3.1,3.1,0,0,0-3.1,3.1v12.4a3.1,3.1,0,0,0,3.1,3.1H25.824a3.1,3.1,0,0,0,3.1-3.1v-12.4A3.1,3.1,0,0,0,25.824,8.337Zm-6.714,0h-9.3V3.688a4.648,4.648,0,1,1,9.3,0Z" transform="translate(68.772 79.958)"/></g></g></g></svg>