<svg xmlns="http://www.w3.org/2000/svg" xmlns:xlink="http://www.w3.org/1999/xlink" width="1000" height="1000" version="1.1" viewBox="0 0 1000 1000"><title>newlogo</title><desc>Created with Sketch.</desc><defs><linearGradient id="linearGradient-1" x1="50%" x2="50%" y1="0%" y2="100%"><stop offset="0%" stop-color="#F7A259"/><stop offset="100%" stop-color="#F95412"/></linearGradient><linearGradient id="linearGradient-2" x1="50%" x2="50%" y1=".143%" y2="100%"><stop offset="0%" stop-color="#FF986E"/><stop offset="100%" stop-color="#FF672A"/></linearGradient><linearGradient id="linearGradient-3" x1="23.809%" x2="75.031%" y1="15.814%" y2="85.116%"><stop offset="0%" stop-color="#000"/><stop offset="100%" stop-color="#000" stop-opacity="0"/></linearGradient></defs><g id="newlogo" fill="none" fill-rule="evenodd" stroke="none" stroke-width="1"><circle id="Oval" cx="500" cy="500" r="500" fill="#111112"/><g id="Logo2"><g transform="translate(221.333333, 188.000000)"><polygon id="Path-2" fill="url(#linearGradient-1)" points="0 400.449 117.263 271.387 117.263 202.168 0 336.674"/><polygon id="Path-2" fill="url(#linearGradient-1)" points="0 299.364 117.263 170.303 117.263 101.084 0 235.59"/><polygon id="Path-2" fill="url(#linearGradient-1)" points="0 198.28 117.263 69.219 117.263 0 0 134.506"/><polygon id="Path-3" fill="url(#linearGradient-2)" points="0 622.056 212.522 390.048 399.359 622.056 558.954 622.056 290.718 311.028 558.954 0 409.394 0 0 458.225"/><polygon id="Path" fill="url(#linearGradient-3)" points="211.074 390.249 288.961 311.028 445.598 493.828 356.308 571.514" opacity=".368"/></g></g></g></svg>