<svg xmlns="http://www.w3.org/2000/svg" xmlns:xlink="http://www.w3.org/1999/xlink" id="Layer_1" width="200" height="200" viewBox="0 0 500 500"><defs><style>.cls-1{fill:#fff;opacity:.1}.cls-2{fill:url(#linear-gradient)}.cls-2,.cls-3,.cls-4,.cls-5{opacity:.35}.cls-6{fill:url(#IV_Gradient)}.cls-7{fill:url(#IV_Gradient-2)}.cls-8{fill:url(#linear-gradient-9)}.cls-10,.cls-11,.cls-12,.cls-8,.cls-9{opacity:.65}.cls-9{fill:url(#linear-gradient-8)}.cls-10{fill:url(#linear-gradient-7)}.cls-11{fill:url(#linear-gradient-6)}.cls-12{fill:url(#linear-gradient-5)}.cls-3{fill:url(#linear-gradient-3)}.cls-4{fill:url(#linear-gradient-2)}.cls-5{fill:url(#linear-gradient-4)}</style><linearGradient id="IV_Gradient" x1="-1325.44" x2="-1330.85" y1="-2301.83" y2="-1875.91" gradientTransform="translate(1886.77 -1606.97) rotate(-106.16)" gradientUnits="userSpaceOnUse"><stop offset="0" stop-color="#41bf8c"/><stop offset="1" stop-color="#00beff"/></linearGradient><linearGradient id="IV_Gradient-2" x1="111.12" x2="384.95" y1="332.86" y2="174.77" gradientTransform="matrix(1,0,0,1,0,0)" xlink:href="#IV_Gradient"/><linearGradient id="linear-gradient" x1="226.55" x2="244" y1="389.26" y2="389.26" gradientUnits="userSpaceOnUse"><stop offset="0" stop-color="#fff"/><stop offset=".09" stop-color="#f2f2f2" stop-opacity=".98"/><stop offset=".25" stop-color="#d2d2d2" stop-opacity=".91"/><stop offset=".46" stop-color="#9d9d9d" stop-opacity=".81"/><stop offset=".72" stop-color="#555" stop-opacity=".67"/><stop offset="1" stop-color="#000" stop-opacity=".5"/></linearGradient><linearGradient id="linear-gradient-2" x1="203.42" y1="346.77" y2="346.77" xlink:href="#linear-gradient"/><linearGradient id="linear-gradient-3" x1="478.33" x2="495.78" gradientTransform="translate(751.78) rotate(-180) scale(1 -1)" xlink:href="#linear-gradient"/><linearGradient id="linear-gradient-4" x1="455.2" x2="495.78" y1="346.77" y2="346.77" gradientTransform="translate(751.78) rotate(-180) scale(1 -1)" xlink:href="#linear-gradient"/><linearGradient id="linear-gradient-5" x1="2046.48" x2="2270.32" y1="-654.42" y2="-654.42" gradientTransform="translate(-1258.6 -1471.4) rotate(64.89)" xlink:href="#linear-gradient"/><linearGradient id="linear-gradient-6" x1="2103.96" x2="2268.75" y1="-543.8" y2="-543.8" gradientTransform="translate(-1258.6 -1471.4) rotate(64.89)" xlink:href="#linear-gradient"/><linearGradient id="linear-gradient-7" x1="339.35" x2="381.38" y1="243.86" y2="333.52" xlink:href="#linear-gradient"/><linearGradient id="linear-gradient-8" x1="2049.12" x2="2128.79" y1="-590.47" y2="-590.47" gradientTransform="translate(-1258.6 -1471.4) rotate(64.89)" xlink:href="#linear-gradient"/><linearGradient id="linear-gradient-9" x1="333.34" x2="358.66" y1="147.03" y2="201.06" xlink:href="#linear-gradient"/></defs><circle cx="250" cy="250" r="208.63" class="cls-1"/><path d="m454.56,190.73c32.68,112.8-32.5,231.15-145.3,263.83-112.8,32.68-231.15-32.5-263.83-145.3C12.76,196.47,77.94,78.12,190.73,45.44c112.8-32.68,231.15,32.5,263.83,145.3ZM53.78,306.85c31.35,108.2,144.87,170.72,253.07,139.37,108.2-31.35,170.72-144.87,139.37-253.07-31.35-108.2-144.87-170.72-253.07-139.37C84.95,85.13,22.43,198.65,53.78,306.85Z" class="cls-6"/><path d="m243.99,359.56h0v59.38h-17.45v-53.64l-23.13-31.33h21.69l18.89,25.59h0Zm12.01,0h0v59.38h17.45v-53.64l23.13-31.33h-21.69l-18.89,25.59h0Zm-75.81-128.31l69.98,97.5,69.63-97.75-70.04-149.95-69.58,150.2Zm-80.29,89.93l78.99,39.25,11.6-87.44-89.09-58.23-1.5,106.42Zm298.69-106.42l-89.09,58.23,11.6,87.44,78.99-39.25-1.5-106.42Zm-266.67-29.04l34.16,26.13,13.68-40.78-37.23-36.16-10.61,50.81Zm225.54-50.81l-37.23,36.16,13.68,40.78,34.16-26.13-10.61-50.81Z" class="cls-7"/><polygon points="226.55 365.31 244 359.56 226.55 418.95 226.55 365.31" class="cls-2"/><polygon points="203.42 333.97 244 359.56 225.11 333.97 203.42 333.97" class="cls-4"/><polygon points="273.45 365.31 256 359.56 273.45 418.95 273.45 365.31" class="cls-3"/><polygon points="296.58 333.97 256 359.56 274.89 333.97 296.58 333.97" class="cls-5"/><polygon points="249.77 81.73 319.81 231 250.18 328.75 249.77 81.73" class="cls-12"/><polygon points="190.49 272.99 101.41 214.76 178.89 360.43 190.49 272.99" class="cls-11"/><polygon points="321.11 360.43 398.59 214.76 400.09 321.18 321.11 360.43" class="cls-10"/><polygon points="142.53 134.92 179.77 171.08 166.09 211.86 142.53 134.92" class="cls-9"/><polygon points="333.91 211.86 357.47 134.92 368.08 185.72 333.91 211.86" class="cls-8"/></svg>