<svg xmlns="http://www.w3.org/2000/svg" width="200" height="200" fill="none" viewBox="0 0 200 200"><g clip-path="url(#clip0_432_2747)"><path fill="#627EEA" d="M193.75 100C193.75 48.2233 151.777 6.25 100 6.25C48.2233 6.25 6.25 48.2233 6.25 100C6.25 151.777 48.2233 193.75 100 193.75C151.777 193.75 193.75 151.777 193.75 100Z"/><path fill="#000" fill-opacity=".8" d="M99.9766 31.9766V85.0777L144.858 105.132L99.9766 31.9766Z"/><path fill="#000" d="M99.989 31.9766L55.1016 105.132L99.989 85.0777V31.9766Z"/><path fill="#000" fill-opacity=".8" d="M99.9766 139.542V175.623L144.888 113.488L99.9766 139.542Z"/><path fill="#000" d="M99.989 175.623V139.536L55.1016 113.488L99.989 175.623Z"/><path fill="#000" fill-opacity=".7" d="M99.9766 131.191L144.858 105.132L99.9766 85.0889V131.191Z"/><path fill="#000" fill-opacity=".8" d="M55.1016 105.132L99.989 131.191V85.0889L55.1016 105.132Z"/><path stroke="#000" stroke-width="12.5" d="M193.75 100C193.75 48.2233 151.777 6.25 100 6.25C48.2233 6.25 6.25 48.2233 6.25 100C6.25 151.777 48.2233 193.75 100 193.75C151.777 193.75 193.75 151.777 193.75 100Z"/></g><defs><clipPath id="clip0_432_2747"><rect width="200" height="200" fill="#fff"/></clipPath></defs></svg>