<svg xmlns="http://www.w3.org/2000/svg" xmlns:anim="urn:oasis:names:tc:opendocument:xmlns:animation:1.0" xmlns:ooo="http://xml.openoffice.org/svg/export" xmlns:presentation="http://sun.com/xmlns/staroffice/presentation" xmlns:smil="http://www.w3.org/2001/SMIL20/" xmlns:xlink="http://www.w3.org/1999/xlink" width="62.48mm" height="62.48mm" fill-rule="evenodd" stroke-linejoin="round" stroke-width="28.222" preserveAspectRatio="xMidYMid" version="1.2" viewBox="0 0 6248 6248" xml:space="preserve"><defs class="ClipPathGroup"><clipPath id="presentation_clip_path" clipPathUnits="userSpaceOnUse"><rect width="6248" height="6248" x="0" y="0"/></clipPath><clipPath id="presentation_clip_path_shrink" clipPathUnits="userSpaceOnUse"><rect width="6236" height="6236" x="6" y="6"/></clipPath></defs><defs class="EmbeddedBulletChars"><g id="bullet-char-template-57356"><path d="M 580,1141 L 1163,571 580,0 -4,571 580,1141 Z" transform="scale(0.00048828125,-0.00048828125)"/></g><g id="bullet-char-template-57354"><path d="M 8,1128 L 1137,1128 1137,0 8,0 8,1128 Z" transform="scale(0.00048828125,-0.00048828125)"/></g><g id="bullet-char-template-10146"><path d="M 174,0 L 602,739 174,1481 1456,739 174,0 Z M 1358,739 L 309,1346 659,739 1358,739 Z" transform="scale(0.00048828125,-0.00048828125)"/></g><g id="bullet-char-template-10132"><path d="M 2015,739 L 1276,0 717,0 1260,543 174,543 174,936 1260,936 717,1481 1274,1481 2015,739 Z" transform="scale(0.00048828125,-0.00048828125)"/></g><g id="bullet-char-template-10007"><path d="M 0,-2 C -7,14 -16,27 -25,37 L 356,567 C 262,823 215,952 215,954 215,979 228,992 255,992 264,992 276,990 289,987 310,991 331,999 354,1012 L 381,999 492,748 772,1049 836,1024 860,1049 C 881,1039 901,1025 922,1006 886,937 835,863 770,784 769,783 710,716 594,584 L 774,223 C 774,196 753,168 711,139 L 727,119 C 717,90 699,76 672,76 641,76 570,178 457,381 L 164,-76 C 142,-110 111,-127 72,-127 30,-127 9,-110 8,-76 1,-67 -2,-52 -2,-32 -2,-23 -1,-13 0,-2 Z" transform="scale(0.00048828125,-0.00048828125)"/></g><g id="bullet-char-template-10004"><path d="M 285,-33 C 182,-33 111,30 74,156 52,228 41,333 41,471 41,549 55,616 82,672 116,743 169,778 240,778 293,778 328,747 346,684 L 369,508 C 377,444 397,411 428,410 L 1163,1116 C 1174,1127 1196,1133 1229,1133 1271,1133 1292,1118 1292,1087 L 1292,965 C 1292,929 1282,901 1262,881 L 442,47 C 390,-6 338,-33 285,-33 Z" transform="scale(0.00048828125,-0.00048828125)"/></g><g id="bullet-char-template-9679"><path d="M 813,0 C 632,0 489,54 383,161 276,268 223,411 223,592 223,773 276,916 383,1023 489,1130 632,1184 813,1184 992,1184 1136,1130 1245,1023 1353,916 1407,772 1407,592 1407,412 1353,268 1245,161 1136,54 992,0 813,0 Z" transform="scale(0.00048828125,-0.00048828125)"/></g><g id="bullet-char-template-8226"><path d="M 346,457 C 273,457 209,483 155,535 101,586 74,649 74,723 74,796 101,859 155,911 209,963 273,989 346,989 419,989 480,963 531,910 582,859 608,796 608,723 608,648 583,586 532,535 482,483 420,457 346,457 Z" transform="scale(0.00048828125,-0.00048828125)"/></g><g id="bullet-char-template-8211"><path d="M -4,459 L 1135,459 1135,606 -4,606 -4,459 Z" transform="scale(0.00048828125,-0.00048828125)"/></g><g id="bullet-char-template-61548"><path d="M 173,740 C 173,903 231,1043 346,1159 462,1274 601,1332 765,1332 928,1332 1067,1274 1183,1159 1299,1043 1357,903 1357,740 1357,577 1299,437 1183,322 1067,206 928,148 765,148 601,148 462,206 346,322 231,437 173,577 173,740 Z" transform="scale(0.00048828125,-0.00048828125)"/></g></defs><g class="SlideGroup"><g><g id="container-id1"><g id="id1" class="Slide" clip-path="url(#presentation_clip_path)"><g class="Page"><g class="com.sun.star.drawing.PolyPolygonShape"><g id="id3"><rect width="14154" height="11687" x="3309" y="2540" fill="none" stroke="none" class="BoundingBox"/></g></g><g class="Group"><g class="com.sun.star.drawing.ClosedBezierShape"><g id="id4"><rect width="5604" height="5605" x="323" y="328" fill="none" stroke="none" class="BoundingBox"/><path fill="#D9DADB" stroke="none" d="M 3124,329 C 4672,329 5926,1583 5926,3130 5926,4678 4672,5932 3124,5932 1577,5932 323,4678 323,3130 323,1583 1577,329 3124,329 Z"/></g></g><g class="com.sun.star.drawing.ClosedBezierShape"><g id="id5"><rect width="5562" height="5562" x="344" y="350" fill="none" stroke="none" class="BoundingBox"/><g><defs><linearGradient id="gradient1" x1="-231" x2="6480" y1="1774" y2="4486" gradientUnits="userSpaceOnUse"><stop offset="0" style="stop-color:#f5f5f5"/><stop offset="1" style="stop-color:#d9dadb"/></linearGradient></defs><path style="fill:url(#gradient1)" d="M 3124,350 L 3408,364 3684,406 3951,475 4207,568 4450,685 4679,825 4893,985 5091,1164 5270,1361 5430,1575 5569,1805 5686,2048 5780,2303 5849,2570 5891,2846 5905,3130 5891,3414 5849,3690 5780,3957 5686,4213 5569,4456 5430,4685 5270,4899 5091,5097 4893,5276 4679,5436 4450,5575 4207,5692 3951,5786 3684,5855 3408,5897 3124,5911 2840,5897 2564,5855 2297,5786 2042,5692 1799,5575 1569,5436 1355,5276 1158,5097 979,4899 819,4685 679,4456 562,4213 469,3957 400,3690 358,3414 344,3130 358,2846 400,2570 469,2303 562,2048 679,1805 819,1575 979,1361 1158,1164 1355,985 1569,825 1799,685 2042,568 2297,475 2564,406 2840,364 3124,350 Z"/></g></g></g><g class="com.sun.star.drawing.ClosedBezierShape"><g id="id6"><rect width="680" height="742" x="2034" y="3725" fill="none" stroke="none" class="BoundingBox"/><path fill="#000200" stroke="none" d="M 2082,4465 C 2205,4144 2420,3910 2713,3755 2702,3747 2692,3732 2681,3725 2523,3806 2387,3911 2276,4039 2174,4157 2094,4292 2035,4446 2050,4452 2066,4458 2082,4465 Z"/></g></g><g class="com.sun.star.drawing.ClosedBezierShape"><g id="id7"><rect width="679" height="742" x="3561" y="3725" fill="none" stroke="none" class="BoundingBox"/><path fill="#000200" stroke="none" d="M 4191,4465 C 4068,4144 3853,3910 3561,3755 3571,3747 3582,3732 3592,3725 3751,3806 3886,3911 3998,4039 4099,4157 4179,4292 4239,4446 4223,4452 4207,4458 4191,4465 Z"/></g></g><g class="com.sun.star.drawing.ClosedBezierShape"><g id="id8"><rect width="908" height="382" x="3866" y="2534" fill="none" stroke="none" class="BoundingBox"/><path fill="#000200" stroke="none" d="M 3866,2864 C 4210,2866 4505,2750 4757,2534 4760,2546 4770,2561 4773,2574 4640,2692 4492,2781 4332,2838 4187,2889 4030,2915 3866,2915 3866,2898 3866,2881 3866,2864 Z"/></g></g><g class="com.sun.star.drawing.ClosedBezierShape"><g id="id9"><rect width="908" height="382" x="1487" y="2534" fill="none" stroke="none" class="BoundingBox"/><path fill="#000200" stroke="none" d="M 2394,2864 C 2049,2866 1755,2750 1503,2534 1500,2546 1490,2561 1487,2574 1620,2692 1768,2781 1927,2838 2073,2889 2230,2915 2394,2915 2394,2898 2394,2881 2394,2864 Z"/></g></g><g class="com.sun.star.drawing.PolyPolygonShape"><g id="id10"><rect width="49" height="772" x="3113" y="1664" fill="none" stroke="none" class="BoundingBox"/><path fill="#000200" stroke="none" d="M 3113,1664 L 3161,1664 3161,2435 3113,2435 3113,1664 Z"/></g></g><g class="com.sun.star.drawing.ClosedBezierShape"><g id="id11"><rect width="1532" height="1442" x="2364" y="2334" fill="none" stroke="none" class="BoundingBox"/><path fill="#000200" stroke="none" d="M 3129,3775 L 2654,3775 2364,2883 C 2364,2883 3135,2334 3129,2334 3124,2334 3895,2883 3895,2883 L 3605,3775 3129,3775 Z"/></g></g><g class="com.sun.star.drawing.ClosedBezierShape"><g id="id12"><rect width="5102" height="5367" x="582" y="350" fill="none" stroke="none" class="BoundingBox"/><path fill="#0086E0" stroke="none" d="M 2663,388 L 2401,1246 3137,1752 3873,1246 3612,392 C 3453,364 3290,350 3124,350 2967,350 2813,363 2663,388 Z M 2663,388 L 2663,388 Z M 5335,1444 C 5474,1626 5592,1827 5683,2042 5638,2246 5573,2450 5482,2655 5236,2626 4990,2598 4744,2570 4696,2335 4649,2099 4601,1863 L 5335,1444 Z M 5335,1444 L 5335,1444 Z M 4778,5365 C 4592,5503 4386,5618 4168,5707 L 3741,4971 4215,4412 C 4436,4512 4656,4612 4876,4713 4862,4925 4857,5134 4778,5365 Z M 4778,5365 L 4778,5365 Z M 2101,5716 C 1888,5631 1688,5522 1505,5391 1417,5150 1412,4933 1398,4713 1618,4612 1837,4512 2058,4412 L 2533,4971 2101,5716 Z M 2101,5716 L 2101,5716 Z M 582,2001 C 672,1798 786,1607 920,1433 L 1672,1863 C 1625,2099 1577,2335 1530,2570 1283,2598 1037,2626 791,2655 694,2437 627,2219 582,2001 Z"/></g></g><g class="Group"><g class="com.sun.star.drawing.ClosedBezierShape"><g id="id13"><rect width="364" height="364" x="2625" y="831" fill="none" stroke="none" class="BoundingBox"/><path fill="#FFF" stroke="none" d="M 2807,831 C 2907,831 2988,912 2988,1013 2988,1113 2907,1194 2807,1194 2706,1194 2625,1113 2625,1013 2625,912 2706,831 2807,831 Z"/></g></g><g class="com.sun.star.drawing.ClosedBezierShape"><g id="id14"><rect width="364" height="364" x="3277" y="831" fill="none" stroke="none" class="BoundingBox"/><path fill="#FFF" stroke="none" d="M 3459,831 C 3559,831 3640,912 3640,1013 3640,1113 3559,1194 3459,1194 3358,1194 3277,1113 3277,1013 3277,912 3358,831 3459,831 Z"/></g></g></g></g><g class="com.sun.star.drawing.PolyPolygonShape"><g id="id15"><rect width="27307" height="6829" x="-1595" y="18484" fill="none" stroke="none" class="BoundingBox"/></g></g></g></g></g></g></g></svg>