<svg xmlns="http://www.w3.org/2000/svg" width="200" height="200" fill="none" viewBox="0 0 200 200"><path fill="url(#paint0_linear_5071_304)" d="M10.4766 100C10.4766 149.446 50.5602 189.529 100.006 189.529C149.452 189.529 189.535 149.446 189.535 100C189.535 50.5542 149.452 10.4706 100.006 10.4706C50.5602 10.4706 10.4766 50.5542 10.4766 100Z"/><mask id="mask0_5071_304" style="mask-type:luminance" width="200" height="200" x="0" y="0" maskUnits="userSpaceOnUse"><path fill="#fff" d="M0 -2.98023e-06H200V200H0V-2.98023e-06Z"/></mask><path fill="#fff" fill-rule="evenodd" d="M113.304 38.3003L102.785 87.1639H76.2656L113.304 38.3003Z" clip-rule="evenodd"/><path fill="#fff" fill-rule="evenodd" d="M143.125 87.165L123.765 112.909H56.9023L76.265 87.165H143.125Z" clip-rule="evenodd"/><path fill="#fff" fill-rule="evenodd" d="M123.761 112.908L86.7227 161.773L97.2419 112.908H123.761Z" clip-rule="evenodd"/><defs><linearGradient id="paint0_linear_5071_304" x1="10.477" x2="189.535" y1="100" y2="100" gradientUnits="userSpaceOnUse"><stop stop-color="#79E49B"/><stop offset=".937" stop-color="#309287"/><stop offset="1" stop-color="#309287"/></linearGradient></defs></svg>